<svg width="16" height="16" viewBox="0 0 16 16" fill="none" xmlns="http://www.w3.org/2000/svg">
<path fill-rule="evenodd" clip-rule="evenodd" d="M8 0C3.58172 0 0 3.58172 0 8C0 12.4183 3.58172 16 8 16C12.4183 16 16 12.4183 16 8C16 3.58172 12.4183 0 8 0ZM8 14C4.68629 14 2 11.3137 2 8C2 4.68629 4.68629 2 8 2C11.3137 2 14 4.68629 14 8C14 11.3137 11.3137 14 8 14ZM1 8C1 4.13401 4.13401 1 8 1C11.866 1 15 4.13401 15 8C15 11.866 11.866 15 8 15C4.13401 15 1 11.866 1 8ZM4 8C4 10.2091 5.79086 12 8 12C10.2091 12 12 10.2091 12 8C12 5.79086 10.2091 4 8 4C5.79086 4 4 5.79086 4 8ZM8 3C5.23858 3 3 5.23858 3 8C3 10.7614 5.23858 13 8 13C10.7614 13 13 10.7614 13 8C13 5.23858 10.7614 3 8 3ZM8 6C6.89543 6 6 6.89543 6 8C6 9.10457 6.89543 10 8 10C9.10457 10 10 9.10457 10 8C10 6.89543 9.10457 6 8 6Z" fill="#D9D9D9"/>
<path d="M1.80853 3.27066C2.08468 2.79236 2.69627 2.62849 3.17456 2.90463L6.40191 4.76794C6.8802 5.04409 7.04408 5.65568 6.76794 6.13397L5.76794 7.86602C5.49179 8.34431 4.8802 8.50819 4.40191 8.23205L1.17456 6.36873C0.696266 6.09259 0.53239 5.481 0.808533 5.00271L1.80853 3.27066Z" fill="#D9D9D9"/>
<path d="M10.5919 8.32101C10.868 7.84272 11.4796 7.67884 11.9579 7.95498L14.8143 9.60414C15.2926 9.88028 15.4565 10.4919 15.1804 10.9702L14.1804 12.7022C13.9042 13.1805 13.2926 13.3444 12.8143 13.0682L9.95792 11.4191C9.47962 11.1429 9.31575 10.5314 9.59189 10.0531L10.5919 8.32101Z" fill="#D9D9D9"/>
</svg>
