<svg width="16" height="16" viewBox="0 0 16 16" fill="none" xmlns="http://www.w3.org/2000/svg">
<mask id="mask0_607_15" style="mask-type:alpha" maskUnits="userSpaceOnUse" x="0" y="0" width="16" height="16">
<rect width="16" height="16" rx="1" fill="#D9D9D9"/>
</mask>
<g mask="url(#mask0_607_15)">
<path d="M5.00293 5.14111C5.00293 4.99951 4.99072 4.89697 4.96631 4.8335C4.94678 4.77002 4.93701 4.71143 4.93701 4.65771C4.93701 4.58447 4.97607 4.52344 5.0542 4.47461C5.13232 4.42578 5.2251 4.40137 5.33252 4.40137C5.58154 4.40137 5.78174 4.46729 5.93311 4.59912C6.08936 4.72607 6.16748 4.88232 6.16748 5.06787V10.627C6.16748 10.9883 6.19678 11.2959 6.25537 11.5498C6.31396 11.8037 6.40186 12.0112 6.51904 12.1724C6.63623 12.3335 6.78027 12.4531 6.95117 12.5312C7.12207 12.6045 7.31738 12.6411 7.53711 12.6411C7.74707 12.6411 7.93994 12.6021 8.11572 12.5239C8.29639 12.4458 8.45264 12.3384 8.58447 12.2017C8.71631 12.0649 8.81885 11.9038 8.89209 11.7183C8.96533 11.5327 9.00195 11.3301 9.00195 11.1104C9.00195 10.7734 8.94336 10.4927 8.82617 10.2681C8.70898 10.0435 8.55518 9.86279 8.36475 9.72607C8.1792 9.58936 7.9668 9.49414 7.72754 9.44043C7.49316 9.38184 7.25879 9.35254 7.02441 9.35254C6.98047 9.35254 6.93652 9.32568 6.89258 9.27197C6.84863 9.21338 6.81201 9.14258 6.78271 9.05957C6.75342 8.97656 6.73145 8.88867 6.7168 8.7959C6.70215 8.69824 6.69971 8.60791 6.70947 8.5249C6.71924 8.44189 6.74121 8.37354 6.77539 8.31982C6.81445 8.26123 6.87305 8.23193 6.95117 8.23193C7.06836 8.23193 7.20996 8.21729 7.37598 8.18799C7.54199 8.15869 7.71533 8.10742 7.896 8.03418C8.07666 7.95605 8.25488 7.85352 8.43066 7.72656C8.60645 7.59961 8.76514 7.43848 8.90674 7.24316C9.04834 7.04297 9.16309 6.80859 9.25098 6.54004C9.33887 6.2666 9.38281 5.94922 9.38281 5.58789C9.38281 5.30469 9.33398 5.02637 9.23633 4.75293C9.14355 4.47461 8.99219 4.22803 8.78223 4.01318C8.57227 3.79346 8.30371 3.61768 7.97656 3.48584C7.64941 3.34912 7.25635 3.28076 6.79736 3.28076C6.19678 3.28076 5.68164 3.37354 5.25195 3.55908C4.82227 3.74463 4.4707 3.99365 4.19727 4.30615C3.92871 4.61865 3.73096 4.98242 3.604 5.39746C3.47705 5.80762 3.41357 6.24219 3.41357 6.70117C3.41357 7.0332 3.44043 7.31396 3.49414 7.54346C3.55273 7.76807 3.61621 7.95361 3.68457 8.1001C3.75293 8.2417 3.81641 8.34668 3.875 8.41504C3.93359 8.4834 3.96777 8.52246 3.97754 8.53223C4.06055 8.50781 4.11914 8.51758 4.15332 8.56152C4.1875 8.60547 4.20459 8.66406 4.20459 8.7373C4.20459 8.80566 4.18018 8.9082 4.13135 9.04492C4.0874 9.18164 4.02637 9.31104 3.94824 9.43311C3.87012 9.55029 3.77979 9.64062 3.67725 9.7041C3.57471 9.7627 3.46973 9.75049 3.3623 9.66748C3.30371 9.61377 3.21338 9.51611 3.09131 9.37451C2.96924 9.23291 2.84717 9.04492 2.7251 8.81055C2.60791 8.57129 2.50293 8.28564 2.41016 7.95361C2.31738 7.6167 2.271 7.22852 2.271 6.78906C2.271 6.08594 2.38086 5.45117 2.60059 4.88477C2.82031 4.31348 3.12793 3.8252 3.52344 3.41992C3.92383 3.01465 4.3999 2.70215 4.95166 2.48242C5.50342 2.2627 6.11377 2.15283 6.78271 2.15283C7.34912 2.15283 7.86182 2.23096 8.3208 2.38721C8.78467 2.53857 9.18018 2.76074 9.50732 3.05371C9.83447 3.34668 10.0859 3.70557 10.2617 4.13037C10.4424 4.55029 10.5327 5.02637 10.5327 5.55859C10.5327 5.96875 10.4839 6.33984 10.3862 6.67188C10.2886 7.00391 10.1519 7.30176 9.97607 7.56543C9.80518 7.8291 9.6001 8.06348 9.36084 8.26855C9.12646 8.46875 8.87256 8.64209 8.59912 8.78857C8.81885 8.85205 9.02393 8.94727 9.21436 9.07422C9.40479 9.19629 9.5708 9.35254 9.7124 9.54297C9.854 9.7334 9.96631 9.95801 10.0493 10.2168C10.1323 10.4707 10.1738 10.7588 10.1738 11.0811C10.1738 11.457 10.1055 11.8037 9.96875 12.1211C9.83691 12.4385 9.65381 12.7119 9.41943 12.9414C9.18506 13.1709 8.90674 13.3491 8.58447 13.4761C8.26709 13.6079 7.92285 13.6738 7.55176 13.6738C7.05859 13.6738 6.64844 13.5981 6.32129 13.4468C5.99414 13.3003 5.73291 13.0928 5.5376 12.8242C5.34229 12.5508 5.20312 12.2261 5.12012 11.8501C5.04199 11.4692 5.00293 11.0469 5.00293 10.583V5.14111Z" fill="#B8B229"/>
<path d="M12.7739 4.18164V3.19287C12.7495 3.05127 12.7593 2.95361 12.8032 2.8999C12.8521 2.84131 12.9521 2.81201 13.1035 2.81201C13.2354 2.81201 13.3525 2.83154 13.4551 2.87061C13.5576 2.90479 13.6089 2.98535 13.6089 3.1123V4.22559L14.4219 3.625C14.4805 3.58105 14.5366 3.54199 14.5903 3.50781C14.644 3.47363 14.6929 3.45654 14.7368 3.45654C14.771 3.45654 14.8101 3.4834 14.854 3.53711C14.9028 3.58594 14.9468 3.64453 14.9858 3.71289C15.0249 3.78125 15.0566 3.84961 15.0811 3.91797C15.1104 3.98633 15.125 4.0376 15.125 4.07178C15.125 4.14014 15.1006 4.18652 15.0518 4.21094L13.9238 5.0166L15.0811 5.85889C15.1299 5.89307 15.1543 5.94922 15.1543 6.02734C15.1543 6.08105 15.1396 6.14209 15.1104 6.21045C15.0859 6.27393 15.0542 6.33252 15.0151 6.38623C14.9761 6.43994 14.9321 6.48633 14.8833 6.52539C14.8345 6.55957 14.7856 6.57666 14.7368 6.57666C14.6978 6.57666 14.6685 6.56689 14.6489 6.54736L13.6089 5.81494V6.81836C13.6089 6.8623 13.5918 6.90381 13.5576 6.94287C13.5234 6.98193 13.4795 7.01367 13.4258 7.03809C13.377 7.0625 13.3208 7.08203 13.2573 7.09668C13.1938 7.11133 13.1328 7.11865 13.0742 7.11865C12.9912 7.11865 12.9204 7.104 12.8618 7.07471C12.8032 7.04541 12.7739 6.99658 12.7739 6.92822V5.85889L11.7632 6.57666C11.729 6.60107 11.7046 6.61328 11.6899 6.61328C11.646 6.61328 11.5996 6.59619 11.5508 6.56201C11.5068 6.52295 11.4629 6.47412 11.4189 6.41553C11.3799 6.35693 11.3481 6.2959 11.3237 6.23242C11.2993 6.16406 11.2871 6.10059 11.2871 6.04199C11.2871 5.9541 11.3164 5.88818 11.375 5.84424L12.5029 5.0166L11.4922 4.29883C11.4434 4.26465 11.4019 4.24023 11.3677 4.22559C11.3384 4.20605 11.3115 4.18896 11.2871 4.17432C11.2676 4.15967 11.2529 4.14502 11.2432 4.13037C11.2334 4.11084 11.2285 4.08643 11.2285 4.05713C11.2285 4.02295 11.2456 3.97412 11.2798 3.91064C11.314 3.84229 11.3555 3.77637 11.4043 3.71289C11.4531 3.64453 11.5068 3.58594 11.5654 3.53711C11.624 3.4834 11.6802 3.45654 11.7339 3.45654C11.7632 3.45654 11.8047 3.47363 11.8584 3.50781L12.7739 4.18164Z" fill="#EEE85F"/>
</g>
</svg>
