<svg width="16" height="16" viewBox="0 0 16 16" fill="none" xmlns="http://www.w3.org/2000/svg">
<path fill-rule="evenodd" clip-rule="evenodd" d="M0 8C0 3.58172 3.58172 0 8 0C12.4183 0 16 3.58172 16 8C16 12.4183 12.4183 16 8 16C3.58172 16 0 12.4183 0 8ZM4.15311 8C4.42842 8.06854 4.72013 8.06608 5.00941 8H12.5C13.3284 8 14 7.32843 14 6.5C14 5.72518 13.4125 5.08757 12.6587 5.0083C12.2642 4.37798 11.4895 3.82855 10.5176 3.56814C10.2777 3.50385 10.0393 3.46082 9.8065 3.43773C9.3776 2.30518 8.28283 1.5 7 1.5C5.61323 1.5 4.44623 2.44094 4.10261 3.71921C3.77303 3.95234 3.47674 4.27234 3.25 4.66506C3.17387 4.79693 3.10875 4.93149 3.05444 5.06728C2.44358 5.25705 2 5.82672 2 6.5C2 7.32843 2.67157 8 3.5 8H4.15311ZM8 9C8.55229 9 9 9.44772 9 10V11H10C10.5523 11 11 11.4477 11 12C11 12.5523 10.5523 13 10 13H9V14C9 14.5523 8.55228 15 8 15C7.44772 15 7 14.5523 7 14V13H6C5.44772 13 5 12.5523 5 12C5 11.4477 5.44772 11 6 11H7V10C7 9.44772 7.44772 9 8 9Z" fill="#FFC530"/>
</svg>
