<svg width="16" height="16" viewBox="0 0 16 16" fill="none" xmlns="http://www.w3.org/2000/svg">
<path fill-rule="evenodd" clip-rule="evenodd" d="M8 14C4.68629 14 2 11.3137 2 8C2 4.68629 4.68629 2 8 2C9.47038 2 10.8172 2.52892 11.8607 3.40687C12.1933 3.23019 12.5579 3.10561 12.9435 3.044C11.6772 1.78093 9.92982 1 8 1C4.13401 1 1 4.13401 1 8C1 11.866 4.13401 15 8 15C9.92982 15 11.6772 14.2191 12.9435 12.956C12.5579 12.8944 12.1933 12.7698 11.8607 12.5931C10.8172 13.4711 9.47038 14 8 14Z" fill="#C5C5C5"/>
<path fill-rule="evenodd" clip-rule="evenodd" d="M6.15311 10.5C6.42842 10.5685 6.72013 10.5661 7.00941 10.5H14.5C15.3284 10.5 16 9.82843 16 9C16 8.22518 15.4125 7.58757 14.6587 7.5083C14.2642 6.87798 13.4895 6.32855 12.5176 6.06814C12.2777 6.00385 12.0393 5.96082 11.8065 5.93772C11.3776 4.80518 10.2828 4 9 4C7.61323 4 6.44623 4.94094 6.10261 6.21921C5.77303 6.45233 5.47674 6.77234 5.25 7.16506C5.17387 7.29693 5.10875 7.43149 5.05444 7.56728C4.44358 7.75705 4 8.32672 4 9C4 9.82843 4.67157 10.5 5.5 10.5H6.15311ZM9.5 5C9.77614 5 10 5.22386 10 5.5V7H11.5C11.7761 7 12 7.22386 12 7.5C12 7.77614 11.7761 8 11.5 8H10V9.5C10 9.77614 9.77614 10 9.5 10C9.22386 10 9 9.77614 9 9.5V8H7.5C7.22386 8 7 7.77614 7 7.5C7 7.22386 7.22386 7 7.5 7H9V5.5C9 5.22386 9.22386 5 9.5 5Z" fill="#5BBD42"/>
</svg>
