<svg width="16" height="16" viewBox="0 0 16 16" fill="none" xmlns="http://www.w3.org/2000/svg">
<path fill-rule="evenodd" clip-rule="evenodd" d="M8 14C4.68629 14 2 11.3137 2 8C2 4.68629 4.68629 2 8 2C9.47038 2 10.8172 2.52892 11.8607 3.40687C12.1933 3.23019 12.5579 3.10561 12.9435 3.044C11.6772 1.78093 9.92982 1 8 1C4.13401 1 1 4.13401 1 8C1 11.866 4.13401 15 8 15C9.92982 15 11.6772 14.2191 12.9435 12.956C12.5579 12.8944 12.1933 12.7698 11.8607 12.5931C10.8172 13.4711 9.47038 14 8 14Z" fill="#C5C5C5"/>
<path fill-rule="evenodd" clip-rule="evenodd" d="M4 6.5C4 5.94772 4.44772 5.5 5 5.5H15C15.5523 5.5 16 5.94772 16 6.5V9.5C16 10.0523 15.5523 10.5 15 10.5H5C4.44772 10.5 4 10.0523 4 9.5V6.5ZM5 8C5 7.17157 5.67157 6.5 6.5 6.5C7.32843 6.5 8 7.17157 8 8C8 8.82843 7.32843 9.5 6.5 9.5C5.67157 9.5 5 8.82843 5 8ZM10.5 6.5C9.67157 6.5 9 7.17157 9 8C9 8.82843 9.67157 9.5 10.5 9.5C11.3284 9.5 12 8.82843 12 8C12 7.17157 11.3284 6.5 10.5 6.5Z" fill="#DF3449"/>
</svg>
