<svg width="16" height="16" viewBox="0 0 16 16" fill="none" xmlns="http://www.w3.org/2000/svg">
<path fill-rule="evenodd" clip-rule="evenodd" d="M0 8C0 3.58172 3.58172 0 8 0C12.4183 0 16 3.58172 16 8C16 12.4183 12.4183 16 8 16C3.58172 16 0 12.4183 0 8ZM12.5 9C12.7761 9 13 9.22386 13 9.5V12.5C13 12.7761 12.7761 13 12.5 13H3.5C3.22386 13 3 12.7761 3 12.5L3 9.5C3 9.22386 3.22386 9 3.5 9H12.5ZM13 4.5C13 4.22386 12.7761 4 12.5 4L3.5 4C3.22386 4 3 4.22386 3 4.5L3 7.5C3 7.77614 3.22386 8 3.5 8H12.5C12.7761 8 13 7.77614 13 7.5V4.5Z" fill="#FFC530"/>
<rect x="6" y="5" width="2" height="2" rx="1" transform="rotate(90 6 5)" fill="#FFC530"/>
<rect x="9" y="5" width="2" height="2" rx="1" transform="rotate(90 9 5)" fill="#FFC530"/>
<rect x="9" y="10" width="2" height="2" rx="1" transform="rotate(90 9 10)" fill="#FFC530"/>
<rect x="6" y="10" width="2" height="2" rx="1" transform="rotate(90 6 10)" fill="#FFC530"/>
</svg>
