<svg width="16" height="16" viewBox="0 0 16 16" fill="none" xmlns="http://www.w3.org/2000/svg">
<circle cx="7" cy="7" r="3" fill="#0092DA"/>
<circle cx="11" cy="9" r="2" fill="#0092DA"/>
<ellipse cx="10" cy="8" rx="3" ry="2" transform="rotate(15 10 8)" fill="#0092DA"/>
<ellipse cx="4.98205" cy="8.16506" rx="2" ry="2.5" transform="rotate(30 4.98205 8.16506)" fill="#0092DA"/>
<rect x="2" y="8" width="12" height="3" rx="1.5" fill="#0092DA"/>
<path d="M6.26334 13.5972L9 15.1773L8.73666 15.6334L6 14.0534L6.26334 13.5972Z" fill="#0092DA"/>
<path d="M6.26334 15.6334L9 14.0533L8.73666 13.5972L6 15.1772L6.26334 15.6334Z" fill="#0092DA"/>
<path d="M7.68333 13L7.68333 16L7.15666 16L7.15666 14.58L7.15666 13L7.68333 13Z" fill="#0092DA"/>
<path d="M3.26334 11.5972L6 13.1773L5.73666 13.6334L3 12.0534L3.26334 11.5972Z" fill="#0092DA"/>
<path d="M3.26334 13.6334L6 12.0534L5.73666 11.5973L3 13.1773L3.26334 13.6334Z" fill="#0092DA"/>
<path d="M4.68332 11L4.68332 14.16L4.15665 14.16L4.15665 12.58L4.15665 11L4.68332 11Z" fill="#0092DA"/>
<path d="M10.2678 12.6073L13.0506 14.214L12.7829 14.6778L10 13.0711L10.2678 12.6073Z" fill="#0092DA"/>
<path d="M10.2678 14.6778L13.0506 13.0711L12.7829 12.6073L10 14.214L10.2678 14.6778Z" fill="#0092DA"/>
<path d="M11.7117 12L11.7117 15.2134L11.1762 15.2134L11.1762 13.6067L11.1762 12L11.7117 12Z" fill="#0092DA"/>
</svg>
