<svg width="16" height="16" viewBox="0 0 16 16" fill="none" xmlns="http://www.w3.org/2000/svg">
<path d="M4 11C3.44772 11 3 11.4477 3 12V12C3 12.5523 3.44772 13 4 13L9 13C9.55228 13 10 12.5523 10 12V12C10 11.4477 9.55228 11 9 11L4 11Z" fill="#0092DA"/>
<path d="M7 3C6.44772 3 6 3.44772 6 4V4C6 4.55228 6.44772 5 7 5L9 5C9.55228 5 10 4.55228 10 4V4C10 3.44772 9.55228 3 9 3L7 3Z" fill="#0092DA"/>
<rect width="2" height="7" rx="1" transform="matrix(-1 0 0 1 5 6)" fill="#0092DA"/>
<rect x="0.75" y="0.75" width="4.5" height="4.5" transform="matrix(4.37114e-08 1 1 -4.37114e-08 1 1)" stroke="#0092DA" stroke-width="1.5"/>
<rect x="0.75" y="0.75" width="4.5" height="4.5" rx="2.25" transform="matrix(4.37114e-08 1 1 -4.37114e-08 9 9)" stroke="#0092DA" stroke-width="1.5"/>
<rect x="0.75" y="0.75" width="4.5" height="4.5" rx="2.25" transform="matrix(4.37114e-08 1 1 -4.37114e-08 9 1)" stroke="#0092DA" stroke-width="1.5"/>
</svg>
