<svg width="16" height="16" viewBox="0 0 16 16" fill="none" xmlns="http://www.w3.org/2000/svg">
<path fill-rule="evenodd" clip-rule="evenodd" d="M1.15303 2.14249C1.07033 0.984758 1.98726 0 3.14795 0H12.852C14.0127 0 14.9297 0.98476 14.847 2.14249L14.0952 12.6676C14.0376 13.4742 13.4999 14.1667 12.7327 14.4224L8.63245 15.7892C8.22191 15.926 7.77807 15.926 7.36754 15.7892L3.26728 14.4224C2.50012 14.1667 1.96243 13.4742 1.90482 12.6676L1.15303 2.14249ZM5 3C5 2.44772 5.44772 2 6 2C6.55228 2 7 2.44772 7 3V4H9V3C9 2.44772 9.44771 2 10 2C10.5523 2 11 2.44772 11 3V4H12C12.5523 4 13 4.44772 13 5C13 5.55229 12.5523 6 12 6H11V8H12C12.5523 8 13 8.44772 13 9C13 9.55229 12.5523 10 12 10H11V11C11 11.5523 10.5523 12 10 12C9.44771 12 9 11.5523 9 11V10H7V11C7 11.5523 6.55228 12 6 12C5.44772 12 5 11.5523 5 11V10H4C3.44772 10 3 9.55228 3 9C3 8.44771 3.44772 8 4 8H5V6H4C3.44772 6 3 5.55228 3 5C3 4.44771 3.44772 4 4 4H5V3ZM7 8L9 8V6L7 6V8Z" fill="#389CB1"/>
</svg>
