<svg width="16" height="16" viewBox="0 0 16 16" fill="none" xmlns="http://www.w3.org/2000/svg">
<rect x="0.5" y="0.5" width="15" height="15" rx="0.5" stroke="#389CB1" stroke-linecap="square" stroke-dasharray="3 3"/>
<path fill-rule="evenodd" clip-rule="evenodd" d="M3.00519 4.1425C2.92249 2.98476 3.83942 2 5.0001 2H10.9782C12.1389 2 13.0558 2.98476 12.9731 4.14249L12.4875 10.9416C12.4299 11.7482 11.8922 12.4407 11.125 12.6965L8.62162 13.5309C8.21109 13.6678 7.76724 13.6678 7.35671 13.5309L4.8533 12.6965C4.08613 12.4407 3.54845 11.7482 3.49084 10.9416L3.00519 4.1425ZM5.78759 4.20159C5.78759 3.79629 6.11615 3.46773 6.52145 3.46773C6.92675 3.46773 7.25531 3.79629 7.25531 4.20159V4.93543L8.72303 4.93543V4.20159C8.72303 3.79629 9.05159 3.46773 9.45689 3.46773C9.86219 3.46773 10.1908 3.79629 10.1908 4.20159V4.93543H10.9246C11.3299 4.93543 11.6585 5.26399 11.6585 5.66929C11.6585 6.07459 11.3299 6.40315 10.9246 6.40315H10.1908V7.87087H10.9246C11.3299 7.87087 11.6585 8.19943 11.6585 8.60473C11.6585 9.01003 11.3299 9.33859 10.9246 9.33859H10.1908V10.0725C10.1908 10.4778 9.86219 10.8063 9.45689 10.8063C9.05159 10.8063 8.72303 10.4778 8.72303 10.0725V9.33859H7.25531V10.0725C7.25531 10.4778 6.92675 10.8063 6.52145 10.8063C6.11615 10.8063 5.78759 10.4778 5.78759 10.0725V9.33859H5.05373C4.64843 9.33859 4.31987 9.01003 4.31987 8.60473C4.31987 8.19943 4.64843 7.87087 5.05373 7.87087H5.78759V6.40315H5.05373C4.64843 6.40315 4.31987 6.07459 4.31987 5.66929C4.31987 5.26399 4.64843 4.93543 5.05373 4.93543H5.78759V4.20159ZM7.25531 7.87087L8.72303 7.87087V6.40315L7.25531 6.40315V7.87087Z" fill="#389CB1"/>
</svg>
