<svg width="16" height="16" viewBox="0 0 16 16" fill="none" xmlns="http://www.w3.org/2000/svg">
<mask id="mask0_223_94" style="mask-type:alpha" maskUnits="userSpaceOnUse" x="0" y="0" width="16" height="16">
<rect width="16" height="16" rx="1" fill="#D9D9D9"/>
</mask>
<g mask="url(#mask0_223_94)">
<path d="M15.5 6.5C15.7761 6.5 16 6.72386 16 7L16 9C16 9.27614 15.7761 9.5 15.5 9.5L12.5 9.5C12.2239 9.5 12 9.27614 12 9L12 7C12 6.72386 12.2239 6.5 12.5 6.5L15.5 6.5Z" fill="#91DA8B"/>
<rect x="16" y="11" width="3" height="5" rx="0.5" transform="rotate(90 16 11)" fill="#91DA8B"/>
<rect x="16" y="2" width="3" height="4" rx="0.5" transform="rotate(90 16 2)" fill="#91DA8B"/>
<path d="M4.5 6.5C4.77614 6.5 5 6.72386 5 7L5 9C5 9.27614 4.77614 9.5 4.5 9.5L0.5 9.5C0.223858 9.5 -9.43826e-08 9.27614 -8.49944e-08 9L-1.69989e-08 7C-7.61066e-09 6.72386 0.223858 6.5 0.5 6.5L4.5 6.5Z" fill="#91DA8B"/>
<rect x="5" y="11" width="3" height="5" rx="0.5" transform="rotate(90 5 11)" fill="#91DA8B"/>
<rect x="5" y="2" width="3" height="5" rx="0.5" transform="rotate(90 5 2)" fill="#91DA8B"/>
<path d="M6.42016 12.71C6.42016 12.71 6.35016 12.69 6.21016 12.65C6.09016 12.61 5.96016 12.5 5.82016 12.32C5.70016 12.14 5.64016 11.83 5.64016 11.39C5.64016 10.87 5.72016 10.52 5.88016 10.34C6.06016 10.16 6.20016 10.06 6.30016 10.04C6.34016 10 6.52016 9.84 6.84016 9.56C7.16016 9.3 7.36016 8.86 7.44016 8.24C7.18016 8.18 6.94016 8.1 6.72016 8C6.52016 7.88 6.34016 7.75 6.18016 7.61C5.90016 7.33 5.73016 6.98 5.67016 6.56C5.63016 6.14 5.61016 5.74 5.61016 5.36C5.63016 4.92 5.68016 4.49 5.76016 4.07C5.84016 3.63 6.08016 3.27 6.48016 2.99C6.90016 2.69 7.59016 2.54 8.55016 2.54C9.63016 2.54 10.3902 2.76 10.8302 3.2C11.1102 3.48 11.2702 3.83 11.3102 4.25C11.3702 4.65 11.4002 5.05 11.4002 5.45C11.4002 5.65 11.3902 5.85 11.3702 6.05C11.3702 6.23 11.3502 6.41 11.3102 6.59C11.2102 7.73 10.9202 8.76 10.4402 9.68C9.98016 10.6 9.40016 11.33 8.70016 11.87C8.00016 12.43 7.24016 12.71 6.42016 12.71Z" fill="#91DA8B"/>
</g>
</svg>
