<svg width="16" height="16" viewBox="0 0 16 16" fill="none" xmlns="http://www.w3.org/2000/svg">
<mask id="path-1-inside-1_1379_468" fill="white">
<path d="M3 11L3 5L4 5L4 11L3 11Z"/>
</mask>
<path d="M3 11L3 5L4 5L4 11L3 11Z" fill="#DDE05F"/>
<path d="M3 11L2 11L2 12L3 12L3 11ZM3 5L3 4L2 4L2 5L3 5ZM4 5L5 5L5 4L4 4L4 5ZM4 11L4 12L5 12L5 11L4 11ZM4 11L4 5L2 5L2 11L4 11ZM3 6L4 6L4 4L3 4L3 6ZM3 5L3 11L5 11L5 5L3 5ZM4 10L3 10L3 12L4 12L4 10Z" fill="#75DF6C" mask="url(#path-1-inside-1_1379_468)"/>
<path d="M4 10.5L5.1754 10.5C5.44224 10.5 5.70053 10.3943 5.88147 10.1981C7.37183 8.5827 7.37293 7.52316 5.88424 5.82179C5.70214 5.61368 5.43545 5.5 5.15891 5.5L4 5.5" stroke="#75DF6C"/>
<rect x="12.687" y="8.69503" width="3.5" height="0.5" rx="0.25" transform="rotate(-165 12.687 8.69503)" fill="#DDE05F" stroke="#75DF6C" stroke-width="0.5"/>
<rect x="12.75" y="5.75" width="3.5" height="0.5" rx="0.25" transform="rotate(-180 12.75 5.75)" fill="#DDE05F" stroke="#75DF6C" stroke-width="0.5"/>
<rect x="12.75" y="10.75" width="3.5" height="0.5" rx="0.25" transform="rotate(-180 12.75 10.75)" fill="#DDE05F" stroke="#75DF6C" stroke-width="0.5"/>
<rect x="12.25" y="10.75" width="2.5" height="0.5" rx="0.25" transform="rotate(-90 12.25 10.75)" fill="#DDE05F" stroke="#75DF6C" stroke-width="0.5"/>
<rect x="9.25" y="7.75" width="2.5" height="0.5" rx="0.25" transform="rotate(-90 9.25 7.75)" fill="#DDE05F" stroke="#75DF6C" stroke-width="0.5"/>
<path d="M2 0.5L14 0.5C14.8284 0.5 15.5 1.17157 15.5 2V2.5V14C15.5 14.8284 14.8284 15.5 14 15.5H2C1.17157 15.5 0.5 14.8284 0.5 14L0.5 2C0.5 1.17157 1.17157 0.5 2 0.5Z" stroke="#75DF6C"/>
</svg>
