<svg width="16" height="16" viewBox="0 0 16 16" fill="none" xmlns="http://www.w3.org/2000/svg">
<path fill-rule="evenodd" clip-rule="evenodd" d="M1 0C0.447715 0 0 0.447715 0 1V15C0 15.5523 0.447715 16 1 16H15C15.5523 16 16 15.5523 16 15V1C16 0.447715 15.5523 0 15 0H1ZM4.454 3.937L2.419 3.926C1.94967 3.926 1.66367 4.025 1.561 4.223C1.50233 4.333 1.46567 4.42833 1.451 4.509C1.44367 4.58967 1.44 4.718 1.44 4.894V11.01C1.44 11.3253 1.484 11.56 1.572 11.714C1.682 11.8973 1.96067 11.989 2.408 11.989H4.421C5.543 11.989 6.49633 11.5893 7.281 10.79C8.073 9.99067 8.469 9.03367 8.469 7.919C8.469 6.797 8.06567 5.85467 7.259 5.092C6.45233 4.322 5.51733 3.937 4.454 3.937ZM5.884 9.459C5.45867 9.84767 4.982 10.042 4.454 10.042H3.387V5.884H4.443C5.00033 5.884 5.48433 6.08567 5.895 6.489C6.313 6.885 6.522 7.38 6.522 7.974C6.522 8.568 6.30933 9.063 5.884 9.459ZM8.56894 10.24C8.56894 10.4233 8.66428 10.6323 8.85495 10.867L8.95395 10.988C9.10795 11.208 9.37928 11.4353 9.76795 11.67C9.95861 11.7947 10.2079 11.901 10.5159 11.989C10.8239 12.0697 11.1503 12.11 11.4949 12.11C12.1696 12.11 12.8039 11.9157 13.3979 11.527C13.7059 11.329 13.9553 11.0503 14.1459 10.691C14.3366 10.3243 14.4319 9.90267 14.4319 9.426C14.4319 8.94933 14.3366 8.54967 14.1459 8.227C13.9626 7.897 13.7316 7.666 13.4529 7.534C13.1743 7.402 12.8699 7.292 12.5399 7.204C12.2099 7.10867 11.9056 7.039 11.6269 6.995C11.3483 6.951 11.1136 6.86667 10.9229 6.742C10.7396 6.61733 10.6479 6.456 10.6479 6.258C10.6479 6.05267 10.7249 5.895 10.8789 5.785C11.0403 5.66767 11.2383 5.609 11.4729 5.609C11.7149 5.609 11.9129 5.65667 12.0669 5.752C12.1183 5.78867 12.1733 5.83633 12.2319 5.895C12.2979 5.95367 12.3419 5.99033 12.3639 6.005C12.5913 6.15167 12.7819 6.225 12.9359 6.225C13.1999 6.225 13.4566 6.04167 13.7059 5.675C13.8819 5.41833 13.9699 5.21667 13.9699 5.07C13.9699 4.92333 13.8563 4.74367 13.6289 4.531L13.3539 4.322C13.2146 4.20467 12.9616 4.091 12.5949 3.981C12.2356 3.86367 11.8359 3.805 11.3959 3.805C10.5673 3.805 9.91095 4.047 9.42695 4.531C8.95028 5.00767 8.71195 5.56867 8.71195 6.214C8.71195 6.68333 8.80361 7.08667 8.98695 7.424C9.17761 7.754 9.41228 7.996 9.69095 8.15C9.96961 8.304 10.2703 8.43967 10.5929 8.557C10.9156 8.667 11.2163 8.74767 11.4949 8.799C11.7736 8.85033 12.0046 8.93467 12.1879 9.052C12.3786 9.162 12.4739 9.30133 12.4739 9.47C12.4739 10.0273 12.1329 10.306 11.4509 10.306C11.2896 10.306 11.1136 10.251 10.9229 10.141C10.7323 10.0237 10.5856 9.90267 10.4829 9.778C10.1163 9.41133 9.83028 9.228 9.62495 9.228C9.41961 9.228 9.22528 9.316 9.04195 9.492C8.72661 9.8 8.56894 10.0493 8.56894 10.24Z" fill="#77A570"/>
</svg>
