<svg width="16" height="16" viewBox="0 0 16 16" fill="none" xmlns="http://www.w3.org/2000/svg">
<path fill-rule="evenodd" clip-rule="evenodd" d="M3.29669 2.81544C4.3335 4.44502 4.99999 6.66685 5 8C4.99999 6 6.00001 2.00002 8.00001 1C10 2.00002 11 6.00002 11 8C11 6.72328 11.815 4.63151 12.9248 3.02543C14.2062 4.29409 15 6.05434 15 8C15 11.5265 12.3923 14.4439 9 14.9291V13.7324C9.5978 13.3866 10 12.7403 10 12C10 10.8954 9.10457 10 8 10C6.89543 10 6 10.8954 6 12C6 12.7403 6.4022 13.3866 7 13.7324V14.9291C3.60771 14.4439 1 11.5265 1 8C1 5.94457 1.8859 4.09605 3.29669 2.81544Z" fill="#FFBE5B"/>
</svg>
