<svg width="16" height="16" viewBox="0 0 16 16" fill="none" xmlns="http://www.w3.org/2000/svg">
<path fill-rule="evenodd" clip-rule="evenodd" d="M6.5928 5.27527C7.52091 5.17645 8.341 5.17119 9.2805 5.25861C10.1454 6.85811 11.1793 8.20136 13 10H13C9.11826 9.36622 6.92806 9.38294 3.00003 10H3C4.68522 8.21482 5.68627 6.87439 6.5928 5.27527ZM5.20991 10.2157C4.21479 11.7295 3.25222 12.9071 2 14H4H7V12C7 11.4477 7.44772 11 8 11C8.55229 11 9 11.4477 9 12V14H12H14C12.1534 12.6747 11.0737 11.4761 10.2584 10.1739C8.52145 10.0242 7.01602 10.0324 5.20991 10.2157ZM10.9932 4.99243C8.69419 4.71636 7.37068 4.65332 5.05601 5L5 5C6.5366 3.17237 7.17978 2.07231 8 0C8.8052 2.15228 9.43698 3.26034 10.9932 4.99243Z" fill="#91DA8B"/>
</svg>
