<svg width="17" height="16" viewBox="0 0 17 16" fill="none" xmlns="http://www.w3.org/2000/svg">
<path fill-rule="evenodd" clip-rule="evenodd" d="M9.02214 12.1918C11.7679 10.6065 13.2103 7.96427 12.2438 6.29025C11.2773 4.61623 8.26793 4.54429 5.52214 6.12957C2.77634 7.71486 1.33394 10.357 2.30044 12.0311C3.26694 13.7051 6.27634 13.777 9.02214 12.1918ZM7.55044 7C7.55044 6.44772 7.10272 6 6.55044 6C5.99815 6 5.55044 6.44772 5.55044 7C5.55044 7.55228 5.99815 8 6.55044 8C7.10272 8 7.55044 7.55228 7.55044 7ZM9.55044 8C10.1027 8 10.5504 8.44772 10.5504 9C10.5504 9.55228 10.1027 10 9.55044 10C8.99815 10 8.55044 9.55228 8.55044 9C8.55044 8.44772 8.99815 8 9.55044 8ZM3.3611 12.4937C3.83939 12.7698 4.33905 12.7998 4.47712 12.5606C4.6152 12.3215 4.33939 11.9038 3.8611 11.6276C3.38281 11.3515 2.88315 11.3215 2.74507 11.5606C2.607 11.7998 2.88281 12.2175 3.3611 12.4937Z" fill="#D9D9D9"/>
<ellipse cx="8.55384" cy="3.99411" rx="2.59128" ry="1.5" transform="rotate(-60 8.55384 3.99411)" fill="#D9D9D9"/>
<ellipse cx="12.8914" cy="6.341" rx="2.73743" ry="1.98744" transform="rotate(-30 12.8914 6.341)" fill="#D9D9D9"/>
</svg>
