<svg width="16" height="16" viewBox="0 0 16 16" fill="none" xmlns="http://www.w3.org/2000/svg">
<path fill-rule="evenodd" clip-rule="evenodd" d="M1 4C0.447715 4 0 4.44772 0 5L0 15C0 15.5523 0.447715 16 1 16L15 16C15.5523 16 16 15.5523 16 15L16 5C16 4.44772 15.5523 4 15 4L1 4ZM2 5C1.44772 5 1 5.44772 1 6L1 14C1 14.5523 1.44772 15 2 15L14 15C14.5523 15 15 14.5523 15 14L15 6C15 5.44772 14.5523 5 14 5L2 5Z" fill="#CF5BC4"/>
<path fill-rule="evenodd" clip-rule="evenodd" d="M15 0C15.5523 0 16 0.447716 16 1V2C16 2.55229 15.5523 3 15 3L1 3C0.447715 3 0 2.55229 0 2L0 1C0 0.447715 0.447715 0 1 0L15 0ZM14 0.5C14.5523 0.5 15 0.947715 15 1.5C15 2.05228 14.5523 2.5 14 2.5C13.4477 2.5 13 2.05228 13 1.5C13 0.947715 13.4477 0.5 14 0.5ZM12 1.5C12 0.947715 11.5523 0.5 11 0.5C10.4477 0.5 10 0.947715 10 1.5C10 2.05228 10.4477 2.5 11 2.5C11.5523 2.5 12 2.05228 12 1.5Z" fill="#CF5BC4"/>
<path d="M9.11455 6.687C9.48914 5.97332 10.5109 5.97332 10.8854 6.687L13.5613 11.7853C13.9108 12.4511 13.4279 13.25 12.6759 13.25H7.32411C6.5721 13.25 6.08917 12.4511 6.43866 11.7853L9.11455 6.687Z" fill="#CF5BC4"/>
<path d="M5.18911 8.1236C5.58825 7.57054 6.41175 7.57054 6.81088 8.12359L9.1861 11.4148C9.6634 12.0762 9.19083 13 8.37522 13H3.62478C2.80917 13 2.3366 12.0762 2.8139 11.4148L5.18911 8.1236Z" fill="#CF5BC4"/>
</svg>
