<svg width="16" height="16" viewBox="0 0 16 16" fill="none" xmlns="http://www.w3.org/2000/svg">
<path d="M12 14.5H4C3.17157 14.5 2.5 13.8284 2.5 13L2.5 3C2.5 2.17157 3.17157 1.5 4 1.5L10.4551 1.5C10.893 1.5 11.309 1.69134 11.594 2.02381L12.4954 3.0754L13.1389 3.82616C13.3719 4.09803 13.5 4.44428 13.5 4.80235V13C13.5 13.8284 12.8284 14.5 12 14.5Z" stroke="#B5B5B5"/>
<path fill-rule="evenodd" clip-rule="evenodd" d="M5 3C4.44772 3 4 3.44772 4 4V12C4 12.5523 4.44772 13 5 13H11C11.5523 13 12 12.5523 12 12V5.85078C12 5.62371 11.9227 5.4034 11.7809 5.22609L10.3002 3.3753C10.1105 3.13809 9.82316 3 9.51938 3H5ZM5.5 6C5.22386 6 5 6.22386 5 6.5C5 6.77614 5.22386 7 5.5 7H10.5C10.7761 7 11 6.77614 11 6.5C11 6.22386 10.7761 6 10.5 6H5.5ZM5 8.5C5 8.22386 5.22386 8 5.5 8H10.5C10.7761 8 11 8.22386 11 8.5C11 8.77614 10.7761 9 10.5 9H5.5C5.22386 9 5 8.77614 5 8.5ZM5.5 10C5.22386 10 5 10.2239 5 10.5C5 10.7761 5.22386 11 5.5 11H10.5C10.7761 11 11 10.7761 11 10.5C11 10.2239 10.7761 10 10.5 10H5.5Z" fill="#BEBEBE"/>
</svg>
