<svg width="16" height="16" viewBox="0 0 16 16" fill="none" xmlns="http://www.w3.org/2000/svg">
<mask id="path-1-outside-1_135_1023" maskUnits="userSpaceOnUse" x="-6.11959e-07" y="0.999999" width="16" height="15" fill="black">
<rect fill="white" x="-6.11959e-07" y="0.999999" width="16" height="15"/>
<path fill-rule="evenodd" clip-rule="evenodd" d="M11 2C10.4477 2 10 2.44772 10 3L10 4L2 4C1.44772 4 1 4.44771 1 5L0.999999 14C0.999999 14.5523 1.44772 15 2 15L14 15C14.5523 15 15 14.5523 15 14L15 5L15 3C15 2.44772 14.5523 2 14 2L11 2Z"/>
</mask>
<path d="M10 3L11 3L10 3ZM11 2L11 3L11 2ZM10 4L10 5L11 5L11 4L10 4ZM2 4L2 5L2 4ZM1 5L-1.31134e-07 5L1 5ZM0.999999 14L2 14L0.999999 14ZM14 2L14 1L14 2ZM11 3L11 3L11 1C9.89543 1 9 1.89543 9 3L11 3ZM11 4L11 3L9 3L9 4L11 4ZM2 5L10 5L10 3L2 3L2 5ZM2 5L2 5L2 3C0.895431 3 -8.28519e-08 3.89543 -1.31134e-07 5L2 5ZM2 14L2 5L-1.31134e-07 5L-5.24537e-07 14L2 14ZM2 14L2 14L-5.24537e-07 14C-5.72819e-07 15.1046 0.895432 16 2 16L2 14ZM14 14L2 14L2 16L14 16L14 14ZM14 14L14 14L14 16C15.1046 16 16 15.1046 16 14L14 14ZM14 5L14 14L16 14L16 5L14 5ZM14 3L14 5L16 5L16 3L14 3ZM14 3L14 3L16 3C16 1.89543 15.1046 1 14 1L14 3ZM11 3L14 3L14 1L11 1L11 3Z" fill="#75DF6C" mask="url(#path-1-outside-1_135_1023)"/>
<rect x="10" y="6" width="2" height="4" rx="0.5" fill="#75DF6C"/>
<rect x="7" y="6" width="2" height="4" rx="0.5" fill="#75DF6C"/>
<path fill-rule="evenodd" clip-rule="evenodd" d="M3 9.5C3 9.22386 3.22386 9 3.5 9L12.5 9C12.7761 9 13 9.22386 13 9.5L13 12.5C13 12.7761 12.7761 13 12.5 13L3.5 13C3.22386 13 3 12.7761 3 12.5L3 9.5ZM4 10.5C4 10.2239 4.22386 10 4.5 10L5.5 10C5.77614 10 6 10.2239 6 10.5L6 11.5C6 11.7761 5.77614 12 5.5 12L4.5 12C4.22386 12 4 11.7761 4 11.5L4 10.5ZM7.5 10C7.22386 10 7 10.2239 7 10.5L7 11.5C7 11.7761 7.22386 12 7.5 12L8.5 12C8.77614 12 9 11.7761 9 11.5L9 10.5C9 10.2239 8.77614 10 8.5 10L7.5 10Z" fill="#75DF6C"/>
</svg>
