<svg width="16" height="15" viewBox="0 0 16 15" fill="none" xmlns="http://www.w3.org/2000/svg">
<mask id="path-1-outside-1_227_564" maskUnits="userSpaceOnUse" x="-6.11959e-07" y="-6.55671e-07" width="16" height="15" fill="black">
<rect fill="white" x="-6.11959e-07" y="-6.55671e-07" width="16" height="15"/>
<path fill-rule="evenodd" clip-rule="evenodd" d="M11 1C10.4477 1 10 1.44772 10 2L10 3L2 3C1.44772 3 1 3.44771 1 4L0.999999 13C0.999999 13.5523 1.44772 14 2 14L14 14C14.5523 14 15 13.5523 15 13L15 4L15 2C15 1.44772 14.5523 1 14 1L11 1Z"/>
</mask>
<path d="M10 2L11 2L10 2ZM10 3L10 4L11 4L11 3L10 3ZM2 3L2 4L2 3ZM11 2L11 2L11 -1.74846e-07C9.89543 -2.23128e-07 9 0.895431 9 2L11 2ZM11 3L11 2L9 2L9 3L11 3ZM2 4L10 4L10 2L2 2L2 4ZM2 4L2 4L2 2C0.895431 2 -8.28519e-08 2.89543 -1.31134e-07 4L2 4ZM2 13L2 4L-1.31134e-07 4L-5.24537e-07 13L2 13ZM2 13L2 13L-5.24537e-07 13C-5.72819e-07 14.1046 0.895432 15 2 15L2 13ZM14 13L2 13L2 15L14 15L14 13ZM14 13L14 13L14 15C15.1046 15 16 14.1046 16 13L14 13ZM14 4L14 13L16 13L16 4L14 4ZM14 2L14 4L16 4L16 2L14 2ZM14 2L14 2L16 2C16 0.89543 15.1046 4.57079e-09 14 -4.37114e-08L14 2ZM11 2L14 2L14 -4.37114e-08L11 -1.74846e-07L11 2Z" fill="#74BCE0" mask="url(#path-1-outside-1_227_564)"/>
<path d="M9.44457 6.70402L9.06313 5.35078L5.39997 7.49038L5.77816 8.83507L9.44457 6.70402Z" fill="#74BCE0"/>
<path d="M5.43749 9.53125L5.78124 8.15625L9.90624 10.5625L9.56249 11.9375L5.43749 9.53125Z" fill="#74BCE0"/>
<rect x="-0.5" y="0.5" width="3.125" height="3.125" rx="1.5625" transform="matrix(-1 0 0 1 12 3.6875)" stroke="#74BCE0"/>
<rect x="-0.5" y="0.5" width="3.125" height="3.125" rx="1.5625" transform="matrix(-1 0 0 1 12 9.1875)" stroke="#74BCE0"/>
<rect x="-0.5" y="0.5" width="3.125" height="3.125" rx="1.5625" transform="matrix(-1 0 0 1 5.125 6.4375)" stroke="#74BCE0"/>
</svg>
