<svg width="16" height="16" viewBox="0 0 16 16" fill="none" xmlns="http://www.w3.org/2000/svg">
<g clip-path="url(#clip0_1335_12)">
<mask id="path-1-inside-1_1335_12" fill="white">
<path fill-rule="evenodd" clip-rule="evenodd" d="M4.2 1C4.56931 1 4.90856 1.20355 5.08235 1.52941L5.86667 3H15C15.5523 3 16 3.44772 16 4V14C16 14.5523 15.5523 15 15 15H1C0.447715 15 0 14.5523 0 14V6V4V2C0 1.44772 0.447714 1 0.999999 1H4.2Z"/>
</mask>
<path d="M5.08235 1.52941L4.2 2V2L5.08235 1.52941ZM5.86667 3L4.98431 3.47059L5.26667 4H5.86667V3ZM5.96471 1.05882C5.61712 0.407096 4.93862 0 4.2 0V2V2L5.96471 1.05882ZM6.74902 2.52941L5.96471 1.05882L4.2 2L4.98431 3.47059L6.74902 2.52941ZM15 2H5.86667V4H15V2ZM17 4C17 2.89543 16.1046 2 15 2V4V4H17ZM17 14V4H15V14H17ZM15 16C16.1046 16 17 15.1046 17 14H15V16ZM1 16H15V14H1V16ZM-1 14C-1 15.1046 -0.104569 16 1 16V14H-1ZM-1 6V14H1V6H-1ZM-1 4V6H1V4H-1ZM-1 2V4H1V2H-1ZM0.999999 0C-0.104572 0 -1 0.895432 -1 2H1H0.999999V0ZM4.2 0H0.999999V2H4.2V0Z" fill="#B5B5B5" mask="url(#path-1-inside-1_1335_12)"/>
<path d="M11 10C11.5523 10 12 10.4477 12 11C12 11.5523 11.5523 12 11 12C10.4477 12 10 11.5523 10 11C10 10.4477 10.4477 10 11 10Z" fill="#B5B5B5"/>
<path d="M8 10C8.55228 10 9 10.4477 9 11C9 11.5523 8.55228 12 8 12C7.44772 12 7 11.5523 7 11C7 10.4477 7.44772 10 8 10Z" fill="#B5B5B5"/>
<path d="M6.46667 8.6C6.73333 8.8 6.73333 9.2 6.46667 9.4L3.8 11.4C3.47038 11.6472 3 11.412 3 11L3 7C3 6.58798 3.47038 6.35279 3.8 6.6L6.46667 8.6Z" fill="#B5B5B5"/>
</g>
<defs>
<clipPath id="clip0_1335_12">
<rect width="16" height="16" fill="white"/>
</clipPath>
</defs>
</svg>
