<svg width="16" height="16" viewBox="0 0 16 16" fill="none" xmlns="http://www.w3.org/2000/svg">
<g clip-path="url(#clip0_1330_91)">
<mask id="path-1-inside-1_1330_91" fill="white">
<path fill-rule="evenodd" clip-rule="evenodd" d="M4.2 1C4.56931 1 4.90856 1.20355 5.08235 1.52941L5.86667 3H15C15.5523 3 16 3.44772 16 4V14C16 14.5523 15.5523 15 15 15H1C0.447715 15 0 14.5523 0 14V6V4V2C0 1.44772 0.447714 1 0.999999 1H4.2Z"/>
</mask>
<path d="M5.08235 1.52941L4.2 2V2L5.08235 1.52941ZM5.86667 3L4.98431 3.47059L5.26667 4H5.86667V3ZM5.96471 1.05882C5.61712 0.407096 4.93862 0 4.2 0V2V2L5.96471 1.05882ZM6.74902 2.52941L5.96471 1.05882L4.2 2L4.98431 3.47059L6.74902 2.52941ZM15 2H5.86667V4H15V2ZM17 4C17 2.89543 16.1046 2 15 2V4V4H17ZM17 14V4H15V14H17ZM15 16C16.1046 16 17 15.1046 17 14H15V16ZM1 16H15V14H1V16ZM-1 14C-1 15.1046 -0.104569 16 1 16V14H-1ZM-1 6V14H1V6H-1ZM-1 4V6H1V4H-1ZM-1 2V4H1V2H-1ZM0.999999 0C-0.104572 0 -1 0.895432 -1 2H1H0.999999V0ZM4.2 0H0.999999V2H4.2V0Z" fill="#77A570" mask="url(#path-1-inside-1_1330_91)"/>
<path d="M11 9C11 8.44772 10.5523 8 10 8L4 8C3.44772 8 3 8.44772 3 9L3 10.972C3 11.5351 3.46474 11.9872 4.02763 11.9716L4.40492 11.9612C4.77161 11.951 5.10332 11.7409 5.2692 11.4138L6.10187 9.77143C6.47335 9.03875 7.52084 9.04168 7.88821 9.77642L8.72361 11.4472C8.893 11.786 9.23926 12 9.61803 12L10 12C10.5523 12 11 11.5523 11 11L11 9Z" fill="#77A570"/>
<path d="M5 6.50001C5 6.77616 5.22386 7.00001 5.5 7.00001H11C11.5523 7.00001 12 7.44773 12 8.00001V10.5C12 10.7761 12.2239 11 12.5 11C12.7762 11 13 10.7761 13 10.5V7.00001C13 6.44773 12.5523 6.00001 12 6.00001H5.5C5.22386 6.00001 5 6.22387 5 6.50001Z" fill="#77A570"/>
</g>
<defs>
<clipPath id="clip0_1330_91">
<rect width="16" height="16" fill="white"/>
</clipPath>
</defs>
</svg>
