<svg width="16" height="15" viewBox="0 0 16 15" fill="none" xmlns="http://www.w3.org/2000/svg">
<mask id="path-1-outside-1_227_564" maskUnits="userSpaceOnUse" x="-4.42666e-06" y="-6.55671e-07" width="16" height="15" fill="black">
<rect fill="white" x="-4.42666e-06" y="-6.55671e-07" width="16" height="15"/>
<path fill-rule="evenodd" clip-rule="evenodd" d="M11 1C10.4477 1 10 1.44772 10 2L10 3L2 3C1.44771 3 0.999996 3.44771 0.999996 4L0.999996 13C0.999996 13.5523 1.44771 14 2 14L14 14C14.5523 14 15 13.5523 15 13L15 4L15 2C15 1.44772 14.5523 1 14 1L11 1Z"/>
</mask>
<path d="M10 3L10 4L11 4L11 3L10 3ZM2 3L2 4L2 4L2 3ZM11 2L11 2L11 -1.74846e-07C9.89543 -2.23128e-07 9 0.895431 9 2L11 2ZM11 3L11 2L9 2L9 3L11 3ZM2 4L10 4L10 2L2 2L2 4ZM2 4L2 4L2 2C0.895428 2 -3.89755e-06 2.89543 -3.94583e-06 4L2 4ZM2 13L2 4L-3.94583e-06 4L-4.33923e-06 13L2 13ZM2 13L2 13L-4.33923e-06 13C-4.38752e-06 14.1046 0.895428 15 2 15L2 13ZM14 13L2 13L2 15L14 15L14 13ZM14 13L14 13L14 15C15.1046 15 16 14.1046 16 13L14 13ZM14 4L14 13L16 13L16 4L14 4ZM14 2L14 4L16 4L16 2L14 2ZM14 2L14 2L16 2C16 0.89543 15.1046 4.57079e-09 14 -4.37114e-08L14 2ZM11 2L14 2L14 -4.37114e-08L11 -1.74846e-07L11 2Z" fill="#FFBE5B" mask="url(#path-1-outside-1_227_564)"/>
<path d="M5 10C4.44772 10 4 10.4477 4 11V11C4 11.5523 4.44772 12 5 12L9 12C9.55228 12 10 11.5523 10 11V11C10 10.4477 9.55228 10 9 10L5 10Z" fill="#FFBE5B"/>
<path d="M7 5C6.44772 5 6 5.44772 6 6V6C6 6.55228 6.44772 7 7 7L9 7C9.55228 7 10 6.55228 10 6V6C10 5.44772 9.55228 5 9 5L7 5Z" fill="#FFBE5B"/>
<path d="M6 8C6 7.44772 5.55228 7 5 7V7C4.44772 7 4 7.44772 4 8L4 11C4 11.5523 4.44772 12 5 12V12C5.55228 12 6 11.5523 6 11L6 8Z" fill="#FFBE5B"/>
<rect x="0.5" y="0.5" width="3" height="3" transform="matrix(4.37114e-08 1 1 -4.37114e-08 3 4)" stroke="#FFBE5B"/>
<rect x="0.5" y="0.5" width="3" height="3" rx="1.5" transform="matrix(4.37114e-08 1 1 -4.37114e-08 9 9)" stroke="#FFBE5B"/>
<rect x="0.5" y="0.5" width="3" height="3" rx="1.5" transform="matrix(4.37114e-08 1 1 -4.37114e-08 9 4)" stroke="#FFBE5B"/>
</svg>
