<svg width="16" height="16" viewBox="0 0 16 16" fill="none" xmlns="http://www.w3.org/2000/svg">
<mask id="path-1-outside-1_134_544" maskUnits="userSpaceOnUse" x="-1.35122e-07" y="0.999999" width="16" height="15" fill="black">
<rect fill="white" x="-1.35122e-07" y="0.999999" width="16" height="15"/>
<path fill-rule="evenodd" clip-rule="evenodd" d="M11 2C10.4477 2 10 2.44772 10 3L10 4L2 4C1.44772 4 1 4.44771 1 5L1 14C1 14.5523 1.44772 15 2 15L14 15C14.5523 15 15 14.5523 15 14L15 5L15 3C15 2.44772 14.5523 2 14 2L11 2Z"/>
</mask>
<path d="M10 3L9 3L10 3ZM10 4L10 5L11 5L11 4L10 4ZM2 4L2 5L2 4ZM2 15L2 14L2 15ZM14 15L14 16L14 15ZM11 3L11 3L11 1C9.89543 1 9 1.89543 9 3L11 3ZM11 4L11 3L9 3L9 4L11 4ZM2 5L10 5L10 3L2 3L2 5ZM2 5L2 5L2 3C0.895432 3 3.93985e-07 3.89543 3.45703e-07 5L2 5ZM2 14L2 5L3.45703e-07 5L-4.76995e-08 14L2 14ZM2 14L2 14L-4.76995e-08 14C-9.59818e-08 15.1046 0.895432 16 2 16L2 14ZM14 14L2 14L2 16L14 16L14 14ZM14 14L14 14L14 16C15.1046 16 16 15.1046 16 14L14 14ZM14 5L14 14L16 14L16 5L14 5ZM14 3L14 5L16 5L16 3L14 3ZM14 3L14 3L16 3C16 1.89543 15.1046 1 14 1L14 3ZM11 3L14 3L14 1L11 1L11 3Z" fill="#74BCE0" mask="url(#path-1-outside-1_134_544)"/>
<path fill-rule="evenodd" clip-rule="evenodd" d="M10.7071 6.14293C10.5261 5.96197 10.2761 5.85004 10 5.85004L5 5.85004C4.44772 5.85004 4 6.29775 4 6.85004L4 11.85C4 12.4023 4.44771 12.85 5 12.85L10 12.85C10.5523 12.85 11 12.4023 11 11.85L11 9.85004L10 10.85L10 6.85004L10.7071 6.14293ZM5 6.85004L10 6.85004L10 11.85L5 11.85L5 6.85004Z" fill="#74BCE0"/>
<path d="M11.6464 5.70353C11.8417 5.50827 12.1583 5.50827 12.3536 5.70353L12.6464 5.99642C12.8417 6.19168 12.8417 6.50827 12.6464 6.70353L8.37684 10.9731C8.17272 11.1773 7.83864 11.1666 7.64793 10.9499L6.10989 9.20215C5.93563 9.00413 5.94517 8.7048 6.13169 8.51828L6.40497 8.245C6.61569 8.03428 6.9628 8.05351 7.14896 8.28621L7.65101 8.91377C7.83717 9.14647 8.18428 9.1657 8.395 8.95498L11.6464 5.70353Z" fill="#74BCE0"/>
</svg>
