<svg width="16" height="16" viewBox="0 0 16 16" fill="none" xmlns="http://www.w3.org/2000/svg">
<g clip-path="url(#clip0_1339_10)">
<mask id="path-1-inside-1_1339_10" fill="white">
<path fill-rule="evenodd" clip-rule="evenodd" d="M4.2 1C4.56931 1 4.90856 1.20355 5.08235 1.52941L5.86667 3H15C15.5523 3 16 3.44772 16 4V14C16 14.5523 15.5523 15 15 15H1C0.447715 15 0 14.5523 0 14V6V4V2C0 1.44772 0.447714 1 0.999999 1H4.2Z"/>
</mask>
<path d="M5.08235 1.52941L4.2 2V2L5.08235 1.52941ZM5.86667 3L4.98431 3.47059L5.26667 4H5.86667V3ZM5.96471 1.05882C5.61712 0.407096 4.93862 0 4.2 0V2V2L5.96471 1.05882ZM6.74902 2.52941L5.96471 1.05882L4.2 2L4.98431 3.47059L6.74902 2.52941ZM15 2H5.86667V4H15V2ZM17 4C17 2.89543 16.1046 2 15 2V4V4H17ZM17 14V4H15V14H17ZM15 16C16.1046 16 17 15.1046 17 14H15V16ZM1 16H15V14H1V16ZM-1 14C-1 15.1046 -0.104569 16 1 16V14H-1ZM-1 6V14H1V6H-1ZM-1 4V6H1V4H-1ZM-1 2V4H1V2H-1ZM0.999999 0C-0.104572 0 -1 0.895432 -1 2H1H0.999999V0ZM4.2 0H0.999999V2H4.2V0Z" fill="#B5B5B5" mask="url(#path-1-inside-1_1339_10)"/>
<path d="M10 8.5L10.2681 8.90126C10.3234 8.98412 10.3534 9.08457 10.35 9.18417C10.2048 13.3611 5.00028 13.3092 5.01968 9.0284L5.00986 8.0142L5.00644 7.66064C5.00394 7.40298 5.30602 7.26227 5.50166 7.42996L7.33337 9L7.14543 9.00801C6.8778 9.01941 6.65871 9.24277 6.71073 9.50554C6.99876 10.9606 8.60439 10.8302 8.6563 9.11439C8.65797 9.0591 8.64227 9.00345 8.61334 8.9563V8.9563C8.49084 8.75667 8.63448 8.5 8.8687 8.5L10 8.5Z" fill="#B5B5B5"/>
<path d="M10.5 7.66667C10.5 8.311 9.97762 8.83333 9.33329 8.83333C8.68896 8.83333 8.16663 8.311 8.16663 7.66667C8.16663 7.02233 8.68896 6.5 9.33329 6.5C9.97762 6.5 10.5 7.02233 10.5 7.66667Z" stroke="#B5B5B5"/>
</g>
<defs>
<clipPath id="clip0_1339_10">
<rect width="16" height="16" fill="white"/>
</clipPath>
</defs>
</svg>
