<svg width="16" height="16" viewBox="0 0 16 16" fill="none" xmlns="http://www.w3.org/2000/svg">
<mask id="path-1-outside-1_134_698" maskUnits="userSpaceOnUse" x="-6.11959e-07" y="0.999999" width="16" height="15" fill="black">
<rect fill="white" x="-6.11959e-07" y="0.999999" width="16" height="15"/>
<path fill-rule="evenodd" clip-rule="evenodd" d="M11 2C10.4477 2 10 2.44772 10 3L10 4L2 4C1.44772 4 1 4.44771 1 5L0.999999 14C0.999999 14.5523 1.44772 15 2 15L14 15C14.5523 15 15 14.5523 15 14L15 5L15 3C15 2.44772 14.5523 2 14 2L11 2Z"/>
</mask>
<path d="M10 4L10 5L11 5L11 4L10 4ZM2 4L2 5L2 4ZM1 5L-1.31134e-07 5L1 5ZM0.999999 14L2 14L0.999999 14ZM2 15L2 14L2 15ZM14 15L14 16L14 15ZM15 14L14 14L15 14ZM15 5L16 5L15 5ZM15 3L14 3L15 3ZM11 3L11 3L11 1C9.89543 1 9 1.89543 9 3L11 3ZM11 4L11 3L9 3L9 4L11 4ZM2 5L10 5L10 3L2 3L2 5ZM2 5L2 5L2 3C0.895431 3 -8.28519e-08 3.89543 -1.31134e-07 5L2 5ZM2 14L2 5L-1.31134e-07 5L-5.24537e-07 14L2 14ZM2 14L2 14L-5.24537e-07 14C-5.72819e-07 15.1046 0.895432 16 2 16L2 14ZM14 14L2 14L2 16L14 16L14 14ZM14 14L14 14L14 16C15.1046 16 16 15.1046 16 14L14 14ZM14 5L14 14L16 14L16 5L14 5ZM14 3L14 5L16 5L16 3L14 3ZM14 3L14 3L16 3C16 1.89543 15.1046 1 14 1L14 3ZM11 3L14 3L14 1L11 1L11 3Z" fill="#75DF6C" mask="url(#path-1-outside-1_134_698)"/>
<path d="M5.16532 9.26499C5.56057 8.66598 6.43943 8.66598 6.83468 9.26499L8.44088 11.6993C8.87957 12.3641 8.40275 13.25 7.6062 13.25H4.3938C3.59725 13.25 3.12043 12.3641 3.55912 11.6993L5.16532 9.26499Z" fill="#75DF6C"/>
<path d="M9.07798 7.19585C9.42109 6.37871 10.5789 6.37871 10.922 7.19585L12.8817 11.8629C13.1584 12.5219 12.6744 13.25 11.9596 13.25H8.04037C7.32561 13.25 6.84163 12.5219 7.11835 11.8629L9.07798 7.19585Z" fill="#75DF6C"/>
</svg>
