<svg width="16" height="16" viewBox="0 0 16 16" fill="none" xmlns="http://www.w3.org/2000/svg">
<mask id="path-1-outside-1_136_27" maskUnits="userSpaceOnUse" x="-6.11959e-07" y="0.999999" width="16" height="15" fill="black">
<rect fill="white" x="-6.11959e-07" y="0.999999" width="16" height="15"/>
<path fill-rule="evenodd" clip-rule="evenodd" d="M11 2C10.4477 2 10 2.44772 10 3L10 4L2 4C1.44772 4 1 4.44771 1 5L0.999999 14C0.999999 14.5523 1.44772 15 2 15L14 15C14.5523 15 15 14.5523 15 14L15 5L15 3C15 2.44772 14.5523 2 14 2L11 2Z"/>
</mask>
<path d="M11 2L11 3L11 2ZM10 4L10 5L11 5L11 4L10 4ZM2 4L2 5L2 4ZM1 5L-1.31134e-07 5L1 5ZM0.999999 14L2 14L0.999999 14ZM2 15L2 14L2 15ZM14 15L14 16L14 15ZM14 2L14 1L14 2ZM11 3L11 3L11 1C9.89543 1 9 1.89543 9 3L11 3ZM11 4L11 3L9 3L9 4L11 4ZM2 5L10 5L10 3L2 3L2 5ZM2 5L2 5L2 3C0.895431 3 -8.28519e-08 3.89543 -1.31134e-07 5L2 5ZM2 14L2 5L-1.31134e-07 5L-5.24537e-07 14L2 14ZM2 14L2 14L-5.24537e-07 14C-5.72819e-07 15.1046 0.895432 16 2 16L2 14ZM14 14L2 14L2 16L14 16L14 14ZM14 14L14 14L14 16C15.1046 16 16 15.1046 16 14L14 14ZM14 5L14 14L16 14L16 5L14 5ZM14 3L14 5L16 5L16 3L14 3ZM14 3L14 3L16 3C16 1.89543 15.1046 1 14 1L14 3ZM11 3L14 3L14 1L11 1L11 3Z" fill="#75DF6C" mask="url(#path-1-outside-1_136_27)"/>
<path d="M5 6.5H11.5C12.0523 6.5 12.5 6.94772 12.5 7.5V11.5" stroke="#75DF6C" stroke-linecap="round"/>
<path fill-rule="evenodd" clip-rule="evenodd" d="M10 8C10.5523 8 11 8.44772 11 9L11 12C11 12.5523 10.5523 13 10 13L4 13C3.44772 13 3 12.5523 3 12L3 9C3 8.44771 3.44772 8 4 8L10 8ZM6.31977 8.37459C6.39245 8.22354 6.60755 8.22354 6.68022 8.37459L7.44425 9.96259L7.82679 9.3C7.90377 9.16667 8.09622 9.16667 8.1732 9.3L9.55885 11.7C9.63583 11.8333 9.5396 12 9.38564 12L8.4245 12L8.52712 12.2133C8.591 12.3461 8.49424 12.5 8.34689 12.5L4.65311 12.5C4.50576 12.5 4.409 12.3461 4.47288 12.2133L6.31977 8.37459Z" fill="#75DF6C"/>
</svg>
