<svg width="16" height="16" viewBox="0 0 16 16" fill="none" xmlns="http://www.w3.org/2000/svg">
<mask id="path-1-outside-1_134_527" maskUnits="userSpaceOnUse" x="-6.11959e-07" y="0.999999" width="16" height="15" fill="black">
<rect fill="white" x="-6.11959e-07" y="0.999999" width="16" height="15"/>
<path fill-rule="evenodd" clip-rule="evenodd" d="M11 2C10.4477 2 10 2.44772 10 3L10 4L2 4C1.44772 4 1 4.44771 1 5L0.999999 14C0.999999 14.5523 1.44772 15 2 15L14 15C14.5523 15 15 14.5523 15 14L15 5L15 3C15 2.44772 14.5523 2 14 2L11 2Z"/>
</mask>
<path d="M11 2L11 3L11 2ZM10 4L10 5L11 5L11 4L10 4ZM2 4L2 5L2 4ZM1 5L-1.31134e-07 5L1 5ZM0.999999 14L2 14L0.999999 14ZM15 14L14 14L15 14ZM15 5L16 5L15 5ZM15 3L14 3L15 3ZM14 2L14 1L14 2ZM11 3L11 3L11 1C9.89543 1 9 1.89543 9 3L11 3ZM11 4L11 3L9 3L9 4L11 4ZM2 5L10 5L10 3L2 3L2 5ZM2 5L2 5L2 3C0.895431 3 -8.28519e-08 3.89543 -1.31134e-07 5L2 5ZM2 14L2 5L-1.31134e-07 5L-5.24537e-07 14L2 14ZM2 14L2 14L-5.24537e-07 14C-5.72819e-07 15.1046 0.895432 16 2 16L2 14ZM14 14L2 14L2 16L14 16L14 14ZM14 14L14 14L14 16C15.1046 16 16 15.1046 16 14L14 14ZM14 5L14 14L16 14L16 5L14 5ZM14 3L14 5L16 5L16 3L14 3ZM14 3L14 3L16 3C16 1.89543 15.1046 1 14 1L14 3ZM11 3L14 3L14 1L11 1L11 3Z" fill="#FFBE5B" mask="url(#path-1-outside-1_134_527)"/>
<path d="M13 10C13.5523 10 14 10.4477 14 11L14 12C14 12.5523 13.5523 13 13 13L12 13C11.4477 13 11 12.5523 11 12L11 11C11 10.4477 11.4477 10 12 10L13 10Z" fill="#FFBE5B"/>
<path d="M9 10C9.55228 10 10 10.4477 10 11L10 12C10 12.5523 9.55228 13 9 13L3 13C2.44772 13 2 12.5523 2 12L2 11C2 10.4477 2.44772 10 3 10L9 10Z" fill="#FFBE5B"/>
<path d="M13 6C13.5523 6 14 6.44772 14 7L14 8C14 8.55229 13.5523 9 13 9L7 9C6.44772 9 6 8.55228 6 8L6 7C6 6.44771 6.44772 6 7 6L13 6Z" fill="#FFBE5B"/>
</svg>
