<svg width="16" height="15" viewBox="0 0 16 15" fill="none" xmlns="http://www.w3.org/2000/svg">
<mask id="path-1-outside-1_1113_73" maskUnits="userSpaceOnUse" x="-1.58707e-05" y="-6.55671e-07" width="16" height="15" fill="black">
<rect fill="white" x="-1.58707e-05" y="-6.55671e-07" width="16" height="15"/>
<path fill-rule="evenodd" clip-rule="evenodd" d="M11 1C10.4477 1 9.99998 1.44772 9.99998 2L9.99998 3L1.99998 3C1.4477 3 0.999985 3.44771 0.999985 4L0.999984 13C0.999984 13.5523 1.4477 14 1.99999 14L14 14C14.5523 14 15 13.5523 15 13L15 4L15 2C15 1.44772 14.5523 1 14 1L11 1Z"/>
</mask>
<path d="M9.99998 3L9.99998 4L11 4L11 3L9.99998 3ZM1.99998 3L1.99998 4L1.99998 4L1.99998 3ZM15 13L16 13L15 13ZM15 4L14 4L15 4ZM11 2L11 2L11 -1.74846e-07C9.89541 -2.23128e-07 8.99998 0.895431 8.99998 2L11 2ZM11 3L11 2L8.99998 2L8.99998 3L11 3ZM1.99998 4L9.99998 4L9.99998 2L1.99998 2L1.99998 4ZM1.99998 4L1.99998 4L1.99998 2C0.895417 2 -1.53416e-05 2.89543 -1.53899e-05 4L1.99998 4ZM1.99998 13L1.99998 4L-1.53899e-05 4L-1.57833e-05 13L1.99998 13ZM1.99999 13L1.99998 13L-1.57833e-05 13C-1.58316e-05 14.1046 0.895416 15 1.99999 15L1.99999 13ZM14 13L1.99999 13L1.99999 15L14 15L14 13ZM14 13L14 13L14 15C15.1046 15 16 14.1046 16 13L14 13ZM14 4L14 13L16 13L16 4L14 4ZM14 2L14 4L16 4L16 2L14 2ZM14 2L14 2L16 2C16 0.89543 15.1046 4.57079e-09 14 -4.37114e-08L14 2ZM11 2L14 2L14 -4.37114e-08L11 -1.74846e-07L11 2Z" fill="#B5B5B5" mask="url(#path-1-outside-1_1113_73)"/>
<mask id="mask0_1113_73" style="mask-type:alpha" maskUnits="userSpaceOnUse" x="2" y="3" width="11" height="11">
<rect x="2" y="3" width="11" height="11" fill="#D9D9D9"/>
</mask>
<g mask="url(#mask0_1113_73)">
<path fill-rule="evenodd" clip-rule="evenodd" d="M2.6875 8.5C2.6875 5.84213 4.84213 3.6875 7.5 3.6875V5.75C5.98122 5.75 4.75 6.98122 4.75 8.5C4.75 10.0188 5.98122 11.25 7.5 11.25V13.3125C4.84213 13.3125 2.6875 11.1579 2.6875 8.5Z" fill="#B5B5B5"/>
<path fill-rule="evenodd" clip-rule="evenodd" d="M11.8494 6.43755H11.0732C10.5851 5.59391 9.80692 4.93915 8.875 4.60977V3.88684C10.1899 4.27816 11.2692 5.2163 11.8494 6.43755ZM11.0732 10.5625H11.8494C11.2692 11.7838 10.1899 12.7219 8.875 13.1133V12.3903C9.80692 12.0609 10.5851 11.4062 11.0732 10.5625Z" fill="#B5B5B5"/>
<rect x="10.25" y="7.125" width="2.75" height="2.75" rx="1.375" fill="#B5B5B5"/>
</g>
</svg>
