<svg width="16" height="16" viewBox="0 0 16 16" fill="none" xmlns="http://www.w3.org/2000/svg">
<mask id="path-1-outside-1_134_443" maskUnits="userSpaceOnUse" x="-1.35122e-07" y="0.999999" width="16" height="15" fill="black">
<rect fill="white" x="-1.35122e-07" y="0.999999" width="16" height="15"/>
<path fill-rule="evenodd" clip-rule="evenodd" d="M11 2C10.4477 2 10 2.44772 10 3L10 4L2 4C1.44772 4 1 4.44771 1 5L1 14C1 14.5523 1.44772 15 2 15L14 15C14.5523 15 15 14.5523 15 14L15 5L15 3C15 2.44772 14.5523 2 14 2L11 2Z"/>
</mask>
<path d="M10 4L10 5L11 5L11 4L10 4ZM2 4L2 5L2 4ZM2 15L2 14L2 15ZM14 15L14 16L14 15ZM15 5L14 5L15 5ZM15 3L16 3L15 3ZM11 3L11 3L11 1C9.89543 1 9 1.89543 9 3L11 3ZM11 4L11 3L9 3L9 4L11 4ZM2 5L10 5L10 3L2 3L2 5ZM2 5L2 5L2 3C0.895432 3 3.93985e-07 3.89543 3.45703e-07 5L2 5ZM2 14L2 5L3.45703e-07 5L-4.76995e-08 14L2 14ZM2 14L2 14L-4.76995e-08 14C-9.59818e-08 15.1046 0.895432 16 2 16L2 14ZM14 14L2 14L2 16L14 16L14 14ZM14 14L14 14L14 16C15.1046 16 16 15.1046 16 14L14 14ZM14 5L14 14L16 14L16 5L14 5ZM14 3L14 5L16 5L16 3L14 3ZM14 3L14 3L16 3C16 1.89543 15.1046 1 14 1L14 3ZM11 3L14 3L14 1L11 1L11 3Z" fill="#75DF6C" mask="url(#path-1-outside-1_134_443)"/>
<path d="M5.5 11.5C5.5 11.7761 5.27614 12 5 12C4.72386 12 4.5 11.7761 4.5 11.5L4.5 7.5C4.5 7.22386 4.72386 7 5 7C5.27614 7 5.5 7.22386 5.5 7.5L5.5 11.5Z" fill="#75DF6C"/>
<path d="M11.5 11.5C11.5 11.7761 11.2761 12 11 12C10.7239 12 10.5 11.7761 10.5 11.5L10.5 7.5C10.5 7.22386 10.7239 7 11 7C11.2761 7 11.5 7.22386 11.5 7.5L11.5 11.5Z" fill="#75DF6C"/>
<path d="M11.2215 6.88063C11.3904 6.95305 11.5 7.1192 11.5 7.30304C11.5 7.63297 11.1626 7.85542 10.8594 7.72545L8.39392 6.66882C8.14237 6.56102 7.85763 6.56102 7.60608 6.66882L5.14061 7.72545C4.83735 7.85542 4.5 7.63297 4.5 7.30304C4.5 7.1192 4.60956 6.95305 4.77854 6.88063L7.60608 5.66882C7.85763 5.56102 8.14237 5.56102 8.39392 5.66882L11.2215 6.88063Z" fill="#75DF6C"/>
<path d="M4.77854 8.11937C4.60956 8.04695 4.5 7.8808 4.5 7.69696C4.5 7.36703 4.83735 7.14458 5.1406 7.27455L7.60608 8.33118C7.85763 8.43898 8.14237 8.43898 8.39392 8.33118L10.8594 7.27455C11.1626 7.14458 11.5 7.36702 11.5 7.69696C11.5 7.8808 11.3904 8.04695 11.2215 8.11937L8.39392 9.33118C8.14237 9.43898 7.85763 9.43898 7.60608 9.33118L4.77854 8.11937Z" fill="#75DF6C"/>
<path d="M4.77854 8.11937C4.60956 8.04695 4.5 7.8808 4.5 7.69696C4.5 7.36703 4.83735 7.14458 5.1406 7.27455L7.60608 8.33118C7.85763 8.43898 8.14237 8.43898 8.39392 8.33118L10.8594 7.27455C11.1626 7.14458 11.5 7.36702 11.5 7.69696C11.5 7.8808 11.3904 8.04695 11.2215 8.11937L8.39392 9.33118C8.14237 9.43898 7.85763 9.43898 7.60608 9.33118L4.77854 8.11937Z" fill="#75DF6C"/>
<path d="M4.77854 12.1194C4.60956 12.047 4.5 11.8808 4.5 11.697C4.5 11.367 4.83735 11.1446 5.14061 11.2745L7.60608 12.3312C7.85763 12.439 8.14237 12.439 8.39392 12.3312L10.8594 11.2745C11.1626 11.1446 11.5 11.367 11.5 11.697C11.5 11.8808 11.3904 12.047 11.2215 12.1194L8.39392 13.3312C8.14237 13.439 7.85763 13.439 7.60608 13.3312L4.77854 12.1194Z" fill="#75DF6C"/>
<path d="M8.5 13L7.5 13L7.5 9L8.5 9C8.5 10.5621 8.5 11.4379 8.5 13Z" fill="#75DF6C"/>
</svg>
