<svg width="16" height="16" viewBox="0 0 16 16" fill="none" xmlns="http://www.w3.org/2000/svg">
<path d="M10 4L10 4.5L10.5 4.5L10.5 4L10 4ZM2 4L2 4.5L2 4ZM1 5L1.5 5L1 5ZM0.999999 14L0.499999 14L0.999999 14ZM2 15L2 15.5L2 15ZM14 15L14 14.5L14 15ZM10.5 3C10.5 2.72386 10.7239 2.5 11 2.5L11 1.5C10.1716 1.5 9.5 2.17157 9.5 3L10.5 3ZM10.5 4L10.5 3L9.5 3L9.5 4L10.5 4ZM2 4.5L10 4.5L10 3.5L2 3.5L2 4.5ZM1.5 5C1.5 4.72386 1.72386 4.5 2 4.5L2 3.5C1.17157 3.5 0.5 4.17157 0.5 5L1.5 5ZM1.5 14L1.5 5L0.5 5L0.499999 14L1.5 14ZM2 14.5C1.72386 14.5 1.5 14.2761 1.5 14L0.499999 14C0.499999 14.8284 1.17157 15.5 2 15.5L2 14.5ZM14 14.5L2 14.5L2 15.5L14 15.5L14 14.5ZM14.5 14C14.5 14.2761 14.2761 14.5 14 14.5L14 15.5C14.8284 15.5 15.5 14.8284 15.5 14L14.5 14ZM14.5 5L14.5 14L15.5 14L15.5 5L14.5 5ZM14.5 3L14.5 5L15.5 5L15.5 3L14.5 3ZM14 2.5C14.2761 2.5 14.5 2.72386 14.5 3L15.5 3C15.5 2.17157 14.8284 1.5 14 1.5L14 2.5ZM11 2.5L14 2.5L14 1.5L11 1.5L11 2.5Z" fill="#B5B5B5"/>
<path d="M11.5 6C11.7761 6 12 6.22386 12 6.5L12 8.5C12 8.77614 11.7761 9 11.5 9L9.5 9C9.22386 9 9 8.77614 9 8.5L9 6.5C9 6.22386 9.22386 6 9.5 6L11.5 6Z" fill="#B5B5B5"/>
<path d="M11.5 10C11.7761 10 12 10.2239 12 10.5L12 12.5C12 12.7761 11.7761 13 11.5 13L9.5 13C9.22386 13 9 12.7761 9 12.5L9 10.5C9 10.2239 9.22386 10 9.5 10L11.5 10Z" fill="#B5B5B5"/>
<path d="M5.5 8C5.77614 8 6 8.22386 6 8.5L6 10.5C6 10.7761 5.77614 11 5.5 11L3.5 11C3.22386 11 3 10.7761 3 10.5L3 8.5C3 8.22386 3.22386 8 3.5 8L5.5 8Z" fill="#B5B5B5"/>
<path d="M9.53512 6.88165C9.77427 6.74358 10.0801 6.82552 10.2181 7.06467C10.3562 7.30381 10.2743 7.60961 10.0351 7.74768L5.93301 10.116C5.69387 10.2541 5.38807 10.1722 5.25 9.93302C5.11193 9.69387 5.19387 9.38808 5.43301 9.25001L9.53512 6.88165Z" fill="#B5B5B5"/>
<path d="M5.93301 9.25C5.69387 9.11193 5.38807 9.19387 5.25 9.43301C5.11193 9.67216 5.19387 9.97795 5.43301 10.116L9.53512 12.4844C9.77427 12.6224 10.0801 12.5405 10.2181 12.3014C10.3562 12.0622 10.2743 11.7564 10.0351 11.6184L5.93301 9.25Z" fill="#B5B5B5"/>
</svg>
