<svg width="16" height="16" viewBox="0 0 16 16" fill="none" xmlns="http://www.w3.org/2000/svg">
<mask id="path-1-outside-1_134_609" maskUnits="userSpaceOnUse" x="-6.11959e-07" y="0.999999" width="16" height="15" fill="black">
<rect fill="white" x="-6.11959e-07" y="0.999999" width="16" height="15"/>
<path fill-rule="evenodd" clip-rule="evenodd" d="M11 2C10.4477 2 10 2.44772 10 3L10 4L2 4C1.44772 4 1 4.44771 1 5L0.999999 14C0.999999 14.5523 1.44772 15 2 15L14 15C14.5523 15 15 14.5523 15 14L15 5L15 3C15 2.44772 14.5523 2 14 2L11 2Z"/>
</mask>
<path d="M10 3L11 3L10 3ZM10 4L10 5L11 5L11 4L10 4ZM2 4L2 5L2 4ZM1 5L-1.31134e-07 5L1 5ZM0.999999 14L2 14L0.999999 14ZM11 3L11 3L11 1C9.89543 1 9 1.89543 9 3L11 3ZM11 4L11 3L9 3L9 4L11 4ZM2 5L10 5L10 3L2 3L2 5ZM2 5L2 5L2 3C0.895431 3 -8.28519e-08 3.89543 -1.31134e-07 5L2 5ZM2 14L2 5L-1.31134e-07 5L-5.24537e-07 14L2 14ZM2 14L2 14L-5.24537e-07 14C-5.72819e-07 15.1046 0.895432 16 2 16L2 14ZM14 14L2 14L2 16L14 16L14 14ZM14 14L14 14L14 16C15.1046 16 16 15.1046 16 14L14 14ZM14 5L14 14L16 14L16 5L14 5ZM14 3L14 5L16 5L16 3L14 3ZM14 3L14 3L16 3C16 1.89543 15.1046 1 14 1L14 3ZM11 3L14 3L14 1L11 1L11 3Z" fill="#75DF6C" mask="url(#path-1-outside-1_134_609)"/>
<path d="M6.13274 6.403C6.36674 6.403 6.53774 6.424 6.64574 6.466C6.75974 6.502 6.84074 6.565 6.88874 6.655C6.95474 6.793 6.98774 6.979 6.98774 7.213V10.696C6.98774 11.326 6.75974 11.884 6.30374 12.37C5.84774 12.85 5.26574 13.09 4.55774 13.09C4.16174 13.09 3.81074 13.003 3.50474 12.829C3.22874 12.679 3.03674 12.544 2.92874 12.424L2.85674 12.352C2.64674 12.13 2.54174 11.941 2.54174 11.785C2.54174 11.623 2.64674 11.434 2.85674 11.218C3.06674 11.002 3.25274 10.894 3.41474 10.894C3.57674 10.894 3.75674 10.993 3.95474 11.191C4.15274 11.389 4.36574 11.488 4.59374 11.488C4.82774 11.488 5.01974 11.41 5.16974 11.254C5.31974 11.098 5.39474 10.891 5.39474 10.633V7.267C5.39474 6.907 5.45474 6.676 5.57474 6.574C5.71274 6.46 5.89874 6.403 6.13274 6.403ZM7.80519 12.073C7.64919 11.881 7.57119 11.71 7.57119 11.56C7.57119 11.404 7.70019 11.2 7.95819 10.948C8.10819 10.804 8.26719 10.732 8.43519 10.732C8.60319 10.732 8.83719 10.882 9.13719 11.182C9.22119 11.284 9.34119 11.383 9.49719 11.479C9.65319 11.569 9.79719 11.614 9.92919 11.614C10.4872 11.614 10.7662 11.386 10.7662 10.93C10.7662 10.792 10.6882 10.678 10.5322 10.588C10.3822 10.492 10.1932 10.423 9.96519 10.381C9.73719 10.339 9.49119 10.273 9.22719 10.183C8.96319 10.087 8.71719 9.976 8.48919 9.85C8.26119 9.724 8.06919 9.526 7.91319 9.256C7.76319 8.98 7.68819 8.65 7.68819 8.266C7.68819 7.738 7.88319 7.279 8.27319 6.889C8.66919 6.493 9.20619 6.295 9.88419 6.295C10.2442 6.295 10.5712 6.343 10.8652 6.439C11.1652 6.529 11.3722 6.622 11.4862 6.718L11.7112 6.889C11.8972 7.063 11.9902 7.21 11.9902 7.33C11.9902 7.45 11.9182 7.615 11.7742 7.825C11.5702 8.125 11.3602 8.275 11.1442 8.275C11.0182 8.275 10.8622 8.215 10.6762 8.095C10.6582 8.083 10.6222 8.053 10.5682 8.005C10.5202 7.957 10.4752 7.918 10.4332 7.888C10.3072 7.81 10.1452 7.771 9.94719 7.771C9.75519 7.771 9.59319 7.819 9.46119 7.915C9.33519 8.005 9.27219 8.134 9.27219 8.302C9.27219 8.464 9.34719 8.596 9.49719 8.698C9.65319 8.8 9.84519 8.869 10.0732 8.905C10.3012 8.941 10.5502 8.998 10.8202 9.076C11.0902 9.148 11.3392 9.238 11.5672 9.346C11.7952 9.454 11.9842 9.643 12.1342 9.913C12.2902 10.177 12.3682 10.504 12.3682 10.894C12.3682 11.284 12.2902 11.629 12.1342 11.929C11.9782 12.223 11.7742 12.451 11.5222 12.613C11.0362 12.931 10.5172 13.09 9.96519 13.09C9.68319 13.09 9.41619 13.057 9.16419 12.991C8.91219 12.919 8.70819 12.832 8.55219 12.73C8.23419 12.538 8.01219 12.352 7.88619 12.172L7.80519 12.073Z" fill="#75DF6C"/>
</svg>
