<svg width="17" height="22" viewBox="0 0 17 22" fill="none" xmlns="http://www.w3.org/2000/svg">
<mask id="path-1-outside-1_408_243" maskUnits="userSpaceOnUse" x="-8.24135e-06" y="0.999999" width="16" height="15" fill="black">
<rect fill="white" x="-8.24135e-06" y="0.999999" width="16" height="15"/>
<path fill-rule="evenodd" clip-rule="evenodd" d="M11 2C10.4477 2 9.99999 2.44772 9.99999 3L9.99999 4L1.99999 4C1.44771 4 0.999992 4.44771 0.999992 5L0.999992 14C0.999992 14.5523 1.44771 15 1.99999 15L14 15C14.5523 15 15 14.5523 15 14L15 5L15 3C15 2.44772 14.5523 2 14 2L11 2Z"/>
</mask>
<path d="M9.99999 3L11 3L9.99999 3ZM9.99999 4L9.99999 5L11 5L11 4L9.99999 4ZM1.99999 4L1.99999 5L1.99999 4ZM11 3L11 3L11 1C9.89542 1 8.99999 1.89543 8.99999 3L11 3ZM11 4L11 3L8.99999 3L8.99999 4L11 4ZM1.99999 5L9.99999 5L9.99999 3L1.99999 3L1.99999 5ZM1.99999 5L1.99999 5L1.99999 3C0.895424 3 -7.71225e-06 3.89543 -7.76053e-06 5L1.99999 5ZM1.99999 14L1.99999 5L-7.76053e-06 5L-8.15393e-06 14L1.99999 14ZM1.99999 14L1.99999 14L-8.15393e-06 14C-8.20221e-06 15.1046 0.895424 16 1.99999 16L1.99999 14ZM14 14L1.99999 14L1.99999 16L14 16L14 14ZM14 14L14 14L14 16C15.1046 16 16 15.1046 16 14L14 14ZM14 5L14 14L16 14L16 5L14 5ZM14 3L14 5L16 5L16 3L14 3ZM14 3L14 3L16 3C16 1.89543 15.1046 1 14 1L14 3ZM11 3L14 3L14 1L11 1L11 3Z" fill="#FFBE5B" mask="url(#path-1-outside-1_408_243)"/>
<g filter="url(#filter0_d_408_243)">
<path d="M10.8637 4.79089C11.2034 4.45112 11.7801 4.73947 11.7122 5.21515L10.9004 10.898C10.8421 11.3059 10.3432 11.4722 10.0518 11.1808L7.26277 8.39177L10.8637 4.79089Z" fill="#FFC530"/>
<path d="M5.37325 7.63363C5.43152 7.22574 5.93044 7.05944 6.22178 7.35078L9.01084 10.1398L5.40995 13.7407C5.07018 14.0805 4.49347 13.7921 4.56142 13.3165L5.37325 7.63363Z" fill="#FFC530"/>
</g>
<defs>
<filter id="filter0_d_408_243" x="0.555912" y="4.64276" width="15.1618" height="17.2461" filterUnits="userSpaceOnUse" color-interpolation-filters="sRGB">
<feFlood flood-opacity="0" result="BackgroundImageFix"/>
<feColorMatrix in="SourceAlpha" type="matrix" values="0 0 0 0 0 0 0 0 0 0 0 0 0 0 0 0 0 0 127 0" result="hardAlpha"/>
<feOffset dy="4"/>
<feGaussianBlur stdDeviation="2"/>
<feComposite in2="hardAlpha" operator="out"/>
<feColorMatrix type="matrix" values="0 0 0 0 0 0 0 0 0 0 0 0 0 0 0 0 0 0 0.25 0"/>
<feBlend mode="normal" in2="BackgroundImageFix" result="effect1_dropShadow_408_243"/>
<feBlend mode="normal" in="SourceGraphic" in2="effect1_dropShadow_408_243" result="shape"/>
</filter>
</defs>
</svg>
