<svg width="16" height="16" viewBox="0 0 16 16" fill="none" xmlns="http://www.w3.org/2000/svg">
<mask id="path-1-outside-1_134_705" maskUnits="userSpaceOnUse" x="-6.11959e-07" y="0.999999" width="16" height="15" fill="black">
<rect fill="white" x="-6.11959e-07" y="0.999999" width="16" height="15"/>
<path fill-rule="evenodd" clip-rule="evenodd" d="M11 2C10.4477 2 10 2.44772 10 3L10 4L2 4C1.44772 4 1 4.44771 1 5L0.999999 14C0.999999 14.5523 1.44772 15 2 15L14 15C14.5523 15 15 14.5523 15 14L15 5L15 3C15 2.44772 14.5523 2 14 2L11 2Z"/>
</mask>
<path d="M11 2L11 3L11 2ZM10 4L10 5L11 5L11 4L10 4ZM2 4L2 5L2 4ZM1 5L-1.31134e-07 5L1 5ZM0.999999 14L2 14L0.999999 14ZM15 14L14 14L15 14ZM15 5L16 5L15 5ZM15 3L14 3L15 3ZM14 2L14 1L14 2ZM11 3L11 3L11 1C9.89543 1 9 1.89543 9 3L11 3ZM11 4L11 3L9 3L9 4L11 4ZM2 5L10 5L10 3L2 3L2 5ZM2 5L2 5L2 3C0.895431 3 -8.28519e-08 3.89543 -1.31134e-07 5L2 5ZM2 14L2 5L-1.31134e-07 5L-5.24537e-07 14L2 14ZM2 14L2 14L-5.24537e-07 14C-5.72819e-07 15.1046 0.895432 16 2 16L2 14ZM14 14L2 14L2 16L14 16L14 14ZM14 14L14 14L14 16C15.1046 16 16 15.1046 16 14L14 14ZM14 5L14 14L16 14L16 5L14 5ZM14 3L14 5L16 5L16 3L14 3ZM14 3L14 3L16 3C16 1.89543 15.1046 1 14 1L14 3ZM11 3L14 3L14 1L11 1L11 3Z" fill="#B5B5B5" mask="url(#path-1-outside-1_134_705)"/>
<path fill-rule="evenodd" clip-rule="evenodd" d="M10.1157 8.85293C9.90124 8.05273 9.07873 7.57785 8.27853 7.79227L3.44891 9.08636C2.64871 9.30077 2.17383 10.1233 2.38825 10.9235C2.60266 11.7237 3.42516 12.1986 4.22536 11.9841L9.05499 10.69C9.85519 10.4756 10.3301 9.65313 10.1157 8.85293ZM4.09532 10.483C4.02385 10.2162 3.74968 10.0579 3.48295 10.1294C3.21622 10.2009 3.05792 10.475 3.1294 10.7418C3.20087 11.0085 3.47503 11.1668 3.74177 11.0953C4.0085 11.0239 4.16679 10.7497 4.09532 10.483Z" fill="#B5B5B5"/>
<path fill-rule="evenodd" clip-rule="evenodd" d="M12.7794 7.5L11.2008 7.5C10.6485 7.5 10.2008 7.94772 10.2008 8.5C10.2008 9.05228 10.6485 9.5 11.2008 9.5L12.9753 9.5C12.7211 10.2755 12.0927 10.9114 11.2456 11.1383C9.91198 11.4957 8.54114 10.7042 8.18378 9.37057C7.82643 8.0369 8.61788 6.66606 9.95155 6.30871C11.0794 6.0065 12.2338 6.52589 12.7794 7.5Z" fill="#B5B5B5"/>
</svg>
