<svg width="16" height="16" viewBox="0 0 16 16" fill="none" xmlns="http://www.w3.org/2000/svg">
<mask id="path-1-outside-1_227_672" maskUnits="userSpaceOnUse" x="-6.11959e-07" y="0.999999" width="16" height="15" fill="black">
<rect fill="white" x="-6.11959e-07" y="0.999999" width="16" height="15"/>
<path fill-rule="evenodd" clip-rule="evenodd" d="M11 2C10.4477 2 10 2.44772 10 3L10 4L2 4C1.44772 4 1 4.44771 1 5L0.999999 14C0.999999 14.5523 1.44772 15 2 15L14 15C14.5523 15 15 14.5523 15 14L15 5L15 3C15 2.44772 14.5523 2 14 2L11 2Z"/>
</mask>
<path d="M10 3L11 3L10 3ZM10 4L10 5L11 5L11 4L10 4ZM2 4L2 5L2 4ZM11 3L11 3L11 1C9.89543 1 9 1.89543 9 3L11 3ZM11 4L11 3L9 3L9 4L11 4ZM2 5L10 5L10 3L2 3L2 5ZM2 5L2 5L2 3C0.895431 3 -8.28519e-08 3.89543 -1.31134e-07 5L2 5ZM2 14L2 5L-1.31134e-07 5L-5.24537e-07 14L2 14ZM2 14L2 14L-5.24537e-07 14C-5.72819e-07 15.1046 0.895432 16 2 16L2 14ZM14 14L2 14L2 16L14 16L14 14ZM14 14L14 14L14 16C15.1046 16 16 15.1046 16 14L14 14ZM14 5L14 14L16 14L16 5L14 5ZM14 3L14 5L16 5L16 3L14 3ZM14 3L14 3L16 3C16 1.89543 15.1046 1 14 1L14 3ZM11 3L14 3L14 1L11 1L11 3Z" fill="#75DF6C" mask="url(#path-1-outside-1_227_672)"/>
<path d="M2.5 9C2.5 8.72386 2.72386 8.5 3 8.5L8 8.5C8.27614 8.5 8.5 8.72386 8.5 9C8.5 9.27614 8.27614 9.5 8 9.5L3 9.5C2.72386 9.5 2.5 9.27614 2.5 9Z" stroke="#75DF6C"/>
<path d="M3.5 8C3.5 7.72386 3.72386 7.5 4 7.5L7 7.5C7.27614 7.5 7.5 7.72386 7.5 8C7.5 8.27614 7.27614 8.5 7 8.5L4 8.5C3.72386 8.5 3.5 8.27614 3.5 8Z" stroke="#75DF6C"/>
<path d="M5.5 7C5.5 6.72386 5.72386 6.5 6 6.5C6.27614 6.5 6.5 6.72386 6.5 7C6.5 7.27614 6.27614 7.5 6 7.5C5.72386 7.5 5.5 7.27614 5.5 7Z" stroke="#75DF6C"/>
<path d="M7.5 12C7.5 11.7239 7.72386 11.5 8 11.5L13 11.5C13.2761 11.5 13.5 11.7239 13.5 12C13.5 12.2761 13.2761 12.5 13 12.5L8 12.5C7.72386 12.5 7.5 12.2761 7.5 12Z" stroke="#75DF6C"/>
<path d="M8.5 11C8.5 10.7239 8.72386 10.5 9 10.5L12 10.5C12.2761 10.5 12.5 10.7239 12.5 11C12.5 11.2761 12.2761 11.5 12 11.5L9 11.5C8.72386 11.5 8.5 11.2761 8.5 11Z" stroke="#75DF6C"/>
<path d="M10.5 10C10.5 9.72386 10.7239 9.5 11 9.5C11.2761 9.5 11.5 9.72386 11.5 10C11.5 10.2761 11.2761 10.5 11 10.5C10.7239 10.5 10.5 10.2761 10.5 10Z" stroke="#75DF6C"/>
</svg>
