<svg width="17" height="22" viewBox="0 0 17 22" fill="none" xmlns="http://www.w3.org/2000/svg">
<mask id="path-1-outside-1_408_191" maskUnits="userSpaceOnUse" x="7.49427e-06" y="0.999999" width="16" height="15" fill="black">
<rect fill="white" x="7.49427e-06" y="0.999999" width="16" height="15"/>
<path fill-rule="evenodd" clip-rule="evenodd" d="M11 2C10.4477 2 10 2.44772 10 3L10 4L2.00001 4C1.44772 4 1.00001 4.44771 1.00001 5L1.00001 14C1.00001 14.5523 1.44772 15 2.00001 15L14 15C14.5523 15 15 14.5523 15 14L15 5L15 3C15 2.44772 14.5523 2 14 2L11 2Z"/>
</mask>
<path d="M10 3L11 3L10 3ZM10 4L10 5L11 5L11 4L10 4ZM2.00001 4L2.00001 5L2.00001 4ZM2.00001 15L2.00001 16L2.00001 15ZM14 15L14 14L14 15ZM11 3L11 3L11 1C9.89544 1 9.00001 1.89543 9.00001 3L11 3ZM11 4L11 3L9.00001 3L9.00001 4L11 4ZM2.00001 5L10 5L10 3L2.00001 3L2.00001 5ZM2.00001 5L2.00001 5L2.00001 3C0.89544 3 8.02338e-06 3.89543 7.9751e-06 5L2.00001 5ZM2.00001 14L2.00001 5L7.9751e-06 5L7.5817e-06 14L2.00001 14ZM2.00001 14L2.00001 14L7.5817e-06 14C7.53341e-06 15.1046 0.89544 16 2.00001 16L2.00001 14ZM14 14L2.00001 14L2.00001 16L14 16L14 14ZM14 14L14 14L14 16C15.1046 16 16 15.1046 16 14L14 14ZM14 5L14 14L16 14L16 5L14 5ZM14 3L14 5L16 5L16 3L14 3ZM14 3L14 3L16 3C16 1.89543 15.1046 1 14 1L14 3ZM11 3L14 3L14 1L11 1L11 3Z" fill="#B5B5B5" mask="url(#path-1-outside-1_408_191)"/>
<g filter="url(#filter0_d_408_191)">
<path d="M10.8637 4.79089C11.2034 4.45112 11.7802 4.73947 11.7122 5.21515L10.9004 10.898C10.8421 11.3059 10.3432 11.4722 10.0518 11.1808L7.26278 8.39177L10.8637 4.79089Z" fill="#FFC530"/>
<path d="M5.37327 7.63363C5.43154 7.22574 5.93045 7.05944 6.2218 7.35078L9.01085 10.1398L5.40996 13.7407C5.07019 14.0805 4.49348 13.7921 4.56143 13.3165L5.37327 7.63363Z" fill="#FFC530"/>
</g>
<defs>
<filter id="filter0_d_408_191" x="0.555923" y="4.64276" width="15.1618" height="17.2461" filterUnits="userSpaceOnUse" color-interpolation-filters="sRGB">
<feFlood flood-opacity="0" result="BackgroundImageFix"/>
<feColorMatrix in="SourceAlpha" type="matrix" values="0 0 0 0 0 0 0 0 0 0 0 0 0 0 0 0 0 0 127 0" result="hardAlpha"/>
<feOffset dy="4"/>
<feGaussianBlur stdDeviation="2"/>
<feComposite in2="hardAlpha" operator="out"/>
<feColorMatrix type="matrix" values="0 0 0 0 0 0 0 0 0 0 0 0 0 0 0 0 0 0 0.25 0"/>
<feBlend mode="normal" in2="BackgroundImageFix" result="effect1_dropShadow_408_191"/>
<feBlend mode="normal" in="SourceGraphic" in2="effect1_dropShadow_408_191" result="shape"/>
</filter>
</defs>
</svg>
