<svg width="16" height="16" viewBox="0 0 16 16" fill="none" xmlns="http://www.w3.org/2000/svg">
<g clip-path="url(#clip0_1336_107)">
<mask id="path-1-inside-1_1336_107" fill="white">
<path fill-rule="evenodd" clip-rule="evenodd" d="M4.2 1C4.56931 1 4.90856 1.20355 5.08235 1.52941L5.86667 3H15C15.5523 3 16 3.44772 16 4V14C16 14.5523 15.5523 15 15 15H1C0.447715 15 0 14.5523 0 14V6V4V2C0 1.44772 0.447714 1 0.999999 1H4.2Z"/>
</mask>
<path d="M5.08235 1.52941L4.2 2V2L5.08235 1.52941ZM5.86667 3L4.98431 3.47059L5.26667 4H5.86667V3ZM5.96471 1.05882C5.61712 0.407096 4.93862 0 4.2 0V2V2L5.96471 1.05882ZM6.74902 2.52941L5.96471 1.05882L4.2 2L4.98431 3.47059L6.74902 2.52941ZM15 2H5.86667V4H15V2ZM17 4C17 2.89543 16.1046 2 15 2V4V4H17ZM17 14V4H15V14H17ZM15 16C16.1046 16 17 15.1046 17 14H15V16ZM1 16H15V14H1V16ZM-1 14C-1 15.1046 -0.104569 16 1 16V14H-1ZM-1 6V14H1V6H-1ZM-1 4V6H1V4H-1ZM-1 2V4H1V2H-1ZM0.999999 0C-0.104572 0 -1 0.895432 -1 2H1H0.999999V0ZM4.2 0H0.999999V2H4.2V0Z" fill="#77A570" mask="url(#path-1-inside-1_1336_107)"/>
<path d="M5 9.5H6C6.27614 9.5 6.5 9.72386 6.5 10V11C6.5 11.2761 6.27614 11.5 6 11.5H5C4.72386 11.5 4.5 11.2761 4.5 11V10C4.5 9.72386 4.72386 9.5 5 9.5Z" stroke="#77A570"/>
<path d="M8 6.5H9C9.27614 6.5 9.5 6.72386 9.5 7V8C9.5 8.27614 9.27614 8.5 9 8.5H8C7.72386 8.5 7.5 8.27614 7.5 8V7C7.5 6.72386 7.72386 6.5 8 6.5Z" stroke="#77A570"/>
<path d="M11 9.5H12C12.2761 9.5 12.5 9.72386 12.5 10V11C12.5 11.2761 12.2761 11.5 12 11.5H11C10.7239 11.5 10.5 11.2761 10.5 11V10C10.5 9.72386 10.7239 9.5 11 9.5Z" stroke="#77A570"/>
<mask id="path-6-inside-2_1336_107" fill="white">
<path d="M9 8L9 9.00001L11 11L11 10L9 8Z"/>
</mask>
<path d="M9 8L9 9.00001L11 11L11 10L9 8Z" fill="#77A570"/>
<path d="M9 8L8 8L7.99999 5.58577L9.70711 7.29289L9 8ZM9 9.00001L8.2929 9.70711L8.00001 9.41422L8 9.00001L9 9.00001ZM11 11L12 11L12 13.4142L10.2929 11.7071L11 11ZM11 10L11.7071 9.29291L12 9.58581L12 10L11 10ZM10 8L10 9L8 9.00001L8 8L10 8ZM9.70711 8.2929L11.7071 10.2929L10.2929 11.7071L8.2929 9.70711L9.70711 8.2929ZM10 11L10 10L12 10L12 11L10 11ZM10.2929 10.7071L8.29289 8.70711L9.70711 7.29289L11.7071 9.29291L10.2929 10.7071Z" fill="#77A570" mask="url(#path-6-inside-2_1336_107)"/>
<mask id="path-8-inside-3_1336_107" fill="white">
<path d="M7.99994 8L8 9L6.00005 11L6.00005 10L7.99994 8Z"/>
</mask>
<path d="M7.99994 8L8 9L6.00005 11L6.00005 10L7.99994 8Z" fill="#77A570"/>
<path d="M7.99994 8L8.99994 7.99994L8.9998 5.58582L7.29281 7.29291L7.99994 8ZM8 9L8.70712 9.7071L9.00002 9.41418L9 8.99994L8 9ZM6.00005 11L5.00005 11L5.00005 13.4143L6.70717 11.7071L6.00005 11ZM6.00005 10L5.29292 9.29292L5.00005 9.58581L5.00005 10L6.00005 10ZM6.99994 8.00005L7 9.00006L9 8.99994L8.99994 7.99994L6.99994 8.00005ZM7.29288 8.2929L5.29294 10.2929L6.70717 11.7071L8.70712 9.7071L7.29288 8.2929ZM7.00005 11L7.00005 10L5.00005 10L5.00005 11L7.00005 11ZM6.70718 10.7071L8.70707 8.70708L7.29281 7.29291L5.29292 9.29292L6.70718 10.7071Z" fill="#77A570" mask="url(#path-8-inside-3_1336_107)"/>
</g>
<defs>
<clipPath id="clip0_1336_107">
<rect width="16" height="16" fill="white"/>
</clipPath>
</defs>
</svg>
