<svg width="16" height="16" viewBox="0 0 16 16" fill="none" xmlns="http://www.w3.org/2000/svg">
<mask id="path-1-outside-1_408_235" maskUnits="userSpaceOnUse" x="-6.11959e-07" y="0.999999" width="16" height="15" fill="black">
<rect fill="white" x="-6.11959e-07" y="0.999999" width="16" height="15"/>
<path fill-rule="evenodd" clip-rule="evenodd" d="M11 2C10.4477 2 10 2.44772 10 3L10 4L2 4C1.44772 4 1 4.44771 1 5L0.999999 14C0.999999 14.5523 1.44772 15 2 15L14 15C14.5523 15 15 14.5523 15 14L15 5L15 3C15 2.44772 14.5523 2 14 2L11 2Z"/>
</mask>
<path d="M10 3L11 3L10 3ZM10 4L10 5L11 5L11 4L10 4ZM2 4L2 5L2 5L2 4ZM11 3L11 3L11 1C9.89543 1 9 1.89543 9 3L11 3ZM11 4L11 3L9 3L9 4L11 4ZM2 5L10 5L10 3L2 3L2 5ZM2 5L2 5L2 3C0.895432 3 -8.28519e-08 3.89543 -1.31134e-07 5L2 5ZM2 14L2 5L-1.31134e-07 5L-5.24537e-07 14L2 14ZM2 14L2 14L-5.24537e-07 14C-5.72819e-07 15.1046 0.895432 16 2 16L2 14ZM14 14L2 14L2 16L14 16L14 14ZM14 14L14 14L14 16C15.1046 16 16 15.1046 16 14L14 14ZM14 5L14 14L16 14L16 5L14 5ZM14 3L14 5L16 5L16 3L14 3ZM14 3L14 3L16 3C16 1.89543 15.1046 1 14 1L14 3ZM11 3L14 3L14 1L11 1L11 3Z" fill="#74BCE0" mask="url(#path-1-outside-1_408_235)"/>
<path d="M4.695 7.037C4.73233 6.97167 4.79533 6.92733 4.884 6.904C4.97733 6.876 5.09633 6.862 5.241 6.862C5.39033 6.862 5.50933 6.87833 5.598 6.911C5.68667 6.939 5.74967 6.988 5.787 7.058C5.82433 7.12333 5.84533 7.184 5.85 7.24C5.85933 7.296 5.864 7.37767 5.864 7.485V11.377C5.864 11.559 5.84067 11.6943 5.794 11.783C5.752 11.867 5.68433 11.923 5.591 11.951C5.50233 11.979 5.39033 11.993 5.255 11.993C5.11967 11.993 5.01233 11.9813 4.933 11.958C4.85367 11.9347 4.793 11.9067 4.751 11.874C4.709 11.8413 4.67867 11.7947 4.66 11.734C4.632 11.6547 4.618 11.5333 4.618 11.37V10.516H2.721C2.39433 10.516 2.20067 10.4273 2.14 10.25C2.11667 10.1753 2.105 10.075 2.105 9.949C2.105 9.823 2.112 9.72967 2.126 9.669L2.707 7.324C2.735 7.21667 2.75833 7.135 2.777 7.079C2.80033 7.023 2.84233 6.96933 2.903 6.918C2.96833 6.86667 3.05 6.841 3.148 6.841C3.246 6.841 3.35333 6.85733 3.47 6.89C3.79667 6.97867 3.96 7.128 3.96 7.338C3.96 7.41267 3.94367 7.51067 3.911 7.632C3.90633 7.64133 3.904 7.64833 3.904 7.653L3.477 9.361H4.618V7.45C4.618 7.34267 4.62033 7.26333 4.625 7.212C4.63433 7.16067 4.65767 7.10233 4.695 7.037ZM6.84958 7.464C6.98491 7.27267 7.17391 7.114 7.41658 6.988C7.66391 6.85733 7.94858 6.792 8.27058 6.792C8.59258 6.792 8.87258 6.855 9.11058 6.981C9.35324 7.107 9.54224 7.26333 9.67758 7.45C9.81758 7.63667 9.92958 7.856 10.0136 8.108C10.1536 8.528 10.2236 8.97367 10.2236 9.445C10.2236 10.2897 10.0416 10.9593 9.67758 11.454C9.54224 11.6407 9.35324 11.7947 9.11058 11.916C8.87258 12.0373 8.59491 12.098 8.27758 12.098C7.96024 12.098 7.67791 12.0373 7.43058 11.916C7.18791 11.79 6.99658 11.636 6.85658 11.454C6.72124 11.272 6.60924 11.055 6.52058 10.803C6.38524 10.4017 6.31758 9.94667 6.31758 9.438C6.31758 8.97133 6.37124 8.57233 6.47858 8.241C6.59058 7.90967 6.71424 7.65067 6.84958 7.464ZM8.26358 10.852C8.74424 10.852 8.98458 10.3947 8.98458 9.48V9.438C8.98458 8.5 8.74658 8.031 8.27058 8.031C7.79458 8.031 7.55658 8.50233 7.55658 9.445C7.55658 10.383 7.79224 10.852 8.26358 10.852ZM13.0964 7.037C13.1337 6.97167 13.1967 6.92733 13.2854 6.904C13.3787 6.876 13.4977 6.862 13.6424 6.862C13.7917 6.862 13.9107 6.87833 13.9994 6.911C14.088 6.939 14.151 6.988 14.1884 7.058C14.2257 7.12333 14.2467 7.184 14.2514 7.24C14.2607 7.296 14.2654 7.37767 14.2654 7.485V11.377C14.2654 11.559 14.242 11.6943 14.1954 11.783C14.1534 11.867 14.0857 11.923 13.9924 11.951C13.9037 11.979 13.7917 11.993 13.6564 11.993C13.521 11.993 13.4137 11.9813 13.3344 11.958C13.255 11.9347 13.1944 11.9067 13.1524 11.874C13.1104 11.8413 13.08 11.7947 13.0614 11.734C13.0334 11.6547 13.0194 11.5333 13.0194 11.37V10.516H11.1224C10.7957 10.516 10.602 10.4273 10.5414 10.25C10.518 10.1753 10.5064 10.075 10.5064 9.949C10.5064 9.823 10.5134 9.72967 10.5274 9.669L11.1084 7.324C11.1364 7.21667 11.1597 7.135 11.1784 7.079C11.2017 7.023 11.2437 6.96933 11.3044 6.918C11.3697 6.86667 11.4514 6.841 11.5494 6.841C11.6474 6.841 11.7547 6.85733 11.8714 6.89C12.198 6.97867 12.3614 7.128 12.3614 7.338C12.3614 7.41267 12.345 7.51067 12.3124 7.632C12.3077 7.64133 12.3054 7.64833 12.3054 7.653L11.8784 9.361H13.0194V7.45C13.0194 7.34267 13.0217 7.26333 13.0264 7.212C13.0357 7.16067 13.059 7.10233 13.0964 7.037Z" fill="#DD4D4D"/>
</svg>
