<svg width="16" height="16" viewBox="0 0 16 16" fill="none" xmlns="http://www.w3.org/2000/svg">
<mask id="path-1-outside-1_134_633" maskUnits="userSpaceOnUse" x="-6.11959e-07" y="0.999999" width="16" height="15" fill="black">
<rect fill="white" x="-6.11959e-07" y="0.999999" width="16" height="15"/>
<path fill-rule="evenodd" clip-rule="evenodd" d="M11 2C10.4477 2 10 2.44772 10 3L10 4L2 4C1.44772 4 1 4.44771 1 5L0.999999 14C0.999999 14.5523 1.44772 15 2 15L14 15C14.5523 15 15 14.5523 15 14L15 5L15 3C15 2.44772 14.5523 2 14 2L11 2Z"/>
</mask>
<path d="M10 3L11 3L10 3ZM10 4L10 5L11 5L11 4L10 4ZM2 4L2 5L2 4ZM1 5L-1.31134e-07 5L1 5ZM0.999999 14L2 14L0.999999 14ZM11 3L11 3L11 1C9.89543 1 9 1.89543 9 3L11 3ZM11 4L11 3L9 3L9 4L11 4ZM2 5L10 5L10 3L2 3L2 5ZM2 5L2 5L2 3C0.895431 3 -8.28519e-08 3.89543 -1.31134e-07 5L2 5ZM2 14L2 5L-1.31134e-07 5L-5.24537e-07 14L2 14ZM2 14L2 14L-5.24537e-07 14C-5.72819e-07 15.1046 0.895432 16 2 16L2 14ZM14 14L2 14L2 16L14 16L14 14ZM14 14L14 14L14 16C15.1046 16 16 15.1046 16 14L14 14ZM14 5L14 14L16 14L16 5L14 5ZM14 3L14 5L16 5L16 3L14 3ZM14 3L14 3L16 3C16 1.89543 15.1046 1 14 1L14 3ZM11 3L14 3L14 1L11 1L11 3Z" fill="#B5B5B5" mask="url(#path-1-outside-1_134_633)"/>
<path d="M6.22559 6.871L8.65559 11.893C8.75759 12.097 8.80859 12.25 8.80859 12.352C8.80859 12.568 8.63459 12.763 8.28659 12.937C8.08259 13.039 7.92059 13.09 7.80059 13.09C7.68659 13.09 7.59059 13.063 7.51259 13.009C7.44059 12.955 7.38659 12.898 7.35059 12.838C7.32059 12.778 7.27559 12.688 7.21559 12.568L6.74759 11.596H4.25459L3.78659 12.568C3.72659 12.688 3.67859 12.775 3.64259 12.829C3.61259 12.883 3.55859 12.94 3.48059 13C3.40859 13.054 3.31259 13.081 3.19259 13.081C3.07859 13.081 2.91959 13.03 2.71559 12.928C2.36759 12.76 2.19359 12.568 2.19359 12.352C2.19359 12.25 2.24459 12.097 2.34659 11.893L4.77659 6.862C4.84259 6.724 4.94159 6.613 5.07359 6.529C5.21159 6.445 5.35559 6.403 5.50559 6.403C5.82959 6.403 6.06959 6.559 6.22559 6.871ZM5.49659 9.031L4.90259 10.264H6.09959L5.49659 9.031ZM12.0181 8.761C12.0541 8.425 12.2911 8.257 12.7291 8.257C12.9631 8.257 13.1371 8.275 13.2511 8.311C13.3651 8.347 13.4431 8.41 13.4851 8.5C13.5331 8.59 13.5601 8.671 13.5661 8.743C13.5781 8.809 13.5841 8.911 13.5841 9.049V12.199C13.5841 12.337 13.5781 12.442 13.5661 12.514C13.5601 12.58 13.5361 12.658 13.4941 12.748C13.4101 12.904 13.2031 12.982 12.8731 12.982C12.5491 12.982 12.3301 12.943 12.2161 12.865C12.1081 12.781 12.0451 12.661 12.0271 12.505C11.8051 12.823 11.4331 12.982 10.9111 12.982C10.3951 12.982 9.91508 12.745 9.47108 12.271C9.02708 11.797 8.80508 11.248 8.80508 10.624C8.80508 9.994 9.02708 9.445 9.47108 8.977C9.92108 8.503 10.4131 8.266 10.9471 8.266C11.1511 8.266 11.3371 8.302 11.5051 8.374C11.6731 8.446 11.7901 8.515 11.8561 8.581C11.9221 8.641 11.9761 8.701 12.0181 8.761ZM10.3801 10.633C10.3801 10.831 10.4581 11.011 10.6141 11.173C10.7701 11.329 10.9591 11.407 11.1811 11.407C11.4031 11.407 11.5861 11.326 11.7301 11.164C11.8801 11.002 11.9551 10.825 11.9551 10.633C11.9551 10.435 11.8831 10.252 11.7391 10.084C11.6011 9.916 11.4121 9.832 11.1721 9.832C10.9381 9.832 10.7461 9.916 10.5961 10.084C10.4521 10.252 10.3801 10.435 10.3801 10.633Z" fill="#B5B5B5"/>
</svg>
