<svg width="16" height="16" viewBox="0 0 16 16" fill="none" xmlns="http://www.w3.org/2000/svg">
<mask id="path-1-outside-1_134_577" maskUnits="userSpaceOnUse" x="-6.11959e-07" y="0.999999" width="16" height="15" fill="black">
<rect fill="white" x="-6.11959e-07" y="0.999999" width="16" height="15"/>
<path fill-rule="evenodd" clip-rule="evenodd" d="M11 2C10.4477 2 10 2.44772 10 3L10 4L2 4C1.44772 4 1 4.44771 1 5L0.999999 14C0.999999 14.5523 1.44772 15 2 15L14 15C14.5523 15 15 14.5523 15 14L15 5L15 3C15 2.44772 14.5523 2 14 2L11 2Z"/>
</mask>
<path d="M11 2L11 3L11 2ZM10 4L10 5L11 5L11 4L10 4ZM2 4L2 5L2 4ZM1 5L-1.31134e-07 5L1 5ZM0.999999 14L2 14L0.999999 14ZM15 14L14 14L15 14ZM15 5L16 5L15 5ZM15 3L14 3L15 3ZM14 2L14 1L14 2ZM11 3L11 3L11 1C9.89543 1 9 1.89543 9 3L11 3ZM11 4L11 3L9 3L9 4L11 4ZM2 5L10 5L10 3L2 3L2 5ZM2 5L2 5L2 3C0.895431 3 -8.28519e-08 3.89543 -1.31134e-07 5L2 5ZM2 14L2 5L-1.31134e-07 5L-5.24537e-07 14L2 14ZM2 14L2 14L-5.24537e-07 14C-5.72819e-07 15.1046 0.895432 16 2 16L2 14ZM14 14L2 14L2 16L14 16L14 14ZM14 14L14 14L14 16C15.1046 16 16 15.1046 16 14L14 14ZM14 5L14 14L16 14L16 5L14 5ZM14 3L14 5L16 5L16 3L14 3ZM14 3L14 3L16 3C16 1.89543 15.1046 1 14 1L14 3ZM11 3L14 3L14 1L11 1L11 3Z" fill="#74BCE0" mask="url(#path-1-outside-1_134_577)"/>
<path d="M10.4 5.75C10.7227 6.13133 10.884 6.35867 10.884 6.432C10.884 6.50533 10.8473 6.586 10.774 6.674C10.4293 7.06267 10.026 7.455 9.564 7.851C9.46133 7.939 9.38433 7.983 9.333 7.983C9.25967 7.983 9.223 7.928 9.223 7.818C9.223 7.70067 9.27067 7.54667 9.366 7.356C9.46867 7.16533 9.52 7.05533 9.52 7.026C9.52 6.99667 9.50533 6.982 9.476 6.982C9.454 6.982 9.421 6.98933 9.377 7.004C8.53367 7.30467 7.947 7.77767 7.617 8.423C7.54367 8.56967 7.507 8.69067 7.507 8.786C7.507 8.97667 7.65367 9.15633 7.947 9.325C7.991 9.35433 8.189 9.46067 8.541 9.644C9.25233 10.0253 9.69967 10.3333 9.883 10.568C10.1763 10.9347 10.323 11.294 10.323 11.646C10.323 11.7853 10.2827 11.932 10.202 12.086C10.1287 12.2327 10.0333 12.3427 9.916 12.416C8.67667 13.186 7.573 13.571 6.605 13.571C6.09167 13.571 5.835 13.3363 5.835 12.867C5.835 12.713 5.88633 12.5663 5.989 12.427C5.813 12.3023 5.725 12.1703 5.725 12.031C5.725 11.8843 5.824 11.7377 6.022 11.591C6.49133 11.239 7.24667 11.063 8.288 11.063C8.398 11.063 8.53 11.1033 8.684 11.184C8.838 11.2573 8.96267 11.338 9.058 11.426C9.24133 11.3233 9.333 11.2317 9.333 11.151C9.333 11.0703 9.28533 10.9897 9.19 10.909C9.05067 10.8063 8.79033 10.6707 8.409 10.502C8.035 10.3333 7.79667 10.2197 7.694 10.161C7.386 9.985 7.14767 9.732 6.979 9.402C6.81767 9.072 6.737 8.72367 6.737 8.357C6.737 7.983 6.82867 7.64567 7.012 7.345C7.20267 7.037 7.46667 6.76933 7.804 6.542C8.31733 6.19733 8.959 5.882 9.729 5.596C9.83167 5.56667 9.91233 5.552 9.971 5.552C10.1397 5.552 10.2827 5.618 10.4 5.75ZM8.31 11.844C8.23667 11.8293 8.15233 11.822 8.057 11.822C7.96167 11.822 7.77467 11.866 7.496 11.954C7.22467 12.042 7.089 12.141 7.089 12.251C7.089 12.295 7.11467 12.317 7.166 12.317C7.364 12.317 7.74533 12.1593 8.31 11.844Z" fill="#74BCE0"/>
</svg>
