<svg width="16" height="16" viewBox="0 0 16 16" fill="none" xmlns="http://www.w3.org/2000/svg">
<mask id="path-1-outside-1_134_512" maskUnits="userSpaceOnUse" x="-6.11959e-07" y="0.999999" width="16" height="15" fill="black">
<rect fill="white" x="-6.11959e-07" y="0.999999" width="16" height="15"/>
<path fill-rule="evenodd" clip-rule="evenodd" d="M11 2C10.4477 2 10 2.44772 10 3L10 4L2 4C1.44772 4 1 4.44771 1 5L0.999999 14C0.999999 14.5523 1.44772 15 2 15L14 15C14.5523 15 15 14.5523 15 14L15 5L15 3C15 2.44772 14.5523 2 14 2L11 2Z"/>
</mask>
<path d="M11 2L11 3L11 2ZM10 4L10 5L11 5L11 4L10 4ZM2 4L2 5L2 4ZM1 5L-1.31134e-07 5L1 5ZM0.999999 14L2 14L0.999999 14ZM15 14L14 14L15 14ZM15 5L16 5L15 5ZM15 3L14 3L15 3ZM14 2L14 1L14 2ZM11 3L11 3L11 1C9.89543 1 9 1.89543 9 3L11 3ZM11 4L11 3L9 3L9 4L11 4ZM2 5L10 5L10 3L2 3L2 5ZM2 5L2 5L2 3C0.895431 3 -8.28519e-08 3.89543 -1.31134e-07 5L2 5ZM2 14L2 5L-1.31134e-07 5L-5.24537e-07 14L2 14ZM2 14L2 14L-5.24537e-07 14C-5.72819e-07 15.1046 0.895432 16 2 16L2 14ZM14 14L2 14L2 16L14 16L14 14ZM14 14L14 14L14 16C15.1046 16 16 15.1046 16 14L14 14ZM14 5L14 14L16 14L16 5L14 5ZM14 3L14 5L16 5L16 3L14 3ZM14 3L14 3L16 3C16 1.89543 15.1046 1 14 1L14 3ZM11 3L14 3L14 1L11 1L11 3Z" fill="#FFBE5B" mask="url(#path-1-outside-1_134_512)"/>
<path d="M9.35709 5.90841C8.83451 6.25679 8.75337 6.99856 9.19422 7.44591L10.4731 8.74364C10.8608 9.13704 10.8561 9.77025 10.4627 10.1579L9.21664 11.3855C8.76664 11.8289 8.83761 12.5738 9.36323 12.9242V12.9242C9.75837 13.1876 10.2845 13.1355 10.6203 12.7997L12.3074 11.1127L13.2556 10.1355C13.6254 9.75435 13.6329 9.15059 13.2725 8.7605L12.3074 7.71583L10.6225 6.03095C10.2854 5.69389 9.75371 5.64399 9.35709 5.90841V5.90841Z" fill="#FFBE5B"/>
<path d="M7.39285 5.90841C7.91543 6.25679 7.99657 6.99856 7.55572 7.44591L6.27685 8.74364C5.88916 9.13704 5.89383 9.77025 6.28727 10.1579L7.5333 11.3855C7.9833 11.8289 7.91233 12.5738 7.38671 12.9242V12.9242C6.99157 13.1876 6.46542 13.1355 6.12961 12.7997L4.44258 11.1127L3.49434 10.1355C3.1245 9.75435 3.11709 9.15059 3.47747 8.7605L4.44258 7.71583L6.12745 6.03095C6.46452 5.69389 6.99623 5.64399 7.39285 5.90841V5.90841Z" fill="#FFBE5B"/>
</svg>
