<svg width="16" height="16" viewBox="0 0 16 16" fill="none" xmlns="http://www.w3.org/2000/svg">
<g clip-path="url(#clip0_1333_233)">
<mask id="path-1-inside-1_1333_233" fill="white">
<path fill-rule="evenodd" clip-rule="evenodd" d="M4.2 1C4.56931 1 4.90856 1.20355 5.08235 1.52941L5.86667 3H15C15.5523 3 16 3.44772 16 4V14C16 14.5523 15.5523 15 15 15H1C0.447715 15 0 14.5523 0 14V6V4V2C0 1.44772 0.447714 1 0.999999 1H4.2Z"/>
</mask>
<path d="M5.08235 1.52941L4.2 2V2L5.08235 1.52941ZM5.86667 3L4.98431 3.47059L5.26667 4H5.86667V3ZM5.96471 1.05882C5.61712 0.407096 4.93862 0 4.2 0V2V2L5.96471 1.05882ZM6.74902 2.52941L5.96471 1.05882L4.2 2L4.98431 3.47059L6.74902 2.52941ZM15 2H5.86667V4H15V2ZM17 4C17 2.89543 16.1046 2 15 2V4V4H17ZM17 14V4H15V14H17ZM15 16C16.1046 16 17 15.1046 17 14H15V16ZM1 16H15V14H1V16ZM-1 14C-1 15.1046 -0.104569 16 1 16V14H-1ZM-1 6V14H1V6H-1ZM-1 4V6H1V4H-1ZM-1 2V4H1V2H-1ZM0.999999 0C-0.104572 0 -1 0.895432 -1 2H1H0.999999V0ZM4.2 0H0.999999V2H4.2V0Z" fill="#77A570" mask="url(#path-1-inside-1_1333_233)"/>
<path d="M6.5 7.5C6.77614 7.22386 6.77614 6.77614 6.5 6.5C6.22385 6.22386 5.77614 6.22386 5.5 6.5L3.7071 8.29289C3.31658 8.68342 3.31658 9.31658 3.7071 9.70711L5.5 11.5C5.77614 11.7761 6.22385 11.7761 6.5 11.5C6.77614 11.2239 6.77614 10.7761 6.5 10.5L5.70711 9.70711C5.31658 9.31658 5.31658 8.68342 5.70711 8.29289L6.5 7.5Z" fill="#77A570"/>
<path d="M9.5 7.5C9.22386 7.22386 9.22386 6.77614 9.5 6.5C9.77615 6.22386 10.2239 6.22386 10.5 6.5L12.2929 8.29289C12.6834 8.68342 12.6834 9.31658 12.2929 9.70711L10.5 11.5C10.2239 11.7761 9.77615 11.7761 9.5 11.5C9.22386 11.2239 9.22386 10.7761 9.5 10.5L10.2929 9.70711C10.6834 9.31658 10.6834 8.68342 10.2929 8.29289L9.5 7.5Z" fill="#77A570"/>
</g>
<defs>
<clipPath id="clip0_1333_233">
<rect width="16" height="16" fill="white"/>
</clipPath>
</defs>
</svg>
