<svg width="16" height="16" viewBox="0 0 16 16" fill="none" xmlns="http://www.w3.org/2000/svg">
<mask id="path-1-inside-1_1314_312" fill="white">
<path fill-rule="evenodd" clip-rule="evenodd" d="M4.2 1C4.56931 1 4.90856 1.20355 5.08235 1.52941L5.86667 3H15C15.5523 3 16 3.44772 16 4V14C16 14.5523 15.5523 15 15 15H1C0.447715 15 0 14.5523 0 14V6V4V2C0 1.44772 0.447714 1 0.999999 1H4.2Z"/>
</mask>
<path d="M5.08235 1.52941L4.2 2V2L5.08235 1.52941ZM5.86667 3L4.98431 3.47059L5.26667 4H5.86667V3ZM5.96471 1.05882C5.61712 0.407096 4.93862 0 4.2 0V2V2L5.96471 1.05882ZM6.74902 2.52941L5.96471 1.05882L4.2 2L4.98431 3.47059L6.74902 2.52941ZM15 2H5.86667V4H15V2ZM17 4C17 2.89543 16.1046 2 15 2V4V4H17ZM17 14V4H15V14H17ZM15 16C16.1046 16 17 15.1046 17 14H15V16ZM1 16H15V14H1V16ZM-1 14C-1 15.1046 -0.104569 16 1 16V14H-1ZM-1 6V14H1V6H-1ZM-1 4V6H1V4H-1ZM-1 2V4H1V2H-1ZM0.999999 0C-0.104572 0 -1 0.895432 -1 2H1H0.999999V0ZM4.2 0H0.999999V2H4.2V0Z" fill="#77A570" mask="url(#path-1-inside-1_1314_312)"/>
<path fill-rule="evenodd" clip-rule="evenodd" d="M6.35982 8.20015C6.13182 8.39015 6 8.6716 6 8.96838V9.03162C6 9.3284 6.13182 9.60985 6.35982 9.79985L8.72187 11.7682C8.90158 11.918 9.12812 12 9.36205 12H10C10.5523 12 11 11.5523 11 11V7C11 6.44772 10.5523 6 10 6H9.36205C9.12812 6 8.90158 6.08202 8.72187 6.23178L6.35982 8.20015ZM8.99996 7.49995L6.99997 8.99998L8.99996 10.5L8.99996 7.49995Z" fill="#77A570"/>
<path d="M6 8.5L4 10.5L4.5 11L7 9L6 8.5Z" fill="#77A570"/>
<path d="M6 9.5L4 7.5L4.5 7L7 9L6 9.5Z" fill="#77A570"/>
</svg>
