<svg width="16" height="16" viewBox="0 0 16 16" fill="none" xmlns="http://www.w3.org/2000/svg">
<path fill-rule="evenodd" clip-rule="evenodd" d="M4.99416 5.94946C4.51464 5.852 4.07215 5.61419 3.72518 5.26916C3.2593 4.79938 2.99614 4.16197 3.00004 3.50311C2.99809 3.00994 3.14429 2.52652 3.41914 2.11522C3.69204 1.70392 4.08189 1.38228 4.53803 1.1932C4.99416 1.00217 5.49902 0.951493 5.9844 1.04701C6.46977 1.14252 6.91616 1.38034 7.26703 1.73121C7.61595 2.08208 7.85571 2.52847 7.95123 3.01384C8.04674 3.49921 7.99606 4.00213 7.80503 4.46021C7.61205 4.91244 7.29237 5.3023 6.88497 5.5791C6.61791 5.76233 6.31383 5.88709 5.99609 5.94946L6.02607 7.60778H6.03981L6.07663 9.64465C6.55615 9.74211 6.99864 9.97992 7.34561 10.3249C7.67775 10.6599 7.90685 11.08 8.0096 11.5323H8.84556C9.24322 11.5323 9.62528 11.3744 9.90597 11.0937C10.1867 10.813 10.3446 10.431 10.3446 10.0333L10.3814 7.99645C10.0636 7.93408 9.75956 7.80932 9.49251 7.62609C9.08511 7.34929 8.76543 6.95944 8.57245 6.5072C8.38142 6.04912 8.33073 5.5462 8.42625 5.06083C8.52176 4.57546 8.76153 4.12908 9.11045 3.7782C9.46132 3.42733 9.90771 3.18952 10.3931 3.094C10.8785 2.99849 11.3833 3.04917 11.8394 3.2402C12.2956 3.42928 12.6854 3.75091 12.9583 4.16221C13.2332 4.57351 13.3794 5.05693 13.3774 5.5501C13.3813 6.20896 13.1182 6.84638 12.6523 7.31615C12.3053 7.66118 11.8628 7.89899 11.3833 7.99645L11.3465 10.0333C11.3484 10.3628 11.2841 10.6883 11.1594 10.9904C11.0346 11.2945 10.8494 11.5713 10.6175 11.8033C10.3855 12.0352 10.1087 12.2204 9.80461 12.3452C9.50052 12.4699 9.17499 12.5343 8.84751 12.5323L8.03048 12.5447C7.96976 12.8768 7.84135 13.195 7.65165 13.4789C7.37875 13.8902 6.9889 14.2118 6.53276 14.4009C6.07663 14.5919 5.57177 14.6426 5.08639 14.5471C4.60102 14.4516 4.15463 14.2138 3.80376 13.8629C3.45484 13.512 3.21508 13.0656 3.11956 12.5803C3.02405 12.0949 3.07473 11.592 3.26576 11.1339C3.45874 10.6817 3.77842 10.2918 4.18582 10.015C4.45288 9.83178 4.75696 9.70703 5.0747 9.64465L5.04472 7.98633H5.03098L4.99416 5.94946ZM4.43666 2.44075C4.19105 2.68441 4.03901 3.00604 4.00392 3.35106C3.96884 3.69414 4.0546 4.04111 4.24563 4.32961C4.41327 4.57717 4.64914 4.77209 4.92594 4.88905C5.19884 5.00016 5.49707 5.02745 5.78557 4.96897C6.07601 4.91244 6.34501 4.77015 6.55554 4.55962C6.76606 4.3491 6.90836 4.08205 6.96489 3.78965C7.02337 3.50116 6.99608 3.20292 6.88497 2.93002C6.76801 2.65322 6.57308 2.41736 6.32552 2.24972C6.03703 2.05869 5.692 1.97292 5.34698 2.00801C5.00391 2.04309 4.68033 2.19514 4.43666 2.44075ZM12.3736 5.39806C12.3385 5.05303 12.1864 4.7314 11.9408 4.48774C11.6972 4.24213 11.3736 4.09009 11.0305 4.055C10.6855 4.01991 10.3404 4.10568 10.052 4.29671C9.80439 4.46435 9.60947 4.70021 9.49251 4.97701C9.3814 5.24991 9.35411 5.54815 9.41259 5.83665C9.46912 6.12904 9.61142 6.39609 9.82194 6.60661C10.0325 6.81714 10.3015 6.95944 10.5919 7.01596C10.8804 7.07444 11.1786 7.04715 11.4515 6.93604C11.7283 6.81909 11.9642 6.62416 12.1318 6.3766C12.3229 6.0881 12.4086 5.74113 12.3736 5.39806ZM7.06687 12.243C7.03178 12.5881 6.87974 12.9097 6.63413 13.1534C6.39047 13.399 6.06688 13.551 5.72381 13.5861C5.37879 13.6212 5.03376 13.5354 4.74527 13.3444C4.49771 13.1768 4.30278 12.9409 4.18582 12.6641C4.07471 12.3912 4.04742 12.093 4.1059 11.8045C4.16243 11.5121 4.30473 11.245 4.51525 11.0345C4.72578 10.824 4.99478 10.6817 5.28522 10.6251C5.57372 10.5667 5.87195 10.5939 6.14485 10.7051C6.42165 10.822 6.65752 11.0169 6.82516 11.2645C7.01619 11.553 7.10195 11.9 7.06687 12.243Z" fill="#F7802A"/>
</svg>
