<svg width="16" height="16" viewBox="0 0 16 16" fill="none" xmlns="http://www.w3.org/2000/svg">
<path fill-rule="evenodd" clip-rule="evenodd" d="M0 8C0 3.58172 3.58172 0 8 0C12.4183 0 16 3.58172 16 8C16 12.4183 12.4183 16 8 16C3.58172 16 0 12.4183 0 8ZM11.002 6.49868L11.0295 9.0426C11 15.5426 3 15.5426 3.02946 9.0426L3.0064 6.66064C3.0039 6.40298 3.30598 6.26227 3.50162 6.42996L6.5 9L5.97872 9.02221C5.7111 9.03361 5.49553 9.25593 5.52828 9.52179C5.83238 11.9903 8.48632 11.8306 8.48632 9.0426L8.49394 6.78932C7.61423 6.40217 7 5.52281 7 4.5C7 3.11929 8.11929 2 9.5 2C10.8807 2 12 3.11929 12 4.5C12 5.31701 11.6081 6.04248 11.002 6.49868ZM10.5 4.5C10.5 5.05228 10.0523 5.5 9.5 5.5C8.94771 5.5 8.5 5.05228 8.5 4.5C8.5 3.94772 8.94771 3.5 9.5 3.5C10.0523 3.5 10.5 3.94772 10.5 4.5Z" fill="#FFC530"/>
</svg>
