<svg width="16" height="16" viewBox="0 0 16 16" fill="none" xmlns="http://www.w3.org/2000/svg">
<path fill-rule="evenodd" clip-rule="evenodd" d="M14.9291 6.99999C14.4439 3.6077 11.5265 1 8.00003 1C4.47356 1 1.55615 3.6077 1.07092 6.99999L2.08299 6.99999C2.55907 4.16228 5.02703 2 8.00003 2C10.973 2 13.441 4.16228 13.9171 6.99999L14.9291 6.99999ZM2.34144 9.99999C3.16511 12.3304 5.38759 14 8.00003 14C10.6125 14 12.8349 12.3304 13.6586 9.99999L14.7102 9.99999C13.8496 12.8915 11.1711 15 8.00003 15C4.829 15 2.15045 12.8915 1.28991 9.99999L2.34144 9.99999Z" fill="#C5C5C5"/>
<path d="M8.5 13.5L7.5 13.5L7.5 10.5L8.5 10.5L8.5 13.5Z" stroke="#429BCD"/>
<path fill-rule="evenodd" clip-rule="evenodd" d="M1.2899 10C2.15045 12.8915 4.829 15 8.00002 15C11.171 15 13.8496 12.8915 14.7101 10L12.584 10C11.8124 11.7659 10.0503 13 8.00002 13C5.9497 13 4.18762 11.7659 3.41607 10L1.2899 10Z" fill="#429BCD"/>
<rect x="5.75" y="5.75" width="4.5" height="4.5" rx="2.25" stroke="#429BCD" stroke-width="1.5"/>
</svg>
