<svg width="16" height="16" viewBox="0 0 16 16" fill="none" xmlns="http://www.w3.org/2000/svg">
<path fill-rule="evenodd" clip-rule="evenodd" d="M3.14795 0C1.98726 0 1.07033 0.984758 1.15303 2.14249L1.90482 12.6676C1.96243 13.4742 2.50012 14.1667 3.26728 14.4224L7.36754 15.7892C7.77807 15.926 8.22191 15.926 8.63245 15.7892L12.7327 14.4224C13.4999 14.1667 14.0376 13.4742 14.0952 12.6676L14.847 2.14249C14.9297 0.98476 14.0127 0 12.852 0H3.14795ZM5.90289 5.67895C6.21978 5.35739 6.16528 4.82672 5.78963 4.57629C5.50452 4.38622 5.12489 4.42381 4.8826 4.6661L3.68 5.86871L3.17295 6.41756C2.81257 6.80765 2.81998 7.4114 3.18982 7.79253L3.68 8.29767L4.88633 9.504C5.12645 9.74413 5.50269 9.78138 5.78524 9.59301C6.16109 9.34245 6.21183 8.80983 5.89006 8.49279L5.20206 7.81494C4.80862 7.4273 4.80395 6.79409 5.19164 6.40069L5.90289 5.67895ZM7.81053 3.96593C7.95347 3.43246 8.50181 3.11588 9.03527 3.25882C9.56874 3.40176 9.88532 3.9501 9.74238 4.48356L8.18946 10.2791C8.04652 10.8126 7.49819 11.1292 6.96472 10.9862C6.43125 10.8433 6.11467 10.2949 6.25761 9.76148L7.81053 3.96593ZM10.2872 5.75223C9.97036 5.43066 10.0249 4.9 10.4005 4.64957C10.6856 4.4595 11.0652 4.49709 11.3075 4.73938L12.5101 5.94199L13.0172 6.49083C13.3776 6.88092 13.3702 7.48468 13.0003 7.86581L12.5101 8.37095L11.3038 9.57728C11.0637 9.81741 10.6875 9.85466 10.4049 9.66629C10.029 9.41572 9.9783 8.8831 10.3001 8.56607L10.9881 7.88822C11.3815 7.50058 11.3862 6.86737 10.9985 6.47397L10.2872 5.75223Z" fill="#DB7F3C"/>
</svg>
