<svg width="16" height="16" viewBox="0 0 16 16" fill="none" xmlns="http://www.w3.org/2000/svg">
<path fill-rule="evenodd" clip-rule="evenodd" d="M1 0C0.447715 0 0 0.447715 0 1V15C0 15.5523 0.447715 16 1 16H15C15.5523 16 16 15.5523 16 15V1C16 0.447715 15.5523 0 15 0H1ZM10.866 6.5C10.4811 5.83333 9.51888 5.83333 9.13397 6.5L6.81553 10.5157L5.81088 9.12359C5.41175 8.57054 4.58825 8.57054 4.18912 9.1236L1.8139 12.4148C1.3366 13.0762 1.80917 14 2.62478 14H6.5359H7.37522H13.4641C14.2339 14 14.715 13.1667 14.3301 12.5L10.866 6.5ZM7 5C7 6.10457 6.10457 7 5 7C3.89543 7 3 6.10457 3 5C3 3.89543 3.89543 3 5 3C6.10457 3 7 3.89543 7 5Z" fill="#1A85C1"/>
</svg>
