<svg width="16" height="16" viewBox="0 0 16 16" fill="none" xmlns="http://www.w3.org/2000/svg">
<rect x="9.55508" y="5.32953" width="2.41098" height="6.44188" rx="1" transform="rotate(45 9.55508 5.32953)" fill="#91DA8B"/>
<path d="M4.01156 6.09987C4.53749 5.58855 5.41669 5.79867 5.65459 6.49254L5.79445 6.90048C5.91994 7.2665 5.82301 7.67207 5.54558 7.9418L4.16605 9.283C3.76216 9.67568 3.76216 10.3243 4.16605 10.717L5.54558 12.0582C5.82301 12.3279 5.91994 12.7335 5.79445 13.0995L5.65459 13.5075C5.41669 14.2013 4.53749 14.4115 4.01156 13.9001L0.737481 10.717C0.333585 10.3243 0.333585 9.67568 0.737481 9.283L4.01156 6.09987Z" fill="#D95D5D"/>
<path d="M11.9884 10.9001C11.4625 11.4115 10.5833 11.2013 10.3454 10.5075L10.2056 10.0995C10.0801 9.7335 10.177 9.32793 10.4544 9.0582L11.8339 7.717C12.2378 7.32432 12.2378 6.67568 11.8339 6.28301L10.4544 4.9418C10.177 4.67207 10.0801 4.2665 10.2056 3.90048L10.3454 3.49254C10.5833 2.79867 11.4625 2.58855 11.9884 3.09987L15.2625 6.28301C15.6664 6.67568 15.6664 7.32432 15.2625 7.717L11.9884 10.9001Z" fill="#D95D5D"/>
</svg>
