<svg width="16" height="16" viewBox="0 0 16 16" fill="none" xmlns="http://www.w3.org/2000/svg">
<path d="M4.85588 3.14412C5.38153 2.61847 6.27659 2.82977 6.51167 3.535L6.80456 4.41368C6.92434 4.77302 6.83082 5.16918 6.56298 5.43702L4.70711 7.29289C4.31658 7.68342 4.31658 8.31658 4.70711 8.70711L6.56298 10.563C6.83082 10.8308 6.92434 11.227 6.80456 11.5863L6.51167 12.465C6.27659 13.1702 5.38153 13.3815 4.85588 12.8559L0.707106 8.7071C0.316582 8.31658 0.316583 7.68342 0.707107 7.29289L4.85588 3.14412Z" fill="#77A570"/>
<path d="M11.1441 12.8559C10.6185 13.3815 9.72341 13.1702 9.48833 12.465L9.19544 11.5863C9.07566 11.227 9.16918 10.8308 9.43702 10.563L11.2929 8.70711C11.6834 8.31658 11.6834 7.68342 11.2929 7.29289L9.43702 5.43702C9.16918 5.16918 9.07566 4.77302 9.19544 4.41368L9.48833 3.535C9.72341 2.82977 10.6185 2.61847 11.1441 3.14412L15.2929 7.2929C15.6834 7.68342 15.6834 8.31658 15.2929 8.70711L11.1441 12.8559Z" fill="#77A570"/>
</svg>
