<svg width="16" height="16" viewBox="0 0 16 16" fill="none" xmlns="http://www.w3.org/2000/svg">
<mask id="mask0_811_494" style="mask-type:alpha" maskUnits="userSpaceOnUse" x="0" y="0" width="16" height="16">
<rect x="16" y="16" width="16" height="16" rx="1" transform="rotate(-180 16 16)" fill="#D9D9D9"/>
</mask>
<g mask="url(#mask0_811_494)">
<rect x="12" y="15" width="1" height="11" rx="0.5" transform="rotate(-180 12 15)" fill="#FFC530"/>
<rect x="14" y="17" width="1" height="11" rx="0.5" transform="rotate(-180 14 17)" fill="#FFC530"/>
<rect x="9" y="12" width="2" height="3" rx="1" transform="rotate(-180 9 12)" fill="#FFC530"/>
<path fill-rule="evenodd" clip-rule="evenodd" d="M8 21C10.7614 21 13 18.7614 13 16L13 15C13 12.2386 10.7614 10 8 10C5.23858 10 3 12.2386 3 15L3 16C3 18.7614 5.23858 21 8 21ZM5.5 15C5.77614 15 6 14.7761 6 14.5L6 13.5C6 13.2239 5.77614 13 5.5 13C5.22386 13 5 13.2239 5 13.5L5 14.5C5 14.7761 5.22386 15 5.5 15ZM9 13.5C9 13.7761 8.77614 14 8.5 14L7.5 14C7.22386 14 7 13.7761 7 13.5C7 13.2239 7.22386 13 7.5 13L8.5 13C8.77614 13 9 13.2239 9 13.5ZM10.5 15C10.7761 15 11 14.7761 11 14.5L11 13.5C11 13.2239 10.7761 13 10.5 13C10.2239 13 10 13.2239 10 13.5L10 14.5C10 14.7761 10.2239 15 10.5 15Z" fill="#FFC530"/>
<rect x="3" y="17" width="1" height="11" rx="0.5" transform="rotate(-180 3 17)" fill="#FFC530"/>
<rect x="5" y="15" width="1" height="11" rx="0.5" transform="rotate(-180 5 15)" fill="#FFC530"/>
</g>
</svg>
