<svg width="16" height="16" viewBox="0 0 16 16" fill="none" xmlns="http://www.w3.org/2000/svg">
<rect x="6.75" y="10.75" width="3.5" height="0.5" rx="0.25" transform="rotate(-180 6.75 10.75)" fill="#DDE05F" stroke="#DDE05F" stroke-width="0.5"/>
<rect x="3.25" y="10.75" width="2.5" height="0.5" rx="0.25" transform="rotate(-90 3.25 10.75)" fill="#DDE05F" stroke="#DDE05F" stroke-width="0.5"/>
<rect x="6.25" y="10.75" width="5.5" height="0.5" rx="0.25" transform="rotate(-90 6.25 10.75)" fill="#DDE05F" stroke="#DDE05F" stroke-width="0.5"/>
<rect x="12.6869" y="8.69503" width="3.5" height="0.5" rx="0.25" transform="rotate(-165 12.6869 8.69503)" fill="#DDE05F" stroke="#DDE05F" stroke-width="0.5"/>
<rect x="12.75" y="5.75" width="3.5" height="0.5" rx="0.25" transform="rotate(-180 12.75 5.75)" fill="#DDE05F" stroke="#DDE05F" stroke-width="0.5"/>
<rect x="12.75" y="10.75" width="3.5" height="0.5" rx="0.25" transform="rotate(-180 12.75 10.75)" fill="#DDE05F" stroke="#DDE05F" stroke-width="0.5"/>
<rect x="12.25" y="10.75" width="2.5" height="0.5" rx="0.25" transform="rotate(-90 12.25 10.75)" fill="#DDE05F" stroke="#DDE05F" stroke-width="0.5"/>
<rect x="9.25" y="7.75" width="2.5" height="0.5" rx="0.25" transform="rotate(-90 9.25 7.75)" fill="#DDE05F" stroke="#DDE05F" stroke-width="0.5"/>
<rect x="0.5" y="0.5" width="15" height="15" rx="1.5" stroke="#DDE05F"/>
</svg>
