<svg width="16" height="16" viewBox="0 0 16 16" fill="none" xmlns="http://www.w3.org/2000/svg">
<path fill-rule="evenodd" clip-rule="evenodd" d="M1 0C0.447715 0 0 0.447715 0 1V15C0 15.5523 0.447715 16 1 16H15C15.5523 16 16 15.5523 16 15V1C16 0.447715 15.5523 0 15 0H1ZM6.652 4.288C6.508 4.232 6.28 4.204 5.968 4.204C5.656 4.204 5.408 4.28 5.224 4.432C5.064 4.568 4.984 4.876 4.984 5.356V9.844C4.984 10.188 4.884 10.464 4.684 10.672C4.484 10.88 4.228 10.984 3.916 10.984C3.612 10.984 3.328 10.852 3.064 10.588C2.8 10.324 2.56 10.192 2.344 10.192C2.128 10.192 1.88 10.336 1.6 10.624C1.32 10.912 1.18 11.164 1.18 11.38C1.18 11.588 1.32 11.84 1.6 12.136L1.696 12.232C1.84 12.392 2.096 12.572 2.464 12.772C2.872 13.004 3.34 13.12 3.868 13.12C4.812 13.12 5.588 12.8 6.196 12.16C6.804 11.512 7.108 10.768 7.108 9.928V5.284C7.108 4.972 7.064 4.724 6.976 4.54C6.912 4.42 6.804 4.336 6.652 4.288ZM7.88594 11.08C7.88594 11.28 7.98994 11.508 8.19794 11.764L8.30594 11.896C8.47394 12.136 8.76994 12.384 9.19394 12.64C9.40194 12.776 9.67394 12.892 10.0099 12.988C10.3459 13.076 10.7019 13.12 11.0779 13.12C11.8139 13.12 12.5059 12.908 13.1539 12.484C13.4899 12.268 13.7619 11.964 13.9699 11.572C14.1779 11.172 14.2819 10.712 14.2819 10.192C14.2819 9.672 14.1779 9.236 13.9699 8.884C13.7699 8.524 13.5179 8.272 13.2139 8.128C12.9099 7.984 12.5779 7.864 12.2179 7.768C11.8579 7.664 11.5259 7.588 11.2219 7.54C10.9179 7.492 10.6619 7.4 10.4539 7.264C10.2539 7.128 10.1539 6.952 10.1539 6.736C10.1539 6.512 10.2379 6.34 10.4059 6.22C10.5819 6.092 10.7979 6.028 11.0539 6.028C11.3179 6.028 11.5339 6.08 11.7019 6.184C11.7579 6.224 11.8179 6.276 11.8819 6.34C11.9539 6.404 12.0019 6.444 12.0259 6.46C12.2739 6.62 12.4819 6.7 12.6499 6.7C12.9379 6.7 13.2179 6.5 13.4899 6.1C13.6819 5.82 13.7779 5.6 13.7779 5.44C13.7779 5.28 13.6539 5.084 13.4059 4.852L13.1059 4.624C12.9539 4.496 12.6779 4.372 12.2779 4.252C11.8859 4.124 11.4499 4.06 10.9699 4.06C10.0659 4.06 9.34994 4.324 8.82194 4.852C8.30194 5.372 8.04194 5.984 8.04194 6.688C8.04194 7.2 8.14194 7.64 8.34194 8.008C8.54994 8.368 8.80594 8.632 9.10994 8.8C9.41394 8.968 9.74194 9.116 10.0939 9.244C10.4459 9.364 10.7739 9.452 11.0779 9.508C11.3819 9.564 11.6339 9.656 11.8339 9.784C12.0419 9.904 12.1459 10.056 12.1459 10.24C12.1459 10.848 11.7739 11.152 11.0299 11.152C10.8539 11.152 10.6619 11.092 10.4539 10.972C10.2459 10.844 10.0859 10.712 9.97394 10.576C9.57394 10.176 9.26194 9.976 9.03794 9.976C8.81394 9.976 8.60194 10.072 8.40194 10.264C8.05794 10.6 7.88594 10.872 7.88594 11.08Z" fill="#EEE85F"/>
</svg>
