<svg width="17" height="16" viewBox="0 0 17 16" fill="none" xmlns="http://www.w3.org/2000/svg">
<rect x="12.6869" y="8.69503" width="3.5" height="0.5" rx="0.25" transform="rotate(-165 12.6869 8.69503)" fill="#DDE05F" stroke="#DDE05F" stroke-width="0.5"/>
<rect x="12.75" y="5.75" width="3.5" height="0.5" rx="0.25" transform="rotate(-180 12.75 5.75)" fill="#DDE05F" stroke="#DDE05F" stroke-width="0.5"/>
<rect x="12.75" y="10.75" width="3.5" height="0.5" rx="0.25" transform="rotate(-180 12.75 10.75)" fill="#DDE05F" stroke="#DDE05F" stroke-width="0.5"/>
<rect x="12.25" y="10.75" width="2.5" height="0.5" rx="0.25" transform="rotate(-90 12.25 10.75)" fill="#DDE05F" stroke="#DDE05F" stroke-width="0.5"/>
<rect x="9.25" y="7.75" width="2.5" height="0.5" rx="0.25" transform="rotate(-90 9.25 7.75)" fill="#DDE05F" stroke="#DDE05F" stroke-width="0.5"/>
<rect x="3.25" y="10.75" width="2.5" height="0.5" rx="0.25" transform="rotate(-90 3.25 10.75)" fill="#DDE05F" stroke="#DDE05F" stroke-width="0.5"/>
<rect x="6.25" y="10.75" width="5.5" height="0.5" rx="0.25" transform="rotate(-90 6.25 10.75)" fill="#DDE05F" stroke="#DDE05F" stroke-width="0.5"/>
<rect x="6.75" y="10.75" width="3.5" height="0.5" rx="0.25" transform="rotate(-180 6.75 10.75)" fill="#DDE05F" stroke="#DDE05F" stroke-width="0.5"/>
<path fill-rule="evenodd" clip-rule="evenodd" d="M11 1H2C1.44772 1 1 1.44772 1 2V14C1 14.5523 1.44772 15 2 15H14C14.5523 15 15 14.5523 15 14V5H16V14C16 15.1046 15.1046 16 14 16H2C0.895431 16 0 15.1046 0 14V2C0 0.895431 0.895431 0 2 0H11V1Z" fill="#DDE05F"/>
<rect x="15.5355" y="0.353553" width="0.5" height="4.5" rx="0.25" transform="rotate(45 15.5355 0.353553)" fill="#DDE05F" stroke="#DDE05F" stroke-width="0.5"/>
<rect x="15.8891" y="3.53552" width="0.5" height="4.5" rx="0.25" transform="rotate(135 15.8891 3.53552)" fill="#DDE05F" stroke="#DDE05F" stroke-width="0.5"/>
</svg>
