<svg width="16" height="16" viewBox="0 0 16 16" fill="none" xmlns="http://www.w3.org/2000/svg">
<path fill-rule="evenodd" clip-rule="evenodd" d="M3 2C2.44772 2 2 2.44772 2 3V13C2 13.5523 2.44772 14 3 14H13C13.5523 14 14 13.5523 14 13V3C14 2.44772 13.5523 2 13 2H3ZM6.71 4.74C6.59 4.69333 6.4 4.67 6.14 4.67C5.88 4.67 5.67333 4.73333 5.52 4.86C5.38667 4.97333 5.32 5.23 5.32 5.63V9.37C5.32 9.65667 5.23667 9.88667 5.07 10.06C4.90333 10.2333 4.69 10.32 4.43 10.32C4.17667 10.32 3.94 10.21 3.72 9.99C3.5 9.77 3.3 9.66 3.12 9.66C2.94 9.66 2.73333 9.78 2.5 10.02C2.26667 10.26 2.15 10.47 2.15 10.65C2.15 10.8233 2.26667 11.0333 2.5 11.28L2.58 11.36C2.7 11.4933 2.91333 11.6433 3.22 11.81C3.56 12.0033 3.95 12.1 4.39 12.1C5.17667 12.1 5.82333 11.8333 6.33 11.3C6.83667 10.76 7.09 10.14 7.09 9.44V5.57C7.09 5.31 7.05333 5.10333 6.98 4.95C6.92667 4.85 6.83667 4.78 6.71 4.74ZM7.73828 10.4C7.73828 10.5667 7.82495 10.7567 7.99828 10.97L8.08828 11.08C8.22828 11.28 8.47495 11.4867 8.82828 11.7C9.00161 11.8133 9.22828 11.91 9.50828 11.99C9.78828 12.0633 10.0849 12.1 10.3983 12.1C11.0116 12.1 11.5883 11.9233 12.1283 11.57C12.4083 11.39 12.6349 11.1367 12.8083 10.81C12.9816 10.4767 13.0683 10.0933 13.0683 9.66C13.0683 9.22667 12.9816 8.86333 12.8083 8.57C12.6416 8.27 12.4316 8.06 12.1783 7.94C11.9249 7.82 11.6483 7.72 11.3483 7.64C11.0483 7.55333 10.7716 7.49 10.5183 7.45C10.2649 7.41 10.0516 7.33333 9.87828 7.22C9.71161 7.10667 9.62828 6.96 9.62828 6.78C9.62828 6.59333 9.69828 6.45 9.83828 6.35C9.98495 6.24333 10.1649 6.19 10.3783 6.19C10.5983 6.19 10.7783 6.23333 10.9183 6.32C10.9649 6.35333 11.0149 6.39667 11.0683 6.45C11.1283 6.50333 11.1683 6.53667 11.1883 6.55C11.3949 6.68333 11.5683 6.75 11.7083 6.75C11.9483 6.75 12.1816 6.58333 12.4083 6.25C12.5683 6.01667 12.6483 5.83333 12.6483 5.7C12.6483 5.56667 12.5449 5.40333 12.3383 5.21L12.0883 5.02C11.9616 4.91333 11.7316 4.81 11.3983 4.71C11.0716 4.60333 10.7083 4.55 10.3083 4.55C9.55495 4.55 8.95828 4.77 8.51828 5.21C8.08495 5.64333 7.86828 6.15333 7.86828 6.74C7.86828 7.16667 7.95161 7.53333 8.11828 7.84C8.29161 8.14 8.50495 8.36 8.75828 8.5C9.01161 8.64 9.28495 8.76333 9.57828 8.87C9.87161 8.97 10.1449 9.04333 10.3983 9.09C10.6516 9.13667 10.8616 9.21333 11.0283 9.32C11.2016 9.42 11.2883 9.54667 11.2883 9.7C11.2883 10.2067 10.9783 10.46 10.3583 10.46C10.2116 10.46 10.0516 10.41 9.87828 10.31C9.70495 10.2033 9.57161 10.0933 9.47828 9.98C9.14495 9.64667 8.88495 9.48 8.69828 9.48C8.51161 9.48 8.33495 9.56 8.16828 9.72C7.88161 10 7.73828 10.2267 7.73828 10.4Z" fill="#EEE85F"/>
<rect x="0.5" y="0.5" width="15" height="15" rx="0.5" stroke="#EEE85F" stroke-linecap="square" stroke-dasharray="3 3"/>
</svg>
