<svg width="16" height="16" viewBox="0 0 16 16" fill="none" xmlns="http://www.w3.org/2000/svg">
<mask id="path-1-inside-1_128_208" fill="white">
<path fill-rule="evenodd" clip-rule="evenodd" d="M16 8C16 12.4183 12.4183 16 8 16C3.58172 16 0 12.4183 0 8C0 3.58172 3.58172 0 8 0C12.4183 0 16 3.58172 16 8ZM13.9297 7C13.6641 7 13.4414 6.96289 13.2617 6.88867C13.0781 6.81055 12.9258 6.70703 12.8047 6.57812C12.6836 6.44531 12.5859 6.29297 12.5117 6.12109C12.4336 5.94531 12.3691 5.75977 12.3184 5.56445C12.2637 5.36914 12.2148 5.16797 12.1719 4.96094C12.125 4.75391 12.0723 4.55273 12.0137 4.35742C11.9512 4.16211 11.875 3.97852 11.7852 3.80664C11.6914 3.63086 11.5723 3.47852 11.4277 3.34961C11.2832 3.2168 11.1035 3.11328 10.8887 3.03906C10.6738 2.96094 10.4141 2.92188 10.1094 2.92188C9.88281 2.92188 9.64648 2.93164 9.40039 2.95117C9.1543 2.9668 8.89648 2.99609 8.62695 3.03906V5.10156C8.89648 5.10156 9.11328 5.14062 9.27734 5.21875C9.44141 5.29297 9.57031 5.39258 9.66406 5.51758C9.75391 5.64258 9.81836 5.78711 9.85742 5.95117C9.89648 6.11133 9.92773 6.2793 9.95117 6.45508L10.0098 6.98242C10.0254 7.1543 10.0605 7.31445 10.1152 7.46289C10.166 7.61133 10.2441 7.74023 10.3496 7.84961C10.4512 7.95898 10.5977 8.03711 10.7891 8.08398C10.5977 8.13086 10.4512 8.20898 10.3496 8.31836C10.2441 8.42773 10.166 8.55664 10.1152 8.70508C10.0605 8.85352 10.0234 9.01562 10.0039 9.19141C9.98438 9.36328 9.96484 9.53711 9.94531 9.71289C9.92578 9.88867 9.89648 10.0586 9.85742 10.2227C9.81836 10.3828 9.75391 10.5254 9.66406 10.6504C9.57031 10.7754 9.44141 10.875 9.27734 10.9492C9.11328 11.0234 8.89648 11.0605 8.62695 11.0605V13.123C8.89648 13.166 9.1543 13.1953 9.40039 13.2109C9.64648 13.2305 9.88281 13.2402 10.1094 13.2402C10.4922 13.2402 10.8047 13.1816 11.0469 13.0645C11.2852 12.9473 11.4785 12.793 11.627 12.6016C11.7715 12.4102 11.8828 12.1934 11.9609 11.9512C12.0391 11.7051 12.1094 11.4551 12.1719 11.2012C12.2305 10.9473 12.293 10.6992 12.3594 10.457C12.4258 10.2109 12.5195 9.99219 12.6406 9.80078C12.7617 9.60938 12.9238 9.45508 13.127 9.33789C13.3301 9.2207 13.5977 9.16211 13.9297 9.16211V7ZM2.73828 6.88867C2.55859 6.96289 2.33594 7 2.07031 7V9.16211C2.40234 9.16211 2.66992 9.2207 2.87305 9.33789C3.07617 9.45508 3.23828 9.60938 3.35938 9.80078C3.48047 9.99219 3.57422 10.2109 3.64062 10.457C3.70703 10.6992 3.76953 10.9473 3.82812 11.2012C3.89062 11.4551 3.96094 11.7051 4.03906 11.9512C4.11719 12.1934 4.22852 12.4102 4.37305 12.6016C4.52148 12.793 4.71484 12.9473 4.95312 13.0645C5.19531 13.1816 5.50781 13.2402 5.89062 13.2402C6.11719 13.2402 6.35352 13.2305 6.59961 13.2109C6.8457 13.1953 7.10352 13.166 7.37305 13.123V11.0605C7.10352 11.0605 6.88672 11.0234 6.72266 10.9492C6.55859 10.875 6.42969 10.7754 6.33594 10.6504C6.24609 10.5254 6.18164 10.3828 6.14258 10.2227C6.10352 10.0586 6.07422 9.88867 6.05469 9.71289C6.03516 9.53711 6.01562 9.36328 5.99609 9.19141C5.97656 9.01562 5.93945 8.85352 5.88477 8.70508C5.83398 8.55664 5.75586 8.42773 5.65039 8.31836C5.54883 8.20898 5.40234 8.13086 5.21094 8.08398C5.40234 8.03711 5.54883 7.95898 5.65039 7.84961C5.75586 7.74023 5.83398 7.61133 5.88477 7.46289C5.93945 7.31445 5.97461 7.1543 5.99023 6.98242L6.04883 6.45508C6.07227 6.2793 6.10352 6.11133 6.14258 5.95117C6.18164 5.78711 6.24609 5.64258 6.33594 5.51758C6.42969 5.39258 6.55859 5.29297 6.72266 5.21875C6.88672 5.14062 7.10352 5.10156 7.37305 5.10156V3.03906C7.10352 2.99609 6.8457 2.9668 6.59961 2.95117C6.35352 2.93164 6.11719 2.92188 5.89062 2.92188C5.58594 2.92188 5.32617 2.96094 5.11133 3.03906C4.89648 3.11328 4.7168 3.2168 4.57227 3.34961C4.42773 3.47852 4.30859 3.63086 4.21484 3.80664C4.125 3.97852 4.04883 4.16211 3.98633 4.35742C3.92773 4.55273 3.875 4.75391 3.82812 4.96094C3.78516 5.16797 3.73633 5.36914 3.68164 5.56445C3.63086 5.75977 3.56641 5.94531 3.48828 6.12109C3.41406 6.29297 3.31641 6.44531 3.19531 6.57812C3.07422 6.70703 2.92188 6.81055 2.73828 6.88867Z"/>
</mask>
<path fill-rule="evenodd" clip-rule="evenodd" d="M16 8C16 12.4183 12.4183 16 8 16C3.58172 16 0 12.4183 0 8C0 3.58172 3.58172 0 8 0C12.4183 0 16 3.58172 16 8ZM13.9297 7C13.6641 7 13.4414 6.96289 13.2617 6.88867C13.0781 6.81055 12.9258 6.70703 12.8047 6.57812C12.6836 6.44531 12.5859 6.29297 12.5117 6.12109C12.4336 5.94531 12.3691 5.75977 12.3184 5.56445C12.2637 5.36914 12.2148 5.16797 12.1719 4.96094C12.125 4.75391 12.0723 4.55273 12.0137 4.35742C11.9512 4.16211 11.875 3.97852 11.7852 3.80664C11.6914 3.63086 11.5723 3.47852 11.4277 3.34961C11.2832 3.2168 11.1035 3.11328 10.8887 3.03906C10.6738 2.96094 10.4141 2.92188 10.1094 2.92188C9.88281 2.92188 9.64648 2.93164 9.40039 2.95117C9.1543 2.9668 8.89648 2.99609 8.62695 3.03906V5.10156C8.89648 5.10156 9.11328 5.14062 9.27734 5.21875C9.44141 5.29297 9.57031 5.39258 9.66406 5.51758C9.75391 5.64258 9.81836 5.78711 9.85742 5.95117C9.89648 6.11133 9.92773 6.2793 9.95117 6.45508L10.0098 6.98242C10.0254 7.1543 10.0605 7.31445 10.1152 7.46289C10.166 7.61133 10.2441 7.74023 10.3496 7.84961C10.4512 7.95898 10.5977 8.03711 10.7891 8.08398C10.5977 8.13086 10.4512 8.20898 10.3496 8.31836C10.2441 8.42773 10.166 8.55664 10.1152 8.70508C10.0605 8.85352 10.0234 9.01562 10.0039 9.19141C9.98438 9.36328 9.96484 9.53711 9.94531 9.71289C9.92578 9.88867 9.89648 10.0586 9.85742 10.2227C9.81836 10.3828 9.75391 10.5254 9.66406 10.6504C9.57031 10.7754 9.44141 10.875 9.27734 10.9492C9.11328 11.0234 8.89648 11.0605 8.62695 11.0605V13.123C8.89648 13.166 9.1543 13.1953 9.40039 13.2109C9.64648 13.2305 9.88281 13.2402 10.1094 13.2402C10.4922 13.2402 10.8047 13.1816 11.0469 13.0645C11.2852 12.9473 11.4785 12.793 11.627 12.6016C11.7715 12.4102 11.8828 12.1934 11.9609 11.9512C12.0391 11.7051 12.1094 11.4551 12.1719 11.2012C12.2305 10.9473 12.293 10.6992 12.3594 10.457C12.4258 10.2109 12.5195 9.99219 12.6406 9.80078C12.7617 9.60938 12.9238 9.45508 13.127 9.33789C13.3301 9.2207 13.5977 9.16211 13.9297 9.16211V7ZM2.73828 6.88867C2.55859 6.96289 2.33594 7 2.07031 7V9.16211C2.40234 9.16211 2.66992 9.2207 2.87305 9.33789C3.07617 9.45508 3.23828 9.60938 3.35938 9.80078C3.48047 9.99219 3.57422 10.2109 3.64062 10.457C3.70703 10.6992 3.76953 10.9473 3.82812 11.2012C3.89062 11.4551 3.96094 11.7051 4.03906 11.9512C4.11719 12.1934 4.22852 12.4102 4.37305 12.6016C4.52148 12.793 4.71484 12.9473 4.95312 13.0645C5.19531 13.1816 5.50781 13.2402 5.89062 13.2402C6.11719 13.2402 6.35352 13.2305 6.59961 13.2109C6.8457 13.1953 7.10352 13.166 7.37305 13.123V11.0605C7.10352 11.0605 6.88672 11.0234 6.72266 10.9492C6.55859 10.875 6.42969 10.7754 6.33594 10.6504C6.24609 10.5254 6.18164 10.3828 6.14258 10.2227C6.10352 10.0586 6.07422 9.88867 6.05469 9.71289C6.03516 9.53711 6.01562 9.36328 5.99609 9.19141C5.97656 9.01562 5.93945 8.85352 5.88477 8.70508C5.83398 8.55664 5.75586 8.42773 5.65039 8.31836C5.54883 8.20898 5.40234 8.13086 5.21094 8.08398C5.40234 8.03711 5.54883 7.95898 5.65039 7.84961C5.75586 7.74023 5.83398 7.61133 5.88477 7.46289C5.93945 7.31445 5.97461 7.1543 5.99023 6.98242L6.04883 6.45508C6.07227 6.2793 6.10352 6.11133 6.14258 5.95117C6.18164 5.78711 6.24609 5.64258 6.33594 5.51758C6.42969 5.39258 6.55859 5.29297 6.72266 5.21875C6.88672 5.14062 7.10352 5.10156 7.37305 5.10156V3.03906C7.10352 2.99609 6.8457 2.9668 6.59961 2.95117C6.35352 2.93164 6.11719 2.92188 5.89062 2.92188C5.58594 2.92188 5.32617 2.96094 5.11133 3.03906C4.89648 3.11328 4.7168 3.2168 4.57227 3.34961C4.42773 3.47852 4.30859 3.63086 4.21484 3.80664C4.125 3.97852 4.04883 4.16211 3.98633 4.35742C3.92773 4.55273 3.875 4.75391 3.82812 4.96094C3.78516 5.16797 3.73633 5.36914 3.68164 5.56445C3.63086 5.75977 3.56641 5.94531 3.48828 6.12109C3.41406 6.29297 3.31641 6.44531 3.19531 6.57812C3.07422 6.70703 2.92188 6.81055 2.73828 6.88867Z" fill="#E08C2A"/>
<path d="M13.2617 6.88867L12.4786 8.72898L12.4884 8.73314L12.4982 8.7372L13.2617 6.88867ZM13.9297 7H15.9297V5H13.9297V7ZM12.8047 6.57812L11.3268 7.92563L11.3368 7.93663L11.347 7.94748L12.8047 6.57812ZM12.5117 6.12109L14.3478 5.32822L14.3436 5.3185L14.3393 5.30882L12.5117 6.12109ZM12.3184 5.56445L14.254 5.06119L14.2493 5.04314L14.2443 5.02519L12.3184 5.56445ZM12.1719 4.96094L14.1301 4.5545L14.1265 4.53686L14.1225 4.51929L12.1719 4.96094ZM12.0137 4.35742L13.9293 3.78273L13.9241 3.76525L13.9185 3.74787L12.0137 4.35742ZM11.7852 3.80664L13.5576 2.88013L13.5538 2.87278L13.5499 2.86546L11.7852 3.80664ZM11.4277 3.34961L10.0745 4.82226L10.0854 4.83231L10.0965 4.8422L11.4277 3.34961ZM10.8887 3.03906L10.2052 4.91865L10.2204 4.92417L10.2356 4.92944L10.8887 3.03906ZM9.40039 2.95117L9.52712 4.94715L9.54288 4.94615L9.55862 4.9449L9.40039 2.95117ZM8.62695 3.03906L8.31209 1.064L6.62695 1.33265V3.03906H8.62695ZM8.62695 5.10156H6.62695V7.10156H8.62695V5.10156ZM9.27734 5.21875L8.41748 7.02447L8.43516 7.03289L8.45301 7.04097L9.27734 5.21875ZM9.66406 5.51758L11.2881 4.35031L11.2762 4.33382L11.2641 4.31758L9.66406 5.51758ZM9.85742 5.95117L7.91178 6.41442L7.91438 6.42508L9.85742 5.95117ZM9.95117 6.45508L11.9389 6.23422L11.9365 6.21245L11.9336 6.19075L9.95117 6.45508ZM10.0098 6.98242L12.0016 6.80135L11.9997 6.78143L11.9975 6.76156L10.0098 6.98242ZM10.1152 7.46289L12.0076 6.81552L12 6.79341L11.9919 6.77148L10.1152 7.46289ZM10.3496 7.84961L11.8152 6.48871L11.8024 6.4749L11.7893 6.46134L10.3496 7.84961ZM10.7891 8.08398L11.2648 10.0266V6.14139L10.7891 8.08398ZM10.3496 8.31836L11.7893 9.70663L11.8024 9.69307L11.8152 9.67926L10.3496 8.31836ZM10.1152 8.70508L11.9919 9.39649L12 9.37456L12.0076 9.35245L10.1152 8.70508ZM10.0039 9.19141L11.9911 9.41723L11.9917 9.41227L10.0039 9.19141ZM9.85742 10.2227L11.8005 10.6966L11.803 10.6859L9.85742 10.2227ZM9.66406 10.6504L11.2641 11.8504L11.2762 11.8341L11.2881 11.8177L9.66406 10.6504ZM8.62695 11.0605V9.06055H6.62695V11.0605H8.62695ZM8.62695 13.123H6.62695V14.8295L8.31209 15.0981L8.62695 13.123ZM9.40039 13.2109L9.55862 11.2172L9.54288 11.216L9.52712 11.215L9.40039 13.2109ZM11.0469 13.0645L11.918 14.8648L11.9295 14.8592L11.0469 13.0645ZM11.627 12.6016L13.2074 13.8272L13.2153 13.817L13.223 13.8068L11.627 12.6016ZM11.9609 11.9512L13.8644 12.5652L13.8672 12.5563L11.9609 11.9512ZM12.1719 11.2012L14.1139 11.6792L14.1174 11.6651L14.1207 11.6509L12.1719 11.2012ZM12.3594 10.457L14.2882 10.9859L14.2903 10.9781L12.3594 10.457ZM13.9297 9.16211V11.1621H15.9297V9.16211H13.9297ZM2.07031 7V5H0.0703125V7H2.07031ZM2.73828 6.88867L3.5018 8.7372L3.51162 8.73314L3.52139 8.72898L2.73828 6.88867ZM2.07031 9.16211H0.0703125V11.1621H2.07031V9.16211ZM3.64062 10.457L1.70967 10.9781L1.71182 10.9859L3.64062 10.457ZM3.82812 11.2012L1.87934 11.6509L1.88262 11.6651L1.8861 11.6792L3.82812 11.2012ZM4.03906 11.9512L2.13279 12.5563L2.13565 12.5652L4.03906 11.9512ZM4.37305 12.6016L2.77696 13.8068L2.78472 13.817L2.79261 13.8272L4.37305 12.6016ZM4.95312 13.0645L4.07047 14.8592L4.082 14.8648L4.95312 13.0645ZM6.59961 13.2109L6.47288 11.215L6.45712 11.216L6.44138 11.2172L6.59961 13.2109ZM7.37305 13.123L7.68791 15.0981L9.37305 14.8295V13.123H7.37305ZM7.37305 11.0605H9.37305V9.06055H7.37305V11.0605ZM6.33594 10.6504L4.71191 11.8177L4.72376 11.8341L4.73594 11.8504L6.33594 10.6504ZM6.14258 10.2227L4.19694 10.6859L4.19954 10.6966L6.14258 10.2227ZM5.99609 9.19141L4.00832 9.41227L4.00888 9.41723L5.99609 9.19141ZM5.88477 8.70508L3.99244 9.35245L4 9.37456L4.00808 9.39649L5.88477 8.70508ZM5.65039 8.31836L4.1848 9.67926L4.19762 9.69307L4.2107 9.70663L5.65039 8.31836ZM5.21094 8.08398L4.7352 6.14139V10.0266L5.21094 8.08398ZM5.65039 7.84961L4.2107 6.46134L4.19762 6.4749L4.1848 6.48871L5.65039 7.84961ZM5.88477 7.46289L4.00808 6.77148L4 6.79341L3.99244 6.81552L5.88477 7.46289ZM5.99023 6.98242L4.00247 6.76156L4.00026 6.78143L3.99845 6.80135L5.99023 6.98242ZM6.04883 6.45508L4.06637 6.19075L4.06348 6.21245L4.06106 6.23422L6.04883 6.45508ZM6.14258 5.95117L8.08565 6.42509L8.08819 6.41441L6.14258 5.95117ZM6.33594 5.51758L4.73594 4.31758L4.72376 4.33382L4.71191 4.35031L6.33594 5.51758ZM6.72266 5.21875L7.54699 7.04097L7.56484 7.03289L7.58252 7.02447L6.72266 5.21875ZM7.37305 5.10156V7.10156H9.37305V5.10156H7.37305ZM7.37305 3.03906H9.37305V1.33265L7.68791 1.064L7.37305 3.03906ZM6.59961 2.95117L6.44138 4.9449L6.45712 4.94615L6.47288 4.94715L6.59961 2.95117ZM5.11133 3.03906L5.76437 4.92944L5.77963 4.92417L5.79481 4.91865L5.11133 3.03906ZM4.57227 3.34961L5.9035 4.8422L5.91458 4.83231L5.92552 4.82226L4.57227 3.34961ZM4.21484 3.80664L2.45014 2.86546L2.44623 2.87278L2.44239 2.88013L4.21484 3.80664ZM3.98633 4.35742L2.08148 3.74787L2.07592 3.76525L2.07068 3.78273L3.98633 4.35742ZM3.82812 4.96094L1.8775 4.51929L1.87352 4.53686L1.86986 4.5545L3.82812 4.96094ZM3.68164 5.56445L1.75571 5.02519L1.75069 5.04314L1.746 5.06119L3.68164 5.56445ZM3.48828 6.12109L1.66066 5.30882L1.65636 5.3185L1.65216 5.32822L3.48828 6.12109ZM3.19531 6.57812L4.65301 7.94748L4.6632 7.93663L4.67322 7.92563L3.19531 6.57812ZM8 18C13.5228 18 18 13.5228 18 8H14C14 11.3137 11.3137 14 8 14V18ZM-2 8C-2 13.5228 2.47715 18 8 18V14C4.68629 14 2 11.3137 2 8H-2ZM8 -2C2.47715 -2 -2 2.47715 -2 8H2C2 4.68629 4.68629 2 8 2V-2ZM18 8C18 2.47715 13.5228 -2 8 -2V2C11.3137 2 14 4.68629 14 8H18ZM12.4982 8.7372C12.9912 8.94082 13.492 9 13.9297 9V5C13.8883 5 13.8779 4.99699 13.8923 4.99938C13.9068 5.0018 13.9551 5.01117 14.0252 5.04015L12.4982 8.7372ZM11.347 7.94748C11.6808 8.3028 12.0726 8.55622 12.4786 8.72898L14.0448 5.04836C14.0836 5.06487 14.1708 5.11127 14.2624 5.20877L11.347 7.94748ZM10.6756 6.91397C10.834 7.28073 11.0502 7.62231 11.3268 7.92563L14.2826 5.23062C14.317 5.26831 14.3379 5.30521 14.3478 5.32822L10.6756 6.91397ZM10.3827 6.06772C10.4597 6.36366 10.5595 6.65296 10.6841 6.93337L14.3393 5.30882C14.3077 5.23767 14.2786 5.15587 14.254 5.06119L10.3827 6.06772ZM10.2136 5.36737C10.2654 5.61715 10.3249 5.8627 10.3924 6.10371L14.2443 5.02519C14.2024 4.87558 14.1642 4.71878 14.1301 4.5545L10.2136 5.36737ZM10.098 4.93212C10.1429 5.08175 10.1841 5.23848 10.2212 5.40259L14.1225 4.51929C14.0659 4.26934 14.0016 4.02372 13.9293 3.78273L10.098 4.93212ZM10.0127 4.73315C10.0465 4.79774 10.0793 4.8747 10.1088 4.96697L13.9185 3.74787C13.823 3.44952 13.7035 3.15929 13.5576 2.88013L10.0127 4.73315ZM10.0965 4.8422C10.0799 4.82738 10.0641 4.81052 10.0501 4.79262C10.0361 4.77479 10.0265 4.75912 10.0205 4.74782L13.5499 2.86546C13.3485 2.48784 13.0844 2.14727 12.759 1.85702L10.0965 4.8422ZM10.2356 4.92944C10.2315 4.92803 10.1616 4.90236 10.0745 4.82226L12.781 1.87695C12.4048 1.53123 11.9755 1.29853 11.5417 1.14868L10.2356 4.92944ZM10.1094 4.92188C10.1775 4.92188 10.218 4.92633 10.2353 4.92894C10.2526 4.93153 10.2397 4.93122 10.2052 4.91865L11.5722 1.15948C11.0789 0.980097 10.5743 0.921875 10.1094 0.921875V4.92188ZM9.55862 4.9449C9.75669 4.92918 9.94006 4.92188 10.1094 4.92188V0.921875C9.82557 0.921875 9.53627 0.934098 9.24216 0.957441L9.55862 4.9449ZM8.94182 5.01412C9.1555 4.98006 9.35027 4.95838 9.52712 4.94715L9.27366 0.955191C8.95832 0.975213 8.63747 1.01213 8.31209 1.064L8.94182 5.01412ZM10.627 5.10156V3.03906H6.62695V5.10156H10.627ZM10.1372 3.41303C9.60666 3.16039 9.06221 3.10156 8.62695 3.10156V7.10156C8.66806 7.10156 8.66817 7.10477 8.63705 7.09916C8.60621 7.09361 8.52558 7.07595 8.41748 7.02447L10.1372 3.41303ZM11.2641 4.31758C10.9393 3.88457 10.5254 3.5882 10.1017 3.39653L8.45301 7.04097C8.35746 6.99774 8.20132 6.90059 8.06406 6.71758L11.2641 4.31758ZM11.803 5.48793C11.7094 5.09481 11.5439 4.7062 11.2881 4.35031L8.04003 6.68485C7.96392 6.57895 7.92728 6.47941 7.91181 6.41441L11.803 5.48793ZM11.9336 6.19075C11.9015 5.94971 11.8576 5.71149 11.8005 5.47726L7.91438 6.42508C7.93538 6.51117 7.95398 6.60889 7.96872 6.71941L11.9336 6.19075ZM11.9975 6.76156L11.9389 6.23422L7.9634 6.67594L8.022 7.20328L11.9975 6.76156ZM11.9919 6.77148C11.9973 6.78599 12.0001 6.79677 12.0013 6.80263C12.0026 6.80839 12.0022 6.80832 12.0016 6.80135L8.01798 7.16349C8.04803 7.49408 8.11809 7.82735 8.23855 8.1543L11.9919 6.77148ZM11.7893 6.46134C11.8938 6.56974 11.9667 6.69609 12.0076 6.81552L8.22291 8.11027C8.36532 8.52657 8.59445 8.91072 8.90992 9.23788L11.7893 6.46134ZM11.2648 6.14139C11.3337 6.15825 11.5779 6.23313 11.8152 6.48871L8.88402 9.21051C9.32447 9.68484 9.86166 9.91597 10.3133 10.0266L11.2648 6.14139ZM11.8152 9.67926C11.5779 9.93484 11.3337 10.0097 11.2648 10.0266L10.3133 6.14139C9.86166 6.252 9.32447 6.48313 8.88402 6.95746L11.8152 9.67926ZM12.0076 9.35245C11.9667 9.47188 11.8938 9.59822 11.7893 9.70663L8.90992 6.93009C8.59445 7.25724 8.36532 7.6414 8.22291 8.0577L12.0076 9.35245ZM11.9917 9.41227C11.9954 9.37863 11.9993 9.37652 11.9919 9.39649L8.23855 8.01367C8.12182 8.33051 8.05146 8.65262 8.01614 8.97054L11.9917 9.41227ZM11.9331 9.93375C11.9524 9.75959 11.9718 9.58741 11.9911 9.41723L8.0167 8.96559C7.99697 9.13915 7.97726 9.31463 7.95754 9.49203L11.9331 9.93375ZM11.803 10.6859C11.862 10.4382 11.9049 10.1872 11.9331 9.93375L7.95754 9.49203C7.94664 9.59016 7.93096 9.67897 7.91181 9.75942L11.803 10.6859ZM11.2881 11.8177C11.5382 11.4697 11.7049 11.0883 11.8005 10.6966L7.91438 9.74874C7.9318 9.67731 7.96965 9.58105 8.04003 9.48312L11.2881 11.8177ZM10.1017 12.7714C10.5254 12.5798 10.9393 12.2834 11.2641 11.8504L8.06406 9.45039C8.20132 9.26738 8.35746 9.17023 8.45301 9.127L10.1017 12.7714ZM8.62695 13.0605C9.05218 13.0605 9.58263 13.0062 10.1017 12.7714L8.45301 9.127C8.55604 9.08039 8.63027 9.06549 8.65426 9.06139C8.67888 9.05717 8.67283 9.06055 8.62695 9.06055V13.0605ZM10.627 13.123V11.0605H6.62695V13.123H10.627ZM9.52712 11.215C9.35027 11.2037 9.1555 11.1821 8.94182 11.148L8.31209 15.0981C8.63747 15.15 8.95832 15.1869 9.27366 15.2069L9.52712 11.215ZM10.1094 11.2402C9.94006 11.2402 9.75669 11.2329 9.55862 11.2172L9.24216 15.2047C9.53627 15.228 9.82557 15.2402 10.1094 15.2402V11.2402ZM10.1758 11.2641C10.2399 11.2331 10.275 11.2282 10.2623 11.2305C10.2492 11.233 10.2012 11.2402 10.1094 11.2402V15.2402C10.675 15.2402 11.3144 15.1569 11.918 14.8648L10.1758 11.2641ZM10.0465 11.3759C10.0716 11.3436 10.0985 11.3172 10.1231 11.2976C10.1473 11.2783 10.1632 11.2703 10.1642 11.2698L11.9295 14.8592C12.414 14.6209 12.8552 14.2813 13.2074 13.8272L10.0465 11.3759ZM10.0575 11.3372C10.0438 11.3795 10.0326 11.3941 10.0309 11.3964L13.223 13.8068C13.5104 13.4262 13.7218 13.0072 13.8644 12.5652L10.0575 11.3372ZM10.2298 10.7231C10.1777 10.9348 10.1193 11.1424 10.0547 11.346L13.8672 12.5563C13.9588 12.2677 14.041 11.9753 14.1139 11.6792L10.2298 10.7231ZM10.4306 9.92816C10.3567 10.1976 10.2876 10.472 10.2231 10.7515L14.1207 11.6509C14.1734 11.4225 14.2292 11.2009 14.2882 10.9859L10.4306 9.92816ZM10.9505 8.7315C10.7096 9.11229 10.5407 9.52004 10.4284 9.93599L14.2903 10.9781C14.3109 10.9018 14.3295 10.8721 14.3308 10.8701L10.9505 8.7315ZM12.1275 7.60552C11.6541 7.87862 11.2509 8.25654 10.9505 8.7315L14.3308 10.8701C14.3046 10.9114 14.2712 10.9528 14.2319 10.9902C14.1928 11.0274 14.1555 11.0534 14.1264 11.0703L12.1275 7.60552ZM13.9297 7.16211C13.3849 7.16211 12.7352 7.25494 12.1275 7.60552L14.1264 11.0703C14.0229 11.13 13.9419 11.1523 13.9078 11.1598C13.8752 11.1669 13.8784 11.1621 13.9297 11.1621V7.16211ZM11.9297 7V9.16211H15.9297V7H11.9297ZM2.07031 9C2.508 9 3.00882 8.94082 3.5018 8.7372L1.97476 5.04015C2.04491 5.01117 2.0932 5.0018 2.10773 4.99938C2.12208 4.99699 2.11167 5 2.07031 5V9ZM4.07031 9.16211V7H0.0703125V9.16211H4.07031ZM3.87249 7.60552C3.26482 7.25494 2.61514 7.16211 2.07031 7.16211V11.1621C2.12164 11.1621 2.12482 11.1669 2.0922 11.1598C2.05812 11.1523 1.97708 11.13 1.8736 11.0703L3.87249 7.60552ZM5.04953 8.7315C4.74905 8.25654 4.34587 7.87862 3.87249 7.60552L1.8736 11.0703C1.84445 11.0534 1.80719 11.0274 1.7681 10.9902C1.72877 10.9528 1.6954 10.9114 1.66922 10.8701L5.04953 8.7315ZM5.57156 9.93599C5.45932 9.52004 5.29044 9.11229 5.04953 8.7315L1.66922 10.8701C1.6705 10.8721 1.68912 10.9018 1.70969 10.9781L5.57156 9.93599ZM5.77691 10.7515C5.71242 10.472 5.6433 10.1976 5.56943 9.92816L1.71182 10.9859C1.77076 11.2009 1.82664 11.4225 1.87934 11.6509L5.77691 10.7515ZM5.94531 11.346C5.88068 11.1424 5.82226 10.9348 5.77015 10.7231L1.8861 11.6792C1.95899 11.9753 2.0412 12.2677 2.13281 12.5563L5.94531 11.346ZM5.96913 11.3964C5.96741 11.3941 5.95615 11.3795 5.94248 11.3372L2.13565 12.5652C2.27822 13.0072 2.48962 13.4262 2.77696 13.8068L5.96913 11.3964ZM5.83576 11.2698C5.83681 11.2703 5.85272 11.2783 5.87686 11.2976C5.90151 11.3172 5.92844 11.3436 5.95349 11.3759L2.79261 13.8272C3.14475 14.2813 3.58603 14.6209 4.07049 14.8592L5.83576 11.2698ZM5.89062 11.2402C5.79877 11.2402 5.75083 11.233 5.73772 11.2305C5.72496 11.2282 5.7601 11.2331 5.82425 11.2641L4.082 14.8648C4.68564 15.1569 5.32499 15.2402 5.89062 15.2402V11.2402ZM6.44138 11.2172C6.24331 11.2329 6.05994 11.2402 5.89062 11.2402V15.2402C6.17443 15.2402 6.46373 15.228 6.75784 15.2047L6.44138 11.2172ZM7.05818 11.148C6.8445 11.1821 6.64973 11.2037 6.47288 11.215L6.72634 15.2069C7.04168 15.1869 7.36253 15.15 7.68791 15.0981L7.05818 11.148ZM5.37305 11.0605V13.123H9.37305V11.0605H5.37305ZM5.89832 12.7714C6.41737 13.0062 6.94782 13.0605 7.37305 13.0605V9.06055C7.32717 9.06055 7.32112 9.05717 7.34574 9.06139C7.36973 9.06549 7.44396 9.08039 7.54699 9.127L5.89832 12.7714ZM4.73594 11.8504C5.06069 12.2834 5.47465 12.5798 5.89832 12.7714L7.54699 9.127C7.64254 9.17023 7.79868 9.26738 7.93594 9.45039L4.73594 11.8504ZM4.19954 10.6966C4.29509 11.0883 4.46183 11.4697 4.71191 11.8177L7.95997 9.48312C8.03035 9.58105 8.0682 9.67731 8.08562 9.74874L4.19954 10.6966ZM4.06692 9.93375C4.09508 10.1872 4.138 10.4382 4.19697 10.6859L8.08819 9.75942C8.06904 9.67897 8.05336 9.59016 8.04245 9.49203L4.06692 9.93375ZM4.00888 9.41723C4.02822 9.58741 4.04757 9.75959 4.06692 9.93375L8.04245 9.49203C8.02274 9.31463 8.00303 9.13915 7.9833 8.96559L4.00888 9.41723ZM4.00808 9.39649C4.00072 9.37652 4.00459 9.37863 4.00833 9.41227L7.98386 8.97054C7.94854 8.65262 7.87818 8.33051 7.76145 8.01367L4.00808 9.39649ZM4.2107 9.70663C4.10617 9.59822 4.03329 9.47188 3.99244 9.35245L7.77709 8.0577C7.63468 7.6414 7.40555 7.25724 7.09008 6.93009L4.2107 9.70663ZM4.7352 10.0266C4.66635 10.0097 4.42213 9.93484 4.1848 9.67926L7.11598 6.95746C6.67553 6.48313 6.13834 6.252 5.68668 6.14139L4.7352 10.0266ZM4.1848 6.48871C4.42213 6.23313 4.66635 6.15825 4.7352 6.14139L5.68668 10.0266C6.13834 9.91597 6.67553 9.68484 7.11598 9.21051L4.1848 6.48871ZM3.99244 6.81552C4.03329 6.69609 4.10617 6.56974 4.2107 6.46134L7.09008 9.23788C7.40555 8.91072 7.63468 8.52657 7.77709 8.11027L3.99244 6.81552ZM3.99845 6.80135C3.99781 6.80832 3.9974 6.80839 3.99866 6.80263C3.99995 6.79677 4.00273 6.78599 4.00808 6.77148L7.76145 8.1543C7.88191 7.82735 7.95197 7.49408 7.98202 7.16349L3.99845 6.80135ZM4.06106 6.23422L4.00247 6.76156L7.978 7.20328L8.0366 6.67594L4.06106 6.23422ZM4.19954 5.47726C4.14241 5.71149 4.09851 5.94971 4.06637 6.19075L8.03128 6.71941C8.04602 6.60889 8.06462 6.51117 8.08562 6.42508L4.19954 5.47726ZM4.71191 4.35031C4.45611 4.7062 4.29057 5.09481 4.19697 5.48793L8.08819 6.41441C8.07272 6.47941 8.03608 6.57895 7.95997 6.68485L4.71191 4.35031ZM5.89832 3.39653C5.47465 3.5882 5.06069 3.88457 4.73594 4.31758L7.93594 6.71758C7.79868 6.90059 7.64254 6.99774 7.54699 7.04097L5.89832 3.39653ZM7.37305 3.10156C6.93779 3.10156 6.39334 3.16039 5.86279 3.41303L7.58252 7.02447C7.47442 7.07595 7.39379 7.09361 7.36295 7.09916C7.33183 7.10477 7.33194 7.10156 7.37305 7.10156V3.10156ZM5.37305 3.03906V5.10156H9.37305V3.03906H5.37305ZM6.47288 4.94715C6.64973 4.95838 6.8445 4.98006 7.05818 5.01412L7.68791 1.064C7.36253 1.01213 7.04168 0.975213 6.72634 0.955191L6.47288 4.94715ZM5.89062 4.92188C6.05994 4.92188 6.24331 4.92918 6.44138 4.9449L6.75784 0.957441C6.46373 0.934098 6.17443 0.921875 5.89062 0.921875V4.92188ZM5.79481 4.91865C5.76025 4.93122 5.74741 4.93153 5.76469 4.92894C5.78204 4.92633 5.82248 4.92188 5.89062 4.92188V0.921875C5.42572 0.921875 4.92113 0.980097 4.42784 1.15948L5.79481 4.91865ZM5.92552 4.82226C5.83835 4.90236 5.76845 4.92803 5.76437 4.92944L4.45829 1.14868C4.02451 1.29853 3.59524 1.53123 3.21902 1.87695L5.92552 4.82226ZM5.97955 4.74782C5.97352 4.75912 5.96389 4.77479 5.94995 4.79262C5.93595 4.81052 5.92011 4.82738 5.9035 4.8422L3.24104 1.85702C2.91561 2.14727 2.65154 2.48784 2.45014 2.86546L5.97955 4.74782ZM5.89118 4.96697C5.9207 4.8747 5.95353 4.79774 5.98729 4.73315L2.44239 2.88013C2.29647 3.15929 2.17695 3.44952 2.08148 3.74787L5.89118 4.96697ZM5.77875 5.40259C5.81591 5.23848 5.85709 5.08175 5.90198 4.93212L2.07068 3.78273C1.99838 4.02372 1.93409 4.26934 1.8775 4.51929L5.77875 5.40259ZM5.60757 6.10371C5.67505 5.8627 5.73455 5.61715 5.78639 5.36737L1.86986 4.5545C1.83576 4.71878 1.7976 4.87558 1.75571 5.02519L5.60757 6.10371ZM5.3159 6.93337C5.44053 6.65296 5.54034 6.36366 5.61729 6.06772L1.746 5.06119C1.72138 5.15587 1.69228 5.23767 1.66066 5.30882L5.3159 6.93337ZM4.67322 7.92563C4.94978 7.62231 5.16603 7.28073 5.32441 6.91397L1.65216 5.32822C1.66209 5.30521 1.68303 5.26831 1.7174 5.23062L4.67322 7.92563ZM3.52139 8.72898C3.92737 8.55622 4.31922 8.3028 4.65301 7.94748L1.73762 5.20877C1.82921 5.11127 1.91638 5.06487 1.95517 5.04836L3.52139 8.72898Z" fill="#E08C2A" mask="url(#path-1-inside-1_128_208)"/>
</svg>
