<svg width="16" height="16" viewBox="0 0 16 16" fill="none" xmlns="http://www.w3.org/2000/svg">
<path fill-rule="evenodd" clip-rule="evenodd" d="M0 1C0 0.447715 0.447715 0 1 0H15C15.5523 0 16 0.447715 16 1V15C16 15.5523 15.5523 16 15 16H1C0.447715 16 0 15.5523 0 15V1ZM10.9332 6.81956C10.9771 6.55289 11 6.27912 11 6C11 3.23858 8.76142 1 6 1C3.23858 1 1 3.23858 1 6C1 8.76142 3.23858 11 6 11C6.27912 11 6.55289 10.9771 6.81955 10.9332C6.83668 11.0321 6.88358 11.1262 6.95865 11.2013L11.1535 15.3962C11.46 15.7026 11.9846 15.5007 12.0064 15.0678L12.1306 12.6048C12.1435 12.3485 12.3485 12.1435 12.6048 12.1306L15.0678 12.0064C15.5006 11.9846 15.7026 11.46 15.3962 11.1535L11.2013 6.95865C11.1262 6.88358 11.0321 6.83669 10.9332 6.81956ZM6 8C4.89543 8 4 7.10457 4 6C4 4.89543 4.89543 4 6 4C7.10457 4 8 4.89543 8 6C8 7.10457 7.10457 8 6 8Z" fill="#6C8C67"/>
<rect x="1.25" y="1.25" width="9.5" height="9.5" rx="4.75" stroke="#6C8C67" stroke-width="0.5"/>
</svg>
