<svg width="16" height="16" viewBox="0 0 16 16" fill="none" xmlns="http://www.w3.org/2000/svg">
<path d="M6 2C6 1.44772 6.44772 1 7 1H14C14.5523 1 15 1.44772 15 2V4C15 4.55228 14.5523 5 14 5H7C6.44772 5 6 4.55228 6 4V2Z" fill="#77A570"/>
<path d="M6 7C6 6.44772 6.44772 6 7 6H14C14.5523 6 15 6.44772 15 7V9C15 9.55228 14.5523 10 14 10H7C6.44772 10 6 9.55228 6 9V7Z" fill="#DD4D4D"/>
<path d="M6 12C6 11.4477 6.44772 11 7 11H14C14.5523 11 15 11.4477 15 12V14C15 14.5523 14.5523 15 14 15H7C6.44772 15 6 14.5523 6 14V12Z" fill="#EEE85F"/>
<path d="M3 14.5C2.17157 14.5 1.5 13.8284 1.5 13C1.5 12.1716 2.17157 11.5 3 11.5C3.82843 11.5 4.5 12.1716 4.5 13C4.5 13.8284 3.82843 14.5 3 14.5Z" stroke="#B5B5B5"/>
<path d="M3 9.5C2.17157 9.5 1.5 8.82843 1.5 8C1.5 7.17157 2.17157 6.5 3 6.5C3.82843 6.5 4.5 7.17157 4.5 8C4.5 8.82843 3.82843 9.5 3 9.5Z" stroke="#B5B5B5"/>
<path d="M3 4.5C2.17157 4.5 1.5 3.82843 1.5 3C1.5 2.17157 2.17157 1.5 3 1.5C3.82843 1.5 4.5 2.17157 4.5 3C4.5 3.82843 3.82843 4.5 3 4.5Z" stroke="#B5B5B5"/>
</svg>
