<svg width="16" height="16" viewBox="0 0 16 16" fill="none" xmlns="http://www.w3.org/2000/svg">
<path fill-rule="evenodd" clip-rule="evenodd" d="M1 3C0.447715 3 0 3.44772 0 4V12C0 12.5523 0.447715 13 1 13H15C15.5523 13 16 12.5523 16 12V4C16 3.44772 15.5523 3 15 3H1ZM8.77329 4.898C8.76729 4.826 8.74029 4.745 8.69229 4.655C8.60829 4.493 8.37429 4.412 7.99029 4.412C7.61229 4.412 7.37229 4.493 7.27029 4.655C6.92829 5.087 6.24729 5.978 5.22729 7.328L3.18429 4.646L3.13029 4.592C3.09429 4.55 3.01629 4.511 2.89629 4.475C2.78229 4.433 2.64429 4.412 2.48229 4.412C2.10429 4.412 1.87029 4.49 1.78029 4.646C1.73229 4.736 1.70229 4.817 1.69029 4.889C1.68429 4.955 1.68129 5.057 1.68129 5.195V10.19C1.68129 10.334 1.68429 10.442 1.69029 10.514C1.70229 10.586 1.73229 10.664 1.78029 10.748C1.87029 10.91 2.09829 10.991 2.46429 10.991C2.84229 10.991 3.07629 10.91 3.16629 10.748C3.21429 10.664 3.24129 10.589 3.24729 10.523C3.25929 10.451 3.26529 10.346 3.26529 10.208V7.175C3.29529 7.211 3.48729 7.475 3.84129 7.967C4.19529 8.453 4.43229 8.771 4.55229 8.921L4.62429 9.02C4.67229 9.08 4.75029 9.143 4.85829 9.209C4.97229 9.269 5.09529 9.299 5.22729 9.299C5.36529 9.299 5.49129 9.266 5.60529 9.2C5.72529 9.128 5.80029 9.074 5.83029 9.038C5.86029 8.996 5.91429 8.924 5.99229 8.822C6.07029 8.72 6.25329 8.468 6.54129 8.066C6.82929 7.658 7.04829 7.361 7.19829 7.175V10.19C7.19829 10.4 7.21329 10.556 7.24329 10.658C7.27329 10.736 7.31529 10.796 7.36929 10.838C7.42329 10.88 7.50129 10.916 7.60329 10.946C7.70529 10.976 7.84329 10.991 8.01729 10.991C8.19129 10.991 8.33529 10.973 8.44929 10.937C8.67729 10.865 8.79129 10.622 8.79129 10.208V5.213C8.79129 5.075 8.78529 4.97 8.77329 4.898ZM13.5443 6.185C13.5443 6.083 13.5203 5.951 13.4723 5.789C13.3463 5.411 13.1783 5.222 12.9683 5.222C12.9083 5.222 12.7823 5.252 12.5903 5.312L12.1493 5.456V5.033C12.1493 4.805 12.1193 4.634 12.0593 4.52C12.0173 4.442 11.9423 4.388 11.8343 4.358C11.7323 4.322 11.5943 4.304 11.4203 4.304C11.2463 4.304 11.1053 4.319 10.9973 4.349C10.8953 4.379 10.8173 4.442 10.7633 4.538C10.7153 4.634 10.6913 4.784 10.6913 4.988V5.456L10.2323 5.312L10.1153 5.276C10.0373 5.246 9.95634 5.231 9.87234 5.231C9.65634 5.231 9.48234 5.429 9.35034 5.825C9.30834 5.957 9.28734 6.077 9.28734 6.185C9.28734 6.293 9.31734 6.386 9.37734 6.464C9.48534 6.596 9.64734 6.683 9.86334 6.725L10.2413 6.842L9.94434 7.256C9.81834 7.43 9.75534 7.568 9.75534 7.67C9.75534 7.838 9.87534 8.009 10.1153 8.183C10.3613 8.357 10.5503 8.444 10.6823 8.444C10.8203 8.444 10.9553 8.345 11.0873 8.147L11.4203 7.697L11.6813 8.057C11.7833 8.201 11.8793 8.303 11.9693 8.363C12.0353 8.405 12.1193 8.426 12.2213 8.426C12.3233 8.426 12.4913 8.342 12.7253 8.174C12.9593 8.006 13.0763 7.835 13.0763 7.661C13.0763 7.595 13.0373 7.496 12.9593 7.364L12.8873 7.256L12.5903 6.842L12.9683 6.725C13.1003 6.677 13.1993 6.638 13.2653 6.608C13.3313 6.578 13.3943 6.524 13.4543 6.446C13.5143 6.368 13.5443 6.281 13.5443 6.185Z" fill="#B5B5B5"/>
</svg>
