<svg width="16" height="16" viewBox="0 0 16 16" fill="none" xmlns="http://www.w3.org/2000/svg">
<path fill-rule="evenodd" clip-rule="evenodd" d="M3 0C2.44772 0 2 0.447715 2 1V15C2 15.5523 2.44772 16 3 16H15C15.5523 16 16 15.5523 16 15V1C16 0.447715 15.5523 0 15 0H3ZM7.98273 11.65C8.12273 11.6033 8.28273 11.5 8.46273 11.34C8.73607 11.1 8.8694 10.89 8.86273 10.71C8.85607 10.5233 8.7394 10.3067 8.51273 10.06L6.72509 8.09359L8.52273 6.12C8.74273 5.88667 8.85607 5.67333 8.86273 5.48C8.8694 5.28667 8.7394 5.07 8.47273 4.83C8.29273 4.66333 8.13273 4.55667 7.99273 4.51C7.8594 4.45667 7.7294 4.46333 7.60273 4.53C7.47607 4.59 7.33607 4.71 7.18273 4.89L5.49773 6.7435L3.81273 4.89C3.66607 4.71 3.52607 4.59 3.39273 4.53C3.26607 4.46333 3.13273 4.45667 2.99273 4.51C2.8594 4.55667 2.70273 4.66333 2.52273 4.83C2.26273 5.07 2.13273 5.28667 2.13273 5.48C2.1394 5.67333 2.25273 5.88667 2.47273 6.12L4.27038 8.09359L2.48273 10.06C2.25607 10.3067 2.1394 10.5233 2.13273 10.71C2.13273 10.89 2.26607 11.1 2.53273 11.34C2.71273 11.5 2.8694 11.6033 3.00273 11.65C3.14273 11.7033 3.27607 11.6967 3.40273 11.63C3.53607 11.57 3.67607 11.4533 3.82273 11.28L5.49773 9.44106L7.17273 11.28C7.32607 11.4533 7.46607 11.57 7.59273 11.63C7.7194 11.6967 7.8494 11.7033 7.98273 11.65Z" fill="#77A570"/>
<path fill-rule="evenodd" clip-rule="evenodd" d="M1 2C0.447715 2 0 2.44772 0 3V13C0 13.5523 0.447715 14 1 14H10C10.5523 14 11 13.5523 11 13V3C11 2.44772 10.5523 2 10 2H1ZM7.98273 11.65C8.12274 11.6033 8.28273 11.5 8.46273 11.34C8.73607 11.1 8.8694 10.89 8.86273 10.71C8.85607 10.5233 8.7394 10.3067 8.51273 10.06L6.72509 8.09359L8.52273 6.12C8.74273 5.88667 8.85607 5.67333 8.86273 5.48C8.8694 5.28667 8.7394 5.07 8.47273 4.83C8.29273 4.66333 8.13273 4.55667 7.99273 4.51C7.8594 4.45667 7.7294 4.46333 7.60273 4.53C7.47607 4.59 7.33607 4.71 7.18273 4.89L5.49773 6.7435L3.81273 4.89C3.66607 4.71 3.52607 4.59 3.39273 4.53C3.26607 4.46333 3.13273 4.45667 2.99273 4.51C2.8594 4.55667 2.70273 4.66333 2.52273 4.83C2.26273 5.07 2.13273 5.28667 2.13273 5.48C2.1394 5.67333 2.25273 5.88667 2.47273 6.12L4.27038 8.09359L2.48273 10.06C2.25607 10.3067 2.1394 10.5233 2.13273 10.71C2.13273 10.89 2.26607 11.1 2.53273 11.34C2.71273 11.5 2.8694 11.6033 3.00273 11.65C3.14273 11.7033 3.27607 11.6967 3.40273 11.63C3.53607 11.57 3.67607 11.4533 3.82273 11.28L5.49773 9.44106L7.17273 11.28C7.32607 11.4533 7.46607 11.57 7.59273 11.63C7.7194 11.6967 7.8494 11.7033 7.98273 11.65Z" fill="#91DA8B"/>
</svg>
