<svg width="16" height="16" viewBox="0 0 16 16" fill="none" xmlns="http://www.w3.org/2000/svg">
<path fill-rule="evenodd" clip-rule="evenodd" d="M3 0C2.44772 0 2 0.447715 2 1V15C2 15.5523 2.44772 16 3 16H15C15.5523 16 16 15.5523 16 15V1C16 0.447715 15.5523 0 15 0H3ZM3.64637 11.45C3.77303 11.5367 3.98637 11.58 4.28637 11.58C4.59303 11.58 4.8097 11.5367 4.93637 11.45C5.06303 11.3567 5.1397 11.24 5.16637 11.1C5.19303 10.96 5.20637 10.8167 5.20637 10.67V9.71H6.27637C6.53637 9.71 6.81303 9.66 7.10637 9.56C7.3997 9.45333 7.67637 9.29667 7.93637 9.09C8.20303 8.87667 8.4197 8.61 8.58637 8.29C8.75303 7.97 8.83637 7.59333 8.83637 7.16C8.83637 6.72 8.75303 6.34 8.58637 6.02C8.4197 5.7 8.20303 5.43333 7.93637 5.22C7.67637 5.00667 7.3997 4.85 7.10637 4.75C6.81303 4.64333 6.5397 4.59 6.28637 4.59H4.29637C3.9897 4.59 3.77303 4.63667 3.64637 4.73C3.5197 4.81667 3.44303 4.93 3.41637 5.07C3.3897 5.21 3.37637 5.35333 3.37637 5.5V10.66C3.37637 10.8067 3.3897 10.9533 3.41637 11.1C3.44303 11.24 3.5197 11.3567 3.64637 11.45ZM6.28637 7.88H5.20637V6.42H6.27637C6.41637 6.42 6.5397 6.45333 6.64637 6.52C6.7597 6.58 6.8497 6.66667 6.91637 6.78C6.98303 6.88667 7.01637 7.01 7.01637 7.15C7.01637 7.33667 6.97303 7.48333 6.88637 7.59C6.7997 7.69667 6.6997 7.77333 6.58637 7.82C6.47303 7.86 6.37303 7.88 6.28637 7.88Z" fill="#AD4929"/>
<path fill-rule="evenodd" clip-rule="evenodd" d="M1 2C0.447715 2 0 2.44772 0 3V13C0 13.5523 0.447715 14 1 14H10C10.5523 14 11 13.5523 11 13V3C11 2.44772 10.5523 2 10 2H1ZM3.64637 11.45C3.77303 11.5367 3.98637 11.58 4.28637 11.58C4.59303 11.58 4.8097 11.5367 4.93637 11.45C5.06303 11.3567 5.1397 11.24 5.16637 11.1C5.19303 10.96 5.20637 10.8167 5.20637 10.67V9.71H6.27637C6.53637 9.71 6.81303 9.66 7.10637 9.56C7.3997 9.45333 7.67637 9.29667 7.93637 9.09C8.20303 8.87667 8.4197 8.61 8.58637 8.29C8.75303 7.97 8.83637 7.59333 8.83637 7.16C8.83637 6.72 8.75303 6.34 8.58637 6.02C8.4197 5.7 8.20303 5.43333 7.93637 5.22C7.67637 5.00667 7.3997 4.85 7.10637 4.75C6.81303 4.64333 6.5397 4.59 6.28637 4.59H4.29637C3.9897 4.59 3.77303 4.63667 3.64637 4.73C3.5197 4.81667 3.44303 4.93 3.41637 5.07C3.3897 5.21 3.37637 5.35333 3.37637 5.5V10.66C3.37637 10.8067 3.3897 10.9533 3.41637 11.1C3.44303 11.24 3.5197 11.3567 3.64637 11.45ZM6.28637 7.88H5.20637V6.42H6.27637C6.41637 6.42 6.5397 6.45333 6.64637 6.52C6.7597 6.58 6.8497 6.66667 6.91637 6.78C6.98303 6.88667 7.01637 7.01 7.01637 7.15C7.01637 7.33667 6.97303 7.48333 6.88637 7.59C6.7997 7.69667 6.6997 7.77333 6.58637 7.82C6.47303 7.86 6.37303 7.88 6.28637 7.88Z" fill="#DB7F3C"/>
</svg>
