<svg width="16" height="16" viewBox="0 0 16 16" fill="none" xmlns="http://www.w3.org/2000/svg">
<path fill-rule="evenodd" clip-rule="evenodd" d="M3 0C2.44772 0 2 0.447715 2 1V5.04439C2.04825 5.03952 2.09281 5.03805 2.13367 5.04C2.27367 5.04667 2.39034 5.10333 2.48367 5.21C2.57701 5.31667 2.66034 5.48333 2.73367 5.71L3.77367 8.75L4.59367 5.76C4.61367 5.69333 4.64701 5.60667 4.69367 5.5C4.74701 5.39333 4.83367 5.3 4.95367 5.22C5.07367 5.13333 5.24701 5.09 5.47367 5.09C5.72701 5.09 5.91367 5.13667 6.03367 5.23C6.16034 5.32333 6.24701 5.42333 6.29367 5.53C6.34034 5.63667 6.37367 5.71667 6.39367 5.77L7.21367 8.77L8.25367 5.71C8.32701 5.49 8.40701 5.32667 8.49367 5.22C8.58701 5.10667 8.70701 5.04333 8.85367 5.03C9.00034 5.01667 9.18701 5.05 9.41367 5.13C9.65367 5.21667 9.82367 5.31 9.92367 5.41C10.0237 5.50333 10.0737 5.62 10.0737 5.76C10.0803 5.9 10.0503 6.08 9.98367 6.3L8.19367 11.46C8.18034 11.5 8.14701 11.57 8.09367 11.67C8.04701 11.77 7.96367 11.8633 7.84367 11.95C7.72367 12.0367 7.55034 12.08 7.32367 12.08C7.09701 12.08 6.92034 12.03 6.79367 11.93C6.66701 11.8233 6.57701 11.7167 6.52367 11.61C6.47034 11.4967 6.44034 11.43 6.43367 11.41L5.49367 8.33L4.55367 11.4C4.54701 11.4333 4.51701 11.5067 4.46367 11.62C4.41034 11.7267 4.32034 11.83 4.19367 11.93C4.07367 12.03 3.89701 12.08 3.66367 12.08C3.45034 12.08 3.28367 12.0367 3.16367 11.95C3.04367 11.8633 2.95701 11.77 2.90367 11.67C2.85034 11.5633 2.81701 11.4933 2.80367 11.46L2 9.15614V15C2 15.5523 2.44772 16 3 16H15C15.5523 16 16 15.5523 16 15V1C16 0.447715 15.5523 0 15 0H3Z" fill="#0092DA"/>
<path fill-rule="evenodd" clip-rule="evenodd" d="M1 2C0.447715 2 0 2.44772 0 3V13C0 13.5523 0.447715 14 1 14H10C10.5523 14 11 13.5523 11 13V3C11 2.44772 10.5523 2 10 2H1ZM3.16367 11.95C3.28367 12.0367 3.45034 12.08 3.66367 12.08C3.89701 12.08 4.07367 12.03 4.19367 11.93C4.32034 11.83 4.41034 11.7267 4.46367 11.62C4.51701 11.5067 4.54701 11.4333 4.55367 11.4L5.49367 8.33L6.43367 11.41C6.44034 11.43 6.47034 11.4967 6.52367 11.61C6.57701 11.7167 6.66701 11.8233 6.79367 11.93C6.92034 12.03 7.09701 12.08 7.32367 12.08C7.55034 12.08 7.72367 12.0367 7.84367 11.95C7.96367 11.8633 8.04701 11.77 8.09367 11.67C8.14701 11.57 8.18034 11.5 8.19367 11.46L9.98367 6.3C10.0503 6.08 10.0803 5.9 10.0737 5.76C10.0737 5.62 10.0237 5.50333 9.92367 5.41C9.82367 5.31 9.65367 5.21667 9.41367 5.13C9.18701 5.05 9.00034 5.01667 8.85367 5.03C8.70701 5.04333 8.58701 5.10667 8.49367 5.22C8.40701 5.32667 8.32701 5.49 8.25367 5.71L7.21367 8.77L6.39367 5.77C6.37367 5.71667 6.34034 5.63667 6.29367 5.53C6.24701 5.42333 6.16034 5.32333 6.03367 5.23C5.91367 5.13667 5.72701 5.09 5.47367 5.09C5.24701 5.09 5.07367 5.13333 4.95367 5.22C4.83367 5.3 4.74701 5.39333 4.69367 5.5C4.64701 5.60667 4.61367 5.69333 4.59367 5.76L3.77367 8.75L2.73367 5.71C2.66034 5.48333 2.57701 5.31667 2.48367 5.21C2.39034 5.10333 2.27367 5.04667 2.13367 5.04C1.99367 5.03333 1.81034 5.06667 1.58367 5.14C1.23701 5.25333 1.02701 5.39333 0.953672 5.56C0.887005 5.72 0.903672 5.96667 1.00367 6.3L2.80367 11.46C2.81701 11.4933 2.85034 11.5633 2.90367 11.67C2.95701 11.77 3.04367 11.8633 3.16367 11.95Z" fill="#B3E6FF"/>
</svg>
