<svg width="16" height="16" viewBox="0 0 16 16" fill="none" xmlns="http://www.w3.org/2000/svg">
<path fill-rule="evenodd" clip-rule="evenodd" d="M2 3C1.44772 3 1 3.44772 1 4V14C1 14.5523 1.44772 15 2 15H12C12.5523 15 13 14.5523 13 14V4C13 3.44772 12.5523 3 12 3H2ZM9.53305 6.65C8.80638 5.93667 7.94971 5.58 6.96305 5.58C6.50305 5.58 6.05638 5.67333 5.62305 5.86C5.18971 6.04667 4.80638 6.30333 4.47305 6.63C4.13971 6.95667 3.87305 7.36333 3.67305 7.85C3.47305 8.33 3.37305 8.84667 3.37305 9.4C3.37305 10.4133 3.72638 11.2867 4.43305 12.02C5.14638 12.7533 6.00971 13.12 7.02305 13.12C8.03638 13.12 8.88971 12.75 9.58305 12.01C10.2764 11.2633 10.623 10.3633 10.623 9.31C10.623 8.25 10.2597 7.36333 9.53305 6.65ZM5.71305 10.8C5.33305 10.4267 5.14305 9.94333 5.14305 9.35C5.14305 8.75667 5.33305 8.27667 5.71305 7.91C6.09305 7.53667 6.51971 7.35 6.99305 7.35C7.46638 7.35 7.89305 7.53333 8.27305 7.9C8.65971 8.26667 8.85305 8.75333 8.85305 9.36C8.85305 9.96667 8.66305 10.45 8.28305 10.81C7.90305 11.17 7.47638 11.35 7.00305 11.35C6.52971 11.35 6.09971 11.1667 5.71305 10.8Z" fill="#AAAAAA"/>
<path d="M9 1H13C14.1046 1 15 1.89543 15 3V8.5" stroke="#417BBF" stroke-width="2" stroke-linecap="round"/>
</svg>
