<svg width="16" height="16" viewBox="0 0 16 16" fill="none" xmlns="http://www.w3.org/2000/svg">
<path fill-rule="evenodd" clip-rule="evenodd" d="M5 14C5 14.5523 5.44771 15 6 15L15 15C15.5523 15 16 14.5523 16 14V11C16 10.4477 15.5523 10 15 10H6C5.44772 10 5 10.4477 5 11V14ZM8 11.5C7.44772 11.5 7 11.9477 7 12.5C7 13.0523 7.44772 13.5 8 13.5H14C14.5523 13.5 15 13.0523 15 12.5C15 11.9477 14.5523 11.5 14 11.5H8Z" fill="#4D71F1"/>
<path fill-rule="evenodd" clip-rule="evenodd" d="M6 8C6 8.55228 6.44772 9 7 9L14 9C14.5523 9 15 8.55228 15 8V2C15 1.44772 14.5523 1 14 1H7C6.44772 1 6 1.44772 6 2V8ZM13.1019 5.115C13.1019 4.99033 13.0726 4.829 13.0139 4.631C12.8599 4.169 12.6546 3.938 12.3979 3.938C12.3246 3.938 12.1706 3.97467 11.9359 4.048L11.3969 4.224V3.707C11.3969 3.42833 11.3602 3.21933 11.2869 3.08C11.2356 2.98467 11.1439 2.91867 11.0119 2.882C10.8872 2.838 10.7186 2.816 10.5059 2.816C10.2932 2.816 10.1209 2.83433 9.98889 2.871C9.86422 2.90767 9.76889 2.98467 9.70289 3.102C9.64422 3.21933 9.61489 3.40267 9.61489 3.652V4.224L9.05389 4.048L8.91089 4.004C8.81555 3.96733 8.71655 3.949 8.61389 3.949C8.34989 3.949 8.13722 4.191 7.97589 4.675C7.92455 4.83633 7.89889 4.983 7.89889 5.115C7.89889 5.247 7.93555 5.36067 8.00889 5.456C8.14089 5.61733 8.33889 5.72367 8.60289 5.775L9.06489 5.918L8.70189 6.424C8.54789 6.63667 8.47089 6.80533 8.47089 6.93C8.47089 7.13533 8.61755 7.34433 8.91089 7.557C9.21155 7.76967 9.44255 7.876 9.60389 7.876C9.77255 7.876 9.93755 7.755 10.0989 7.513L10.5059 6.963L10.8249 7.403C10.9496 7.579 11.0669 7.70367 11.1769 7.777C11.2576 7.82833 11.3602 7.854 11.4849 7.854C11.6096 7.854 11.8149 7.75133 12.1009 7.546C12.3869 7.34067 12.5299 7.13167 12.5299 6.919C12.5299 6.83833 12.4822 6.71733 12.3869 6.556L12.2989 6.424L11.9359 5.918L12.3979 5.775C12.5592 5.71633 12.6802 5.66867 12.7609 5.632C12.8416 5.59533 12.9186 5.52933 12.9919 5.434C13.0652 5.33867 13.1019 5.23233 13.1019 5.115Z" fill="#4D71F1"/>
<path fill-rule="evenodd" clip-rule="evenodd" d="M3.5 9C1.567 9 0 10.567 0 12.5C0 14.433 1.567 16 3.5 16C5.433 16 7 14.433 7 12.5C7 10.567 5.433 9 3.5 9ZM3.5 11C3.22386 11 3 11.2239 3 11.5V13.5C3 13.7761 3.22386 14 3.5 14C3.77614 14 4 13.7761 4 13.5V11.5C4 11.2239 3.77614 11 3.5 11Z" fill="#4D71F1"/>
</svg>
