<svg width="16" height="16" viewBox="0 0 16 16" fill="none" xmlns="http://www.w3.org/2000/svg">
<rect x="0.5" y="0.5" width="15" height="15" rx="0.5" stroke="#DD4D4D" stroke-linecap="square" stroke-dasharray="3 3"/>
<path d="M4 11.375C4 11.8065 3.65022 12.1562 3.21875 12.1562V12.1562C2.78728 12.1562 2.4375 11.8065 2.4375 11.375L2.4375 5.125C2.4375 4.69353 2.78728 4.34375 3.21875 4.34375V4.34375C3.65022 4.34375 4 4.69353 4 5.125L4 11.375Z" fill="#DD4D4D"/>
<path d="M13.375 11.375C13.375 11.8065 13.0252 12.1562 12.5937 12.1562V12.1562C12.1623 12.1562 11.8125 11.8065 11.8125 11.375L11.8125 5.125C11.8125 4.69353 12.1623 4.34375 12.5938 4.34375V4.34375C13.0252 4.34375 13.375 4.69353 13.375 5.125L13.375 11.375Z" fill="#DD4D4D"/>
<path d="M12.9398 4.15723C13.2038 4.27038 13.375 4.53 13.375 4.81725V4.81725C13.375 5.33277 12.8479 5.68035 12.3741 5.47727L8.30017 3.73132C8.04862 3.62352 7.76388 3.62352 7.51233 3.73132L3.43845 5.47727C2.96461 5.68035 2.4375 5.33277 2.4375 4.81725V4.81725C2.4375 4.53 2.60869 4.27038 2.87272 4.15723L7.51233 2.16882C7.76388 2.06102 8.04862 2.06102 8.30017 2.16882L12.9398 4.15723Z" fill="#DD4D4D"/>
<path d="M2.87271 6.09277C2.60869 5.97962 2.4375 5.72 2.4375 5.43275V5.43275C2.4375 4.91723 2.96461 4.56965 3.43845 4.77273L7.51233 6.51868C7.76388 6.62648 8.04862 6.62648 8.30017 6.51868L12.3741 4.77273C12.8479 4.56965 13.375 4.91723 13.375 5.43275V5.43275C13.375 5.72 13.2038 5.97962 12.9398 6.09277L8.30017 8.08118C8.04862 8.18898 7.76388 8.18898 7.51233 8.08118L2.87271 6.09277Z" fill="#DD4D4D"/>
<path d="M2.87271 6.09277C2.60869 5.97962 2.4375 5.72 2.4375 5.43275V5.43275C2.4375 4.91723 2.96461 4.56965 3.43845 4.77273L7.51233 6.51868C7.76388 6.62648 8.04862 6.62648 8.30017 6.51868L12.3741 4.77273C12.8479 4.56965 13.375 4.91723 13.375 5.43275V5.43275C13.375 5.72 13.2038 5.97962 12.9398 6.09277L8.30017 8.08118C8.04862 8.18898 7.76388 8.18898 7.51233 8.08118L2.87271 6.09277Z" fill="#DD4D4D"/>
<path d="M2.87271 12.3428C2.60869 12.2296 2.4375 11.97 2.4375 11.6827V11.6827C2.4375 11.1672 2.96461 10.8197 3.43845 11.0227L7.51233 12.7687C7.76388 12.8765 8.04862 12.8765 8.30017 12.7687L12.3741 11.0227C12.8479 10.8197 13.375 11.1672 13.375 11.6827V11.6827C13.375 11.97 13.2038 12.2296 12.9398 12.3428L8.30017 14.3312C8.04862 14.439 7.76388 14.439 7.51233 14.3312L2.87271 12.3428Z" fill="#DD4D4D"/>
<path d="M8.6875 13.7188L7.125 13.7187L7.125 7.46875L8.6875 7.46875C8.6875 9.90953 8.6875 11.278 8.6875 13.7188Z" fill="#DD4D4D"/>
</svg>
