<svg width="16" height="16" viewBox="0 0 16 16" fill="none" xmlns="http://www.w3.org/2000/svg">
<path d="M3.8125 11.875C3.8125 12.3755 3.40676 12.7812 2.90625 12.7812V12.7812C2.40574 12.7812 2 12.3755 2 11.875L2 4.625C2 4.12449 2.40574 3.71875 2.90625 3.71875V3.71875C3.40676 3.71875 3.8125 4.12449 3.8125 4.625L3.8125 11.875Z" fill="#DD4D4D"/>
<path d="M14.6875 11.875C14.6875 12.3755 14.2818 12.7812 13.7812 12.7812V12.7812C13.2807 12.7812 12.875 12.3755 12.875 11.875L12.875 4.625C12.875 4.12449 13.2807 3.71875 13.7813 3.71875V3.71875C14.2818 3.71875 14.6875 4.12449 14.6875 4.625L14.6875 11.875Z" fill="#DD4D4D"/>
<path d="M14.1827 3.50239C14.4889 3.63364 14.6875 3.9348 14.6875 4.26801V4.26801C14.6875 4.86602 14.0761 5.2692 13.5264 5.03364L8.73767 2.98132C8.48612 2.87352 8.20138 2.87352 7.94983 2.98132L3.1611 5.03364C2.61145 5.2692 2 4.86602 2 4.26801V4.26801C2 3.9348 2.19858 3.63364 2.50485 3.50239L7.94983 1.16882C8.20138 1.06102 8.48612 1.06102 8.73767 1.16882L14.1827 3.50239Z" fill="#DD4D4D"/>
<path d="M2.50485 5.74761C2.19858 5.61635 2 5.3152 2 4.98199V4.98199C2 4.38398 2.61145 3.9808 3.1611 4.21636L7.94983 6.26868C8.20138 6.37648 8.48612 6.37648 8.73767 6.26868L13.5264 4.21636C14.0761 3.9808 14.6875 4.38398 14.6875 4.98199V4.98199C14.6875 5.3152 14.4889 5.61635 14.1826 5.74761L8.73767 8.08118C8.48612 8.18898 8.20138 8.18898 7.94983 8.08118L2.50485 5.74761Z" fill="#DD4D4D"/>
<path d="M2.50485 5.74761C2.19858 5.61635 2 5.3152 2 4.98199V4.98199C2 4.38398 2.61145 3.9808 3.1611 4.21636L7.94983 6.26868C8.20138 6.37648 8.48612 6.37648 8.73767 6.26868L13.5264 4.21636C14.0761 3.9808 14.6875 4.38398 14.6875 4.98199V4.98199C14.6875 5.3152 14.4889 5.61635 14.1826 5.74761L8.73767 8.08118C8.48612 8.18898 8.20138 8.18898 7.94983 8.08118L2.50485 5.74761Z" fill="#DD4D4D"/>
<path d="M2.50485 12.9976C2.19858 12.8664 2 12.5652 2 12.232V12.232C2 11.634 2.61145 11.2308 3.1611 11.4664L7.94983 13.5187C8.20138 13.6265 8.48612 13.6265 8.73767 13.5187L13.5264 11.4664C14.0761 11.2308 14.6875 11.634 14.6875 12.232V12.232C14.6875 12.5652 14.4889 12.8664 14.1826 12.9976L8.73767 15.3312C8.48612 15.439 8.20138 15.439 7.94983 15.3312L2.50485 12.9976Z" fill="#DD4D4D"/>
<path d="M9.25 14.5938L7.4375 14.5937L7.4375 7.34375L9.25 7.34375C9.25 10.1751 9.25 11.7624 9.25 14.5938Z" fill="#DD4D4D"/>
</svg>
