<svg width="16" height="16" viewBox="0 0 16 16" fill="none" xmlns="http://www.w3.org/2000/svg">
<path fill-rule="evenodd" clip-rule="evenodd" d="M0.999756 0C0.447471 0 -0.000244141 0.447715 -0.000244141 1V15C-0.000244141 15.5523 0.447471 16 0.999756 16H14.9998C15.552 16 15.9998 15.5523 15.9998 15V1C15.9998 0.447715 15.552 0 14.9998 0H0.999756ZM2.10319 14.8543C2.22556 15.1107 2.42587 15.3578 2.74386 15.4486C3.05683 15.5379 3.34862 15.4365 3.56769 15.3068C3.99127 15.056 4.41684 14.5396 4.81671 13.9384C5.2108 13.346 5.62393 12.602 6.02942 11.7753C6.76639 11.4454 7.57553 11.1439 8.39209 10.8897C9.19943 10.6383 9.99887 10.4378 10.7275 10.3016C11.0377 10.5823 11.3447 10.8291 11.6408 11.0312C12.1323 11.3669 12.6551 11.6228 13.1482 11.6515C13.4061 11.6665 13.67 11.6199 13.9085 11.4761C14.147 11.3322 14.3206 11.1149 14.4384 10.8559C14.5504 10.6094 14.6107 10.3369 14.5505 10.0633C14.4878 9.77825 14.3114 9.56857 14.0986 9.42738C13.7104 9.16997 13.141 9.09757 12.5674 9.09866C12.1193 9.0995 11.6049 9.14656 11.0511 9.23188C10.486 8.67586 9.90355 7.99778 9.36439 7.26676C8.99187 6.76166 8.64668 6.24035 8.3464 5.72728C8.57756 4.89902 8.75066 4.12296 8.84139 3.4561C8.9392 2.73723 8.95525 2.05682 8.77731 1.5731C8.68333 1.31764 8.51425 1.06159 8.22126 0.92383C7.9295 0.786644 7.61504 0.813975 7.33018 0.91083C6.72716 1.11586 6.37686 1.5648 6.25508 2.12892C6.14132 2.65587 6.22733 3.26672 6.40971 3.87818C6.59432 4.49716 6.8948 5.17211 7.26924 5.8548C7.01741 6.70629 6.70517 7.61457 6.3569 8.51609C6.02117 9.38517 5.65591 10.2377 5.28515 11.0171C4.6834 11.3016 4.1277 11.6074 3.65244 11.9267C3.0732 12.3158 2.576 12.7494 2.2728 13.2205C1.95981 13.7068 1.82957 14.281 2.10319 14.8543ZM4.21005 12.7568C4.29427 12.7002 4.38163 12.6439 4.47191 12.5879C4.30608 12.8788 4.14273 13.1461 3.98409 13.3846C3.59042 13.9764 3.27052 14.3206 3.05825 14.4463C3.04627 14.4534 3.03576 14.4591 3.02664 14.4637C3.02042 14.453 3.01339 14.4397 3.00567 14.4235C2.92424 14.2529 2.92715 14.0515 3.11369 13.7617C3.31002 13.4567 3.67875 13.1137 4.21005 12.7568ZM2.97868 14.4825L2.98103 14.4821C2.97944 14.4825 2.97867 14.4825 2.97868 14.4825ZM3.05442 14.5036C3.05614 14.505 3.05695 14.5058 3.05693 14.5059C3.0569 14.506 3.05604 14.5053 3.05442 14.5036ZM7.28972 8.87645C7.08618 9.40333 6.87078 9.92758 6.64845 10.4365C7.12371 10.254 7.61031 10.0857 8.09482 9.93488C8.69226 9.74887 9.29435 9.58685 9.87609 9.45623C9.42132 8.96587 8.97448 8.42283 8.5596 7.86032C8.35252 7.57954 8.15149 7.29131 7.95986 6.9995C7.75708 7.61997 7.53072 8.2526 7.28972 8.87645ZM12.2047 10.2054C12.1636 10.1774 12.1222 10.1482 12.0804 10.118C12.2531 10.1055 12.4165 10.0989 12.5693 10.0987C13.1147 10.0976 13.4217 10.1784 13.5458 10.2607C13.5612 10.2709 13.5697 10.2784 13.5741 10.2829C13.5744 10.2982 13.5712 10.3471 13.528 10.4421C13.4767 10.5549 13.4252 10.5997 13.3921 10.6197C13.3588 10.6398 13.3042 10.6589 13.2063 10.6532C12.9878 10.6404 12.6494 10.5091 12.2047 10.2054ZM13.5762 10.2852C13.5771 10.2872 13.5779 10.2881 13.5781 10.2882C13.5782 10.2882 13.5781 10.2878 13.5776 10.2871C13.5773 10.2867 13.5768 10.286 13.5762 10.2852ZM7.85052 3.32128C7.80657 3.64429 7.74088 3.99894 7.65647 4.37734C7.53943 4.1043 7.44218 3.84112 7.36799 3.59236C7.2059 3.0489 7.17039 2.62793 7.23256 2.33994C7.28671 2.08911 7.40979 1.93998 7.65209 1.8576C7.73363 1.82988 7.77668 1.8285 7.79369 1.82985C7.80243 1.84024 7.81929 1.86532 7.8388 1.91835C7.92527 2.15342 7.94608 2.61895 7.85052 3.32128ZM7.8025 1.83127C7.80248 1.83131 7.80175 1.83117 7.80039 1.8307C7.80185 1.83099 7.80252 1.83122 7.8025 1.83127ZM7.78954 1.82535C7.78798 1.82431 7.78727 1.82362 7.7873 1.82354C7.78733 1.82346 7.78811 1.82398 7.78954 1.82535Z" fill="#DD4D4D"/>
</svg>
