<svg width="16" height="16" viewBox="0 0 16 16" fill="none" xmlns="http://www.w3.org/2000/svg">
<path fill-rule="evenodd" clip-rule="evenodd" d="M1 0C0.447715 0 0 0.447715 0 1V15C0 15.5523 0.447715 16 1 16H15C15.5523 16 16 15.5523 16 15V1C16 0.447715 15.5523 0 15 0H1ZM4 2C3.44772 2 3 2.44772 3 3V13C3 13.5523 3.44772 14 4 14H12.0055C12.5813 14 13.0382 13.515 13.0037 12.9402L12.7077 8L12.4045 2.94018C12.3728 2.41208 11.9353 2 11.4063 2H4Z" fill="#B77AD3"/>
<path d="M5.7207 11.6426V5.94141C5.7207 5.83594 5.75391 5.75 5.82031 5.68359C5.89062 5.61328 5.97656 5.57812 6.07812 5.57812H9.03125V4.83398C9.03125 4.73242 9.06445 4.64844 9.13086 4.58203C9.20117 4.51172 9.28906 4.47656 9.39453 4.47656H10.4609C10.5625 4.47656 10.6465 4.51172 10.7129 4.58203C10.7832 4.64844 10.8184 4.73242 10.8184 4.83398V6.63867C10.8184 6.74023 10.7832 6.82617 10.7129 6.89648C10.6465 6.96289 10.5625 6.99609 10.4609 6.99609H7.74805V11.6426C7.74805 11.7441 7.71289 11.8301 7.64258 11.9004C7.57617 11.9668 7.49219 12 7.39062 12H6.07812C5.97656 12 5.89062 11.9668 5.82031 11.9004C5.75391 11.8301 5.7207 11.7441 5.7207 11.6426Z" fill="#B77AD3"/>
</svg>
