<svg width="16" height="16" viewBox="0 0 16 16" fill="none" xmlns="http://www.w3.org/2000/svg">
<mask id="mask0_810_488" style="mask-type:alpha" maskUnits="userSpaceOnUse" x="0" y="0" width="16" height="16">
<rect width="16" height="16" rx="1" fill="#D9D9D9"/>
</mask>
<g mask="url(#mask0_810_488)">
<path fill-rule="evenodd" clip-rule="evenodd" d="M1 0C0.447715 0 0 0.447715 0 1V15C0 15.5523 0.447715 16 1 16H15C15.5523 16 16 15.5523 16 15V1C16 0.447715 15.5523 0 15 0H1ZM4 2C3.44772 2 3 2.44772 3 3V13C3 13.5523 3.44772 14 4 14H12.0055C12.5813 14 13.0382 13.515 13.0037 12.9402L12.7077 8L12.4045 2.94018C12.3728 2.41208 11.9353 2 11.4063 2H4Z" fill="#B77AD3"/>
<path d="M7.156 12.644C6.94 12.644 6.76 12.612 6.616 12.548C6.472 12.492 6.352 12.42 6.256 12.332C6.168 12.236 6.104 12.132 6.064 12.02C6.032 11.9 6.016 11.78 6.016 11.66C6.016 11.564 6.028 11.452 6.052 11.324C6.076 11.188 6.1 11.076 6.124 10.988L7.036 7.328H6.064L6.244 6.608L9.088 6.068L7.708 11.588L7.924 11.684L9.004 10.316L9.436 10.568L8.764 11.588C8.484 12.012 8.204 12.296 7.924 12.44C7.644 12.576 7.388 12.644 7.156 12.644ZM7.12 5.252C6.88 5.252 6.688 5.18 6.544 5.036C6.408 4.892 6.34 4.724 6.34 4.532C6.34 4.452 6.352 4.364 6.376 4.268C6.424 4.084 6.532 3.924 6.7 3.788C6.868 3.652 7.072 3.584 7.312 3.584C7.552 3.584 7.74 3.656 7.876 3.8C8.02 3.944 8.092 4.112 8.092 4.304C8.092 4.384 8.08 4.472 8.056 4.568C8.008 4.752 7.9 4.912 7.732 5.048C7.564 5.184 7.36 5.252 7.12 5.252ZM9.64 5.252C9.4 5.252 9.208 5.18 9.064 5.036C8.928 4.892 8.86 4.724 8.86 4.532C8.86 4.452 8.872 4.364 8.896 4.268C8.944 4.084 9.052 3.924 9.22 3.788C9.388 3.652 9.592 3.584 9.832 3.584C10.072 3.584 10.26 3.656 10.396 3.8C10.54 3.944 10.612 4.112 10.612 4.304C10.612 4.384 10.6 4.472 10.576 4.568C10.528 4.752 10.42 4.912 10.252 5.048C10.084 5.184 9.88 5.252 9.64 5.252Z" fill="#B77AD3"/>
</g>
</svg>
