<svg width="16" height="18" viewBox="0 0 16 18" fill="none" xmlns="http://www.w3.org/2000/svg">
<path d="M8 11.5852C5.82428 11.5852 3.88944 11.2624 2.51754 10.7307C1.83041 10.4644 1.31094 10.1559 0.971144 9.83225C0.635346 9.51245 0.499999 9.2048 0.499999 8.91513C0.499999 8.62598 0.636758 8.31406 0.977239 7.98736C1.32091 7.6576 1.84517 7.34176 2.53606 7.06828C3.9155 6.52224 5.85714 6.18516 8.03036 6.18517C10.2055 6.18517 12.1462 6.51445 13.5161 7.05962C14.2022 7.33265 14.7177 7.64899 15.0509 7.98083C15.3786 8.30728 15.5093 8.62498 15.4995 8.93246C15.4794 9.56161 14.8759 10.2366 13.4629 10.7709C12.0997 11.2863 10.18 11.5852 8 11.5852Z" stroke="#0092DA"/>
<path d="M5.46158 10.2478C4.40559 8.41875 3.74171 6.62576 3.5312 5.20271C3.42579 4.4901 3.43822 3.89781 3.55113 3.44969C3.66263 3.00716 3.86183 2.73742 4.11446 2.59157C4.3679 2.44524 4.70553 2.40606 5.15087 2.52908C5.60092 2.65341 6.12655 2.93604 6.69687 3.37989C7.83585 4.26632 9.06842 5.7296 10.1231 7.55642C11.1788 9.38492 11.836 11.1793 12.0303 12.6004C12.1276 13.3119 12.1049 13.9012 11.9806 14.3453C11.8585 14.7819 11.6477 15.0526 11.3734 15.1998C10.8136 15.5001 9.94169 15.3291 8.80532 14.419C7.70492 13.5377 6.51977 12.0806 5.46158 10.2478Z" stroke="#0092DA"/>
<path d="M10.0936 10.2212C11.1496 8.3922 11.8135 6.59921 12.024 5.17616C12.1294 4.46355 12.117 3.87126 12.0041 3.42314C11.8926 2.98061 11.6934 2.71087 11.4407 2.56502C11.1873 2.41869 10.8497 2.37951 10.4043 2.50253C9.95429 2.62686 9.42865 2.90949 8.85834 3.35334C7.71935 4.23977 6.48679 5.70305 5.43208 7.52987C4.37639 9.35837 3.71922 11.1527 3.5249 12.5738C3.42761 13.2853 3.45034 13.8747 3.57458 14.3188C3.6967 14.7553 3.90755 15.0261 4.18177 15.1732C4.74158 15.4736 5.61352 15.3026 6.74988 14.3925C7.85029 13.5112 9.03544 12.0541 10.0936 10.2212Z" stroke="#0092DA"/>
<path d="M8.5 8.85475C8.5 8.42039 8.19416 8.10001 7.76171 8.10001C7.31696 8.10001 7 8.43297 7 8.85475C7 9.27763 7.30359 9.60587 7.76832 9.59993C8.0199 9.59671 8.19433 9.50755 8.30684 9.38916C8.42196 9.26801 8.5 9.0866 8.5 8.85475Z" fill="#0092DA" stroke="#0092DA"/>
</svg>
