<svg width="16" height="17" viewBox="0 0 16 17" fill="none" xmlns="http://www.w3.org/2000/svg">
<path d="M8 11.0638C5.82428 11.0638 3.88944 10.741 2.51754 10.2093C1.83041 9.94304 1.31094 9.63448 0.971144 9.31087C0.635347 8.99107 0.5 8.68343 0.5 8.39376C0.5 8.1046 0.636759 7.79268 0.97724 7.46598C1.32091 7.13622 1.84517 6.82038 2.53606 6.5469C3.9155 6.00087 5.85714 5.66379 8.03036 5.66379C10.2055 5.66379 12.1462 5.99307 13.5161 6.53824C14.2022 6.81127 14.7177 7.12762 15.0509 7.45945C15.3786 7.7859 15.5093 8.1036 15.4995 8.41108C15.4794 9.04023 14.8759 9.71523 13.4629 10.2495C12.0997 10.7649 10.18 11.0638 8 11.0638Z" stroke="#FFC530"/>
<path d="M5.46158 9.72637C4.40559 7.89736 3.74171 6.10437 3.5312 4.68132C3.42579 3.9687 3.43822 3.37642 3.55113 2.9283C3.66263 2.48577 3.86183 2.21603 4.11446 2.07017C4.3679 1.92385 4.70553 1.88467 5.15087 2.00769C5.60092 2.13201 6.12655 2.41465 6.69687 2.8585C7.83585 3.74493 9.06842 5.20821 10.1231 7.03502C11.1788 8.86353 11.836 10.6579 12.0303 12.079C12.1276 12.7905 12.1049 13.3798 11.9806 13.8239C11.8585 14.2605 11.6477 14.5313 11.3734 14.6784C10.8136 14.9788 9.94169 14.8077 8.80532 13.8976C7.70492 13.0163 6.51977 11.5592 5.46158 9.72637Z" stroke="#FFC530"/>
<path d="M10.0936 9.69982C11.1496 7.87081 11.8135 6.07782 12.024 4.65477C12.1294 3.94215 12.117 3.34987 12.0041 2.90175C11.8926 2.45922 11.6934 2.18948 11.4407 2.04362C11.1873 1.8973 10.8497 1.85812 10.4043 1.98114C9.95429 2.10546 9.42865 2.3881 8.85834 2.83195C7.71935 3.71838 6.48679 5.18166 5.43208 7.00847C4.37639 8.83698 3.71922 10.6313 3.5249 12.0524C3.42761 12.7639 3.45034 13.3533 3.57458 13.7974C3.6967 14.2339 3.90755 14.5047 4.18177 14.6518C4.74158 14.9522 5.61352 14.7812 6.74988 13.8711C7.85029 12.9898 9.03544 11.5327 10.0936 9.69982Z" stroke="#FFC530"/>
<path d="M8.5 8.33336C8.5 7.89899 8.19416 7.57861 7.76171 7.57861C7.31696 7.57861 7 7.91158 7 8.33336C7 8.75624 7.30359 9.08447 7.76832 9.07853C8.0199 9.07532 8.19433 8.98616 8.30684 8.86776C8.42196 8.74662 8.5 8.56521 8.5 8.33336Z" fill="#0092DA" stroke="#FFC530"/>
</svg>
