<svg width="16" height="17" viewBox="0 0 16 17" fill="none" xmlns="http://www.w3.org/2000/svg">
<path d="M7.9749 10.724C7.5829 10.724 7.3029 10.6727 7.1349 10.57C6.97623 10.458 6.87823 10.318 6.8409 10.15C6.8129 9.982 6.7989 9.80933 6.7989 9.632V9.534C6.7989 9.23533 6.84557 8.99733 6.9389 8.82C7.04157 8.64267 7.16757 8.50267 7.3169 8.4C7.47557 8.288 7.64357 8.19933 7.8209 8.134C7.99823 8.05933 8.16157 7.98933 8.3109 7.924C8.46957 7.84933 8.59557 7.76067 8.6889 7.658C8.79157 7.546 8.8429 7.39667 8.8429 7.21C8.8429 6.93933 8.76823 6.74333 8.6189 6.622C8.46957 6.50067 8.2269 6.44 7.8909 6.44C7.74157 6.44 7.61557 6.45867 7.5129 6.496C7.41023 6.53333 7.3309 6.58 7.2749 6.636C7.22823 6.68267 7.1909 6.734 7.1629 6.79C7.06957 7.07 6.96223 7.28933 6.8409 7.448C6.7289 7.60667 6.58423 7.70467 6.4069 7.742C6.22957 7.77 5.99157 7.728 5.6929 7.616C5.37557 7.48533 5.14223 7.35933 4.9929 7.238C4.8529 7.11667 4.77357 6.972 4.7549 6.804C4.74557 6.636 4.7829 6.41667 4.8669 6.146C4.87623 6.118 4.9089 6.034 4.9649 5.894C5.03023 5.74467 5.12823 5.572 5.2589 5.376C5.38957 5.17067 5.5669 4.97 5.7909 4.774C6.02423 4.578 6.3089 4.41467 6.6449 4.284C6.99023 4.15333 7.40557 4.088 7.8909 4.088C8.5069 4.088 9.05757 4.228 9.5429 4.508C10.0376 4.77867 10.4249 5.14733 10.7049 5.614C10.9942 6.07133 11.1389 6.58933 11.1389 7.168C11.1389 7.588 11.0736 7.952 10.9429 8.26C10.8122 8.55867 10.6489 8.806 10.4529 9.002C10.2569 9.198 10.0562 9.352 9.8509 9.464C9.6549 9.576 9.48223 9.65533 9.3329 9.702C9.1929 9.74867 9.1089 9.772 9.0809 9.772L9.1789 9.604V9.744C9.1789 9.90267 9.16023 10.0613 9.1229 10.22C9.08557 10.3693 8.9829 10.4907 8.8149 10.584C8.6469 10.6773 8.3669 10.724 7.9749 10.724ZM7.9329 14.14C7.39157 14.14 7.03223 14.0373 6.8549 13.832C6.6869 13.6267 6.6029 13.2767 6.6029 12.782C6.6029 12.5767 6.62157 12.3713 6.6589 12.166C6.69623 11.9607 6.80823 11.7927 6.9949 11.662C7.18157 11.522 7.4989 11.452 7.9469 11.452C8.49757 11.452 8.8569 11.5547 9.0249 11.76C9.20223 11.9653 9.2909 12.3153 9.2909 12.81C9.2909 13.0153 9.27223 13.2207 9.2349 13.426C9.19757 13.6313 9.0809 13.804 8.8849 13.944C8.69823 14.0747 8.3809 14.14 7.9329 14.14Z" fill="#5AB8CD"/>
<circle cx="8" cy="9" r="7.25" stroke="#348192" stroke-width="1.5"/>
</svg>
