<svg width="16" height="16" viewBox="0 0 16 16" fill="none" xmlns="http://www.w3.org/2000/svg">
<mask id="mask0_227_444" style="mask-type:alpha" maskUnits="userSpaceOnUse" x="0" y="0" width="16" height="16">
<path d="M0 1C0 0.44772 0.447715 4.76837e-06 1 4.76837e-06H15C15.5523 4.76837e-06 16 0.44772 16 1V15C16 15.5523 15.5523 16 15 16H1C0.447715 16 0 15.5523 0 15V1Z" fill="#D9D9D9"/>
</mask>
<g mask="url(#mask0_227_444)">
<path fill-rule="evenodd" clip-rule="evenodd" d="M15.3508 0.833835C10.4011 1.54094 7.92621 2.6016 4.74423 5.78358C3.93075 5.52022 2.97648 5.43004 2.26938 6.13714C1.56228 6.84425 1.20872 7.1978 0.148066 10.3798C1.39444 10.0399 2.27769 9.99044 2.96073 9.95223C3.08389 9.94533 3.20054 9.93881 3.31163 9.93101L6.24264 7L6.94975 7.70711L3.62679 11.0301L5.41968 12.823L8.79032 9.45232L9.49742 10.1594L6.22776 13.4291C6.18898 14.0833 6.11943 14.9143 5.81153 16.0432C8.99352 14.9826 9.34707 14.629 10.0542 13.9219C10.7613 13.2148 10.6711 12.2605 10.4077 11.4471L10.4011 11.4404C13.5831 8.25845 14.6437 5.78358 15.3508 0.833835ZM4.30247 12.9408L4.77412 13.4124C4.74425 14.2689 3.68358 14.6224 1.59213 14.4731C1.56227 12.5011 1.91583 11.4404 2.785 11.4233L3.19587 11.8342C2.62293 12.1475 2.62293 12.8547 2.79971 13.385C3.33004 13.5618 4.03714 13.5618 4.30247 12.9408ZM11 7C12.1046 7 13 6.10457 13 5C13 3.89543 12.1046 3 11 3C9.89546 3 9.00003 3.89543 9.00003 5C9.00003 6.10457 9.89546 7 11 7Z" fill="#DB7F3C"/>
</g>
</svg>
