<svg width="16" height="16" viewBox="0 0 16 16" fill="none" xmlns="http://www.w3.org/2000/svg">
<rect x="0.5" y="0.5" width="15" height="15" rx="7.5" stroke="#D683AA" stroke-linecap="round" stroke-dasharray="3 3"/>
<path fill-rule="evenodd" clip-rule="evenodd" d="M8 2C4.68629 2 2 4.68629 2 8C2 11.3137 4.68629 14 8 14C11.3137 14 14 11.3137 14 8C14 4.68629 11.3137 2 8 2ZM10.772 4.056C10.772 3.96933 10.5813 3.70067 10.2 3.25C10.0613 3.094 9.89233 3.016 9.693 3.016C9.62367 3.016 9.52833 3.03333 9.407 3.068C8.497 3.406 7.73867 3.77867 7.132 4.186C6.73333 4.45467 6.42133 4.771 6.196 5.135C5.97933 5.49033 5.871 5.889 5.871 6.331C5.871 6.76433 5.96633 7.176 6.157 7.566C6.35633 7.956 6.638 8.255 7.002 8.463C7.12333 8.53233 7.405 8.66667 7.847 8.866C8.29767 9.06533 8.60533 9.22567 8.77 9.347C8.88267 9.44233 8.939 9.53767 8.939 9.633C8.939 9.72833 8.83067 9.83667 8.614 9.958C8.50133 9.854 8.354 9.75867 8.172 9.672C7.99 9.57667 7.834 9.529 7.704 9.529C6.47333 9.529 5.58067 9.737 5.026 10.153C4.792 10.3263 4.675 10.4997 4.675 10.673C4.675 10.8377 4.779 10.9937 4.987 11.141C4.86567 11.3057 4.805 11.479 4.805 11.661C4.805 12.2157 5.10833 12.493 5.715 12.493C6.859 12.493 8.16333 12.038 9.628 11.128C9.76667 11.0413 9.87933 10.9113 9.966 10.738C10.0613 10.556 10.109 10.3827 10.109 10.218C10.109 9.802 9.93567 9.37733 9.589 8.944C9.37233 8.66667 8.84367 8.30267 8.003 7.852C7.587 7.63533 7.353 7.50967 7.301 7.475C6.95433 7.27567 6.781 7.06333 6.781 6.838C6.781 6.72533 6.82433 6.58233 6.911 6.409C7.301 5.64633 7.99433 5.08733 8.991 4.732C9.043 4.71467 9.082 4.706 9.108 4.706C9.14267 4.706 9.16 4.72333 9.16 4.758C9.16 4.79267 9.09933 4.92267 8.978 5.148C8.86533 5.37333 8.809 5.55533 8.809 5.694C8.809 5.824 8.85233 5.889 8.939 5.889C8.99967 5.889 9.09067 5.837 9.212 5.733C9.758 5.265 10.2347 4.80133 10.642 4.342C10.7287 4.238 10.772 4.14267 10.772 4.056ZM7.431 10.426C7.54367 10.426 7.64333 10.4347 7.73 10.452C7.06267 10.8247 6.612 11.011 6.378 11.011C6.31733 11.011 6.287 10.985 6.287 10.933C6.287 10.803 6.44733 10.686 6.768 10.582C7.09733 10.478 7.31833 10.426 7.431 10.426Z" fill="#D683AA"/>
</svg>
