<svg width="16" height="16" viewBox="0 0 16 16" fill="none" xmlns="http://www.w3.org/2000/svg">
<rect x="0.5" y="0.5" width="15" height="15" rx="2.5" stroke="#C5C5C5" stroke-dasharray="3 3"/>
<path d="M4.5 8L4.5 12C4.5 12.2761 4.72386 12.5 5 12.5L11 12.5C11.2761 12.5 11.5 12.2761 11.5 12L11.5 8C11.5 7.72386 11.2761 7.5 11 7.5L5 7.5C4.72386 7.5 4.5 7.72386 4.5 8Z" stroke="#FFC530"/>
<path d="M7.735 3.75525L3.2218 6.576C2.79581 6.84224 2.98445 7.5 3.4868 7.5L12.5132 7.5C13.0155 7.5 13.2042 6.84224 12.7782 6.576L8.265 3.75525C8.10286 3.65391 7.89714 3.65391 7.735 3.75525Z" stroke="#FFC530"/>
</svg>
