<svg width="16" height="16" viewBox="0 0 16 16" fill="none" xmlns="http://www.w3.org/2000/svg">
<path fill-rule="evenodd" clip-rule="evenodd" d="M8 0C3.58172 0 0 3.58172 0 8C0 12.4183 3.58172 16 8 16C12.4183 16 16 12.4183 16 8C16 3.58172 12.4183 0 8 0ZM9.78572 8.00001C9.78572 8.98623 8.98623 9.78572 8.00001 9.78572C7.01379 9.78572 6.21429 8.98623 6.21429 8.00001C6.21429 7.01379 7.01379 6.21429 8.00001 6.21429C8.98623 6.21429 9.78572 7.01379 9.78572 8.00001ZM8.97273 12.1749C9.42718 12.0694 9.85391 11.8916 10.2401 11.6544L11.2021 12.6163C11.3192 12.7335 11.5092 12.7335 11.6263 12.6163L12.6163 11.6263C12.7334 11.5092 12.7334 11.3192 12.6163 11.2021L11.6544 10.2402C11.8916 9.85391 12.0694 9.42718 12.1749 8.97273C12.2129 8.99023 12.2553 9 12.3 9H13.7C13.8657 9 14 8.86569 14 8.7V7.3C14 7.13431 13.8657 7 13.7 7H12.3C12.2553 7 12.2129 7.00977 12.1749 7.02728C12.0594 6.52962 11.8572 6.0652 11.5851 5.6508C11.5996 5.64073 11.6134 5.62923 11.6263 5.6163L12.6163 4.62635C12.7334 4.50919 12.7334 4.31924 12.6163 4.20208L11.6263 3.21213C11.5092 3.09497 11.3192 3.09497 11.2021 3.21213L10.2121 4.20208C10.1854 4.22881 10.1648 4.25934 10.1502 4.29192C9.78804 4.08144 9.39219 3.9225 8.97272 3.82516C8.99023 3.78706 9 3.74467 9 3.7V2.3C9 2.13431 8.86569 2 8.7 2H7.3C7.13431 2 7 2.13431 7 2.3V3.7C7 3.74467 7.00977 3.78707 7.02728 3.82516C6.55017 3.93589 6.10362 4.12629 5.7024 4.38158C5.69527 4.31601 5.66657 4.25235 5.61631 4.20208L4.62636 3.21213C4.5092 3.09497 4.31925 3.09497 4.20209 3.21213L3.21214 4.20208C3.09499 4.31924 3.09499 4.50919 3.21214 4.62635L4.20209 5.6163C4.25236 5.66656 4.31602 5.69526 4.38159 5.70239C4.12629 6.10361 3.93589 6.55017 3.82516 7.02728C3.78707 7.00977 3.74467 7 3.7 7H2.3C2.13431 7 2 7.13431 2 7.3V8.7C2 8.86569 2.13431 9 2.3 9H3.7C3.74467 9 3.78706 8.99023 3.82516 8.97272C3.9225 9.39219 4.08144 9.78805 4.29192 10.1502C4.25934 10.1648 4.22882 10.1854 4.20209 10.2121L3.21214 11.2021C3.09499 11.3192 3.09499 11.5092 3.21214 11.6263L4.20209 12.6163C4.31925 12.7335 4.5092 12.7335 4.62636 12.6163L5.61631 11.6263C5.62924 11.6134 5.64074 11.5996 5.65082 11.5851C6.06521 11.8572 6.52962 12.0594 7.02728 12.1749C7.00977 12.2129 7 12.2553 7 12.3V13.7C7 13.8657 7.13431 14 7.3 14H8.7C8.86569 14 9 13.8657 9 13.7V12.3C9 12.2553 8.99023 12.2129 8.97273 12.1749Z" fill="#FFC530"/>
</svg>
