<svg width="16" height="16" viewBox="0 0 16 16" fill="none" xmlns="http://www.w3.org/2000/svg">
<path fill-rule="evenodd" clip-rule="evenodd" d="M2 8C2 11.3137 4.68629 14 8 14C11.3137 14 14 11.3137 14 8C14 4.68629 11.3137 2 8 2C4.68629 2 2 4.68629 2 8ZM8 1C4.13401 1 1 4.13401 1 8C1 11.866 4.13401 15 8 15C11.866 15 15 11.866 15 8C15 4.13401 11.866 1 8 1Z" fill="#C5C5C5"/>
<circle cx="8.00002" cy="8.00002" r="2.82143" stroke="#CF5E3B" stroke-width="1.5"/>
<rect x="7.16666" y="3" width="1.66667" height="1.66667" rx="0.3" fill="#CF5E3B"/>
<rect x="7.16666" y="11.3333" width="1.66667" height="1.66667" rx="0.3" fill="#CF5E3B"/>
<rect x="11.3333" y="7.16669" width="1.66667" height="1.66667" rx="0.3" fill="#CF5E3B"/>
<rect x="3" y="7.16669" width="1.66667" height="1.66667" rx="0.3" fill="#CF5E3B"/>
<rect x="5.01184" y="3.83331" width="1.66667" height="1.66667" rx="0.3" transform="rotate(45 5.01184 3.83331)" fill="#CF5E3B"/>
<rect x="10.8452" y="3.83331" width="1.66667" height="1.66667" rx="0.3" transform="rotate(45 10.8452 3.83331)" fill="#CF5E3B"/>
<rect x="10.8452" y="9.66669" width="1.66667" height="1.66667" rx="0.3" transform="rotate(45 10.8452 9.66669)" fill="#CF5E3B"/>
<rect x="5.01184" y="9.66669" width="1.66667" height="1.66667" rx="0.3" transform="rotate(45 5.01184 9.66669)" fill="#CF5E3B"/>
</svg>
