<svg width="16" height="16" viewBox="0 0 16 16" fill="none" xmlns="http://www.w3.org/2000/svg">
<path d="M14.4371 3C15.1669 3 15.6509 3.75644 15.345 4.41906L11.9079 11.8661C11.4586 12.8397 9.99999 12.5193 9.99999 11.447L9.99999 4C9.99999 3.44771 10.4477 3 11 3L14.4371 3Z" fill="#B5B5B5"/>
<path d="M1.56291 3C0.833119 3 0.349126 3.75644 0.654951 4.41906L4.09204 11.8661C4.54139 12.8397 6.00001 12.5193 6 11.447L6 4C6 3.44771 5.55229 3 5 3L1.56291 3Z" fill="#B5B5B5"/>
<path d="M6.99998 9.00002C6.99998 8.44773 7.4477 8.00002 7.99998 8.00002V8.00002C8.55227 8.00002 8.99998 8.44773 8.99998 9.00002V9.00002C8.99998 9.5523 8.55227 10 7.99998 10V10C7.4477 10 6.99998 9.5523 6.99998 9.00002V9.00002Z" fill="#FF7DAC"/>
<path d="M7 5C7 4.44772 7.44772 4 8 4V4C8.55228 4 9 4.44772 9 5V5C9 5.55228 8.55228 6 8 6V6C7.44772 6 7 5.55228 7 5V5Z" fill="#FF7DAC"/>
</svg>
