<svg width="16" height="16" viewBox="0 0 16 16" fill="none" xmlns="http://www.w3.org/2000/svg">
<path d="M1 4.04464C1 3.21249 1.95708 2.7444 2.61394 3.25529L5.11394 5.19973C5.35753 5.38919 5.5 5.68049 5.5 5.98908V10.8775C5.5 11.2383 5.3056 11.5712 4.99132 11.7485L2.49132 13.1587C1.8247 13.5348 1 13.0531 1 12.2878V8.5V4.04464Z" fill="#B5B5B5"/>
<path d="M15 4.04464C15 3.21249 14.0429 2.7444 13.3861 3.25529L10.8861 5.19973C10.6425 5.38919 10.5 5.68049 10.5 5.98908V10.8775C10.5 11.2383 10.6944 11.5712 11.0087 11.7485L13.5087 13.1587C14.1753 13.5348 15 13.0531 15 12.2878V8.5V4.04464Z" fill="#B5B5B5"/>
<path d="M6 6.5C6 5.94772 6.44772 5.5 7 5.5H9C9.55228 5.5 10 5.94772 10 6.5V11C10 11.5523 9.55228 12 9 12H7C6.44772 12 6 11.5523 6 11V6.5Z" fill="#B5B5B5"/>
</svg>
