<svg width="16" height="16" viewBox="0 0 16 16" fill="none" xmlns="http://www.w3.org/2000/svg">
<path fill-rule="evenodd" clip-rule="evenodd" d="M0 1C0 0.447715 0.447715 0 1 0H15C15.5523 0 16 0.447715 16 1V15C16 15.5523 15.5523 16 15 16H1C0.447715 16 0 15.5523 0 15V1ZM7.62378 1.59312C8.00371 0.902344 8.99629 0.902345 9.37621 1.59312L13.1849 8.51808C13.5515 9.18453 13.0693 10 12.3087 10H4.69127C3.93067 10 3.44851 9.18453 3.81506 8.51808L7.62378 1.59312ZM6 14V14.7929C6 15.2383 5.46143 15.4614 5.14645 15.1464L3.35355 13.3536C3.15829 13.1583 3.15829 12.8417 3.35355 12.6464L5.14645 10.8536C5.46143 10.5386 6 10.7617 6 11.2071V12H11V11.2071C11 10.7617 11.5386 10.5386 11.8536 10.8536L13.6464 12.6464C13.8417 12.8417 13.8417 13.1583 13.6464 13.3536L11.8536 15.1464C11.5386 15.4614 11 15.2383 11 14.7929V14H6Z" fill="#C2C2C2"/>
</svg>
