<svg width="16" height="10" viewBox="0 0 16 10" fill="none" xmlns="http://www.w3.org/2000/svg">
<path fill-rule="evenodd" clip-rule="evenodd" d="M0 1C0 0.447715 0.447715 0 1 0H15C15.5523 0 16 0.447715 16 1V9C16 9.55228 15.5523 10 15 10H1C0.447715 10 0 9.55229 0 9V1ZM2.30902 3.30902C2.11963 3.11963 2.0535 2.8395 2.1382 2.58541C2.30442 2.08673 2.93733 1.93733 3.30902 2.30902L5.29289 4.29289C5.68342 4.68342 5.68342 5.31658 5.29289 5.70711L3.30902 7.69098C2.93733 8.06267 2.30442 7.91327 2.1382 7.41459C2.0535 7.1605 2.11963 6.88037 2.30902 6.69098L3.29289 5.70711C3.68342 5.31658 3.68342 4.68342 3.29289 4.29289L2.30902 3.30902ZM7 8C7.55228 8 8 7.55228 8 7C8 6.44772 7.55228 6 7 6C6.44772 6 6 6.44772 6 7C6 7.55228 6.44772 8 7 8ZM11 7C11 7.55228 10.5523 8 10 8C9.44771 8 9 7.55228 9 7C9 6.44772 9.44771 6 10 6C10.5523 6 11 6.44772 11 7ZM13 8C13.5523 8 14 7.55228 14 7C14 6.44772 13.5523 6 13 6C12.4477 6 12 6.44772 12 7C12 7.55228 12.4477 8 13 8Z" fill="#75DF6C"/>
</svg>
