<svg width="16" height="16" viewBox="0 0 16 16" fill="none" xmlns="http://www.w3.org/2000/svg">
<path fill-rule="evenodd" clip-rule="evenodd" d="M3 2C2.44772 2 2 2.44772 2 3V13C2 13.5523 2.44772 14 3 14H13C13.5523 14 14 13.5523 14 13V3C14 2.44772 13.5523 2 13 2H3ZM7.796 5.394H2.792C2.594 5.394 2.441 5.421 2.333 5.475C2.261 5.511 2.21 5.577 2.18 5.673C2.15 5.763 2.135 5.886 2.135 6.042C2.135 6.198 2.15 6.324 2.18 6.42C2.21 6.516 2.27 6.588 2.36 6.636C2.45 6.678 2.591 6.699 2.783 6.699H4.511V11.217C4.511 11.355 4.514 11.46 4.52 11.532C4.532 11.598 4.559 11.676 4.601 11.766C4.649 11.85 4.727 11.91 4.835 11.946C4.949 11.982 5.099 12 5.285 12C5.471 12 5.621 11.982 5.735 11.946C5.849 11.91 5.927 11.85 5.969 11.766C6.017 11.676 6.044 11.598 6.05 11.532C6.062 11.466 6.068 11.364 6.068 11.226V6.699H7.787C7.985 6.699 8.138 6.672 8.246 6.618C8.318 6.582 8.369 6.519 8.399 6.429C8.429 6.333 8.444 6.207 8.444 6.051C8.444 5.895 8.429 5.769 8.399 5.673C8.369 5.577 8.309 5.508 8.219 5.466C8.129 5.418 7.988 5.394 7.796 5.394ZM8.63223 10.56C8.63223 10.71 8.71023 10.881 8.86623 11.073L8.94723 11.172C9.07323 11.352 9.29523 11.538 9.61323 11.73C9.76923 11.832 9.97323 11.919 10.2252 11.991C10.4772 12.057 10.7442 12.09 11.0262 12.09C11.5782 12.09 12.0972 11.931 12.5832 11.613C12.8352 11.451 13.0392 11.223 13.1952 10.929C13.3512 10.629 13.4292 10.284 13.4292 9.894C13.4292 9.504 13.3512 9.177 13.1952 8.913C13.0452 8.643 12.8562 8.454 12.6282 8.346C12.4002 8.238 12.1512 8.148 11.8812 8.076C11.6112 7.998 11.3622 7.941 11.1342 7.905C10.9062 7.869 10.7142 7.8 10.5582 7.698C10.4082 7.596 10.3332 7.464 10.3332 7.302C10.3332 7.134 10.3962 7.005 10.5222 6.915C10.6542 6.819 10.8162 6.771 11.0082 6.771C11.2062 6.771 11.3682 6.81 11.4942 6.888C11.5362 6.918 11.5812 6.957 11.6292 7.005C11.6832 7.053 11.7192 7.083 11.7372 7.095C11.9232 7.215 12.0792 7.275 12.2052 7.275C12.4212 7.275 12.6312 7.125 12.8352 6.825C12.9792 6.615 13.0512 6.45 13.0512 6.33C13.0512 6.21 12.9582 6.063 12.7722 5.889L12.5472 5.718C12.4332 5.622 12.2262 5.529 11.9262 5.439C11.6322 5.343 11.3052 5.295 10.9452 5.295C10.2672 5.295 9.73023 5.493 9.33423 5.889C8.94423 6.279 8.74923 6.738 8.74923 7.266C8.74923 7.65 8.82423 7.98 8.97423 8.256C9.13023 8.526 9.32223 8.724 9.55023 8.85C9.77823 8.976 10.0242 9.087 10.2882 9.183C10.5522 9.273 10.7982 9.339 11.0262 9.381C11.2542 9.423 11.4432 9.492 11.5932 9.588C11.7492 9.678 11.8272 9.792 11.8272 9.93C11.8272 10.386 11.5482 10.614 10.9902 10.614C10.8582 10.614 10.7142 10.569 10.5582 10.479C10.4022 10.383 10.2822 10.284 10.1982 10.182C9.89823 9.882 9.66423 9.732 9.49623 9.732C9.32823 9.732 9.16923 9.804 9.01923 9.948C8.76123 10.2 8.63223 10.404 8.63223 10.56Z" fill="#389CB1"/>
<rect x="0.5" y="0.5" width="15" height="15" rx="0.5" stroke="#389CB1" stroke-linecap="square" stroke-dasharray="3 3"/>
</svg>
