<svg width="16" height="16" viewBox="0 0 16 16" fill="none" xmlns="http://www.w3.org/2000/svg">
<path fill-rule="evenodd" clip-rule="evenodd" d="M1 0C0.447715 0 0 0.447715 0 1V15C0 15.5523 0.447715 16 1 16H15C15.5523 16 16 15.5523 16 15V1C16 0.447715 15.5523 0 15 0H1ZM7.584 3.926H1.468C1.226 3.926 1.039 3.959 0.907 4.025C0.819 4.069 0.756667 4.14967 0.72 4.267C0.683333 4.377 0.665 4.52733 0.665 4.718C0.665 4.90867 0.683333 5.06267 0.72 5.18C0.756667 5.29733 0.83 5.38533 0.94 5.444C1.05 5.49533 1.22233 5.521 1.457 5.521H3.569V11.043C3.569 11.2117 3.57267 11.34 3.58 11.428C3.59467 11.5087 3.62767 11.604 3.679 11.714C3.73767 11.8167 3.833 11.89 3.965 11.934C4.10433 11.978 4.28767 12 4.515 12C4.74233 12 4.92567 11.978 5.065 11.934C5.20433 11.89 5.29967 11.8167 5.351 11.714C5.40967 11.604 5.44267 11.5087 5.45 11.428C5.46467 11.3473 5.472 11.2227 5.472 11.054V5.521H7.573C7.815 5.521 8.002 5.488 8.134 5.422C8.222 5.378 8.28433 5.301 8.321 5.191C8.35767 5.07367 8.376 4.91967 8.376 4.729C8.376 4.53833 8.35767 4.38433 8.321 4.267C8.28433 4.14967 8.211 4.06533 8.101 4.014C7.991 3.95533 7.81867 3.926 7.584 3.926ZM8.60605 10.24C8.60605 10.4233 8.70139 10.6323 8.89205 10.867L8.99105 10.988C9.14505 11.208 9.41639 11.4353 9.80505 11.67C9.99572 11.7947 10.2451 11.901 10.5531 11.989C10.8611 12.0697 11.1874 12.11 11.5321 12.11C12.2067 12.11 12.8411 11.9157 13.4351 11.527C13.7431 11.329 13.9924 11.0503 14.1831 10.691C14.3737 10.3243 14.4691 9.90267 14.4691 9.426C14.4691 8.94933 14.3737 8.54967 14.1831 8.227C13.9997 7.897 13.7687 7.666 13.4901 7.534C13.2114 7.402 12.9071 7.292 12.5771 7.204C12.2471 7.10867 11.9427 7.039 11.6641 6.995C11.3854 6.951 11.1507 6.86667 10.9601 6.742C10.7767 6.61733 10.6851 6.456 10.6851 6.258C10.6851 6.05267 10.7621 5.895 10.9161 5.785C11.0774 5.66767 11.2754 5.609 11.5101 5.609C11.7521 5.609 11.9501 5.65667 12.1041 5.752C12.1554 5.78867 12.2104 5.83633 12.2691 5.895C12.3351 5.95367 12.3791 5.99033 12.4011 6.005C12.6284 6.15167 12.8191 6.225 12.9731 6.225C13.2371 6.225 13.4937 6.04167 13.7431 5.675C13.9191 5.41833 14.0071 5.21667 14.0071 5.07C14.0071 4.92333 13.8934 4.74367 13.6661 4.531L13.3911 4.322C13.2517 4.20467 12.9987 4.091 12.6321 3.981C12.2727 3.86367 11.8731 3.805 11.4331 3.805C10.6044 3.805 9.94806 4.047 9.46406 4.531C8.98739 5.00767 8.74905 5.56867 8.74905 6.214C8.74905 6.68333 8.84072 7.08667 9.02405 7.424C9.21472 7.754 9.44939 7.996 9.72806 8.15C10.0067 8.304 10.3074 8.43967 10.6301 8.557C10.9527 8.667 11.2534 8.74767 11.5321 8.799C11.8107 8.85033 12.0417 8.93467 12.2251 9.052C12.4157 9.162 12.5111 9.30133 12.5111 9.47C12.5111 10.0273 12.1701 10.306 11.4881 10.306C11.3267 10.306 11.1507 10.251 10.9601 10.141C10.7694 10.0237 10.6227 9.90267 10.5201 9.778C10.1534 9.41133 9.86739 9.228 9.66206 9.228C9.45672 9.228 9.26239 9.316 9.07905 9.492C8.76372 9.8 8.60605 10.0493 8.60605 10.24Z" fill="#389CB1"/>
</svg>
