<svg width="16" height="16" viewBox="0 0 16 16" fill="none" xmlns="http://www.w3.org/2000/svg">
<path fill-rule="evenodd" clip-rule="evenodd" d="M2 3C1.44772 3 1 3.44772 1 4V14C1 14.5523 1.44772 15 2 15H12C12.5523 15 13 14.5523 13 14V4C13 3.44772 12.5523 3 12 3H2ZM9.78277 5.66H4.22277C4.00277 5.66 3.83277 5.69 3.71277 5.75C3.63277 5.79 3.57611 5.86333 3.54277 5.97C3.50944 6.07 3.49277 6.20667 3.49277 6.38C3.49277 6.55333 3.50944 6.69333 3.54277 6.8C3.57611 6.90667 3.64277 6.98667 3.74277 7.04C3.84277 7.08667 3.99944 7.11 4.21277 7.11H6.13277V12.13C6.13277 12.2833 6.13611 12.4 6.14277 12.48C6.15611 12.5533 6.18611 12.64 6.23277 12.74C6.28611 12.8333 6.37277 12.9 6.49277 12.94C6.61944 12.98 6.78611 13 6.99277 13C7.19944 13 7.36611 12.98 7.49277 12.94C7.61944 12.9 7.70611 12.8333 7.75277 12.74C7.80611 12.64 7.83611 12.5533 7.84277 12.48C7.85611 12.4067 7.86277 12.2933 7.86277 12.14V7.11H9.77277C9.99277 7.11 10.1628 7.08 10.2828 7.02C10.3628 6.98 10.4194 6.91 10.4528 6.81C10.4861 6.70333 10.5028 6.56333 10.5028 6.39C10.5028 6.21667 10.4861 6.07667 10.4528 5.97C10.4194 5.86333 10.3528 5.78667 10.2528 5.74C10.1528 5.68667 9.99611 5.66 9.78277 5.66Z" fill="#AAAAAA"/>
<path d="M9 1H13C14.1046 1 15 1.89543 15 3V8.5" stroke="#84C47E" stroke-width="2" stroke-linecap="round"/>
</svg>
