<svg width="16" height="16" viewBox="0 0 16 16" fill="none" xmlns="http://www.w3.org/2000/svg">
<path fill-rule="evenodd" clip-rule="evenodd" d="M14 11C14.5523 11 15 10.5523 15 10L15 2C15 1.44771 14.5523 1 14 1L2 0.999999C1.44772 0.999999 1 1.44771 1 2L1 10C1 10.5523 1.44772 11 2 11L14 11ZM10 10C10.5523 10 11 9.55228 11 9C11 8.44772 10.5523 8 10 8L4 8C3.44772 8 3 8.44771 3 9C3 9.55228 3.44771 10 4 10L10 10ZM13 6C13 6.55228 12.5523 7 12 7L4 7C3.44772 7 3 6.55228 3 6C3 5.44771 3.44772 5 4 5L12 5C12.5523 5 13 5.44772 13 6ZM12 4C12.5523 4 13 3.55228 13 3C13 2.44771 12.5523 2 12 2L4 2C3.44772 2 3 2.44771 3 3C3 3.55228 3.44772 4 4 4L12 4Z" fill="#DCDCDC"/>
<path d="M1 15C0.447715 15 5.87108e-08 14.5523 1.31134e-07 14L2.62268e-07 13C3.34692e-07 12.4477 0.447716 12 1 12L15 12C15.5523 12 16 12.4477 16 13L16 14C16 14.5523 15.5523 15 15 15L1 15Z" fill="#D9D9D9"/>
</svg>
