<svg width="16" height="16" viewBox="0 0 16 16" fill="none" xmlns="http://www.w3.org/2000/svg">
<path fill-rule="evenodd" clip-rule="evenodd" d="M3 0C2.44772 0 2 0.447715 2 1V5V8V11V15C2 15.5523 2.44772 16 3 16H15C15.5523 16 16 15.5523 16 15V1C16 0.447715 15.5523 0 15 0H3ZM2 11C2 11.5523 2.44772 12 3 12H8C8.55228 12 9 11.5523 9 11C9 10.4477 8.55228 10 8 10H3C2.44772 10 2 10.4477 2 11ZM2 8C2 7.44772 2.44772 7 3 7H8C8.55228 7 9 7.44772 9 8C9 8.55229 8.55228 9 8 9H3C2.44772 9 2 8.55229 2 8ZM2 5C2 4.44772 2.44772 4 3 4H8C8.55228 4 9 4.44772 9 5C9 5.55228 8.55228 6 8 6H3C2.44772 6 2 5.55228 2 5Z" fill="#A9A9A9"/>
<path fill-rule="evenodd" clip-rule="evenodd" d="M1 2C0.447715 2 0 2.44772 0 3V13C0 13.5523 0.447715 14 1 14H10C10.5523 14 11 13.5523 11 13V3C11 2.44772 10.5523 2 10 2H1ZM3 4C2.44772 4 2 4.44772 2 5C2 5.55228 2.44772 6 3 6H8C8.55228 6 9 5.55228 9 5C9 4.44772 8.55229 4 8 4H3ZM2 8C2 7.44772 2.44772 7 3 7H8C8.55229 7 9 7.44772 9 8C9 8.55228 8.55228 9 8 9H3C2.44772 9 2 8.55228 2 8ZM3 10C2.44772 10 2 10.4477 2 11C2 11.5523 2.44772 12 3 12H8C8.55228 12 9 11.5523 9 11C9 10.4477 8.55229 10 8 10H3Z" fill="white"/>
</svg>
