<svg width="16" height="16" viewBox="0 0 16 16" fill="none" xmlns="http://www.w3.org/2000/svg">
<path d="M15.5 4.99997C15.5 5.99996 13.5523 5.99996 13 5.99996C12.4477 5.99996 12 5.55225 12 4.99996C12 4.44768 11.9477 3.99997 12.5 3.99997C13.5 4.49997 14 4.99997 15.5 4.99997Z" fill="#F50F0F"/>
<path d="M15.1648 6.30308C15.1648 7.30307 13.5523 7.17742 13 7.17742C12.4477 7.17742 12 6.85537 12 6.30308C12 5.7508 12.4477 5.80308 13 5.80308C14 6.30308 13.6648 6.30308 15.1648 6.30308Z" fill="#F50F0F"/>
<path fill-rule="evenodd" clip-rule="evenodd" d="M9 8.99997C10.933 8.99997 13 7.43297 13 5.49998C13 3.56698 11.433 1.49997 9.5 1.49997C7.567 1.49997 5.16667 3.49997 5.5 5.49997C6 8.49997 7.067 8.99997 9 8.99997ZM7.73715e-06 9.99997C0.0620454 10.3102 0.169726 10.599 0.310768 10.8655C0.488574 12.6712 2.39292 14.1147 4.29726 14.5908C7.20769 15.3184 15.2973 16.0908 15.2973 11.0908C15.0879 9.20638 14.1226 8.09027 12.7269 7.51159C12.0767 8.96134 10.3696 9.99997 8.75104 9.99997C7.01965 9.99997 5.94233 9.62076 5.32864 7.58332L5.29724 7.59079C4.941 7.59079 4.49529 7.53984 4.01458 7.4849C3.80321 7.46073 3.58507 7.4358 3.3648 7.41408C3.18687 7.3004 3.04872 7.19896 2.92333 7.08364C2.64178 6.82468 2.42459 6.49573 1.96592 5.80104C1.67911 6.05537 1.53627 6.39283 1.49848 6.82384C1.34379 6.53135 1.22053 6.16156 1 5.49997C0.153283 5.92333 0.0234956 7.06362 0.00360618 8.92083C-0.000394047 8.99577 -0.00109819 9.07408 0.00165345 9.15591C6.02305e-06 9.42331 6.8263e-06 9.70466 7.73715e-06 9.99997ZM10.4689 4.99997C10.7255 4.99997 11 4.79104 11 4.5333C11 4.27557 10.7919 3.99997 10.5353 3.99997C10.2786 3.99997 9.95989 4.26664 10.0041 4.5333C10.0705 4.9333 10.2122 4.99997 10.4689 4.99997Z" fill="#EEE85F"/>
</svg>
