<svg width="16" height="16" viewBox="0 0 16 16" fill="none" xmlns="http://www.w3.org/2000/svg">
<path d="M5.33516 10.915H1.76516C1.20516 10.915 0.870156 10.745 0.760156 10.405C0.710156 10.225 0.685156 9.995 0.685156 9.715C0.685156 9.435 0.715156 9.21 0.775156 9.04C0.835156 8.87 0.930156 8.75 1.06016 8.68C1.24016 8.59 1.48016 8.545 1.78016 8.545H5.35016C5.91016 8.545 6.24016 8.71 6.34016 9.04C6.40016 9.22 6.43016 9.45 6.43016 9.73C6.43016 10.01 6.40016 10.24 6.34016 10.42C6.29016 10.59 6.20516 10.71 6.08516 10.78C5.90516 10.87 5.65516 10.915 5.33516 10.915ZM14.6894 5.275C15.2094 5.585 15.4694 5.915 15.4694 6.265C15.4694 6.465 15.3694 6.74 15.1694 7.09L12.0644 12.415C11.9644 12.585 11.8044 12.74 11.5844 12.88C11.3644 13.01 11.1444 13.075 10.9244 13.075C10.7144 13.075 10.5094 13.025 10.3094 12.925C10.1194 12.815 9.98441 12.705 9.90441 12.595L9.76941 12.43L6.64941 7.09C6.44941 6.76 6.34941 6.49 6.34941 6.28C6.34941 5.92 6.60941 5.585 7.12941 5.275C7.50941 5.055 7.80941 4.945 8.02941 4.945C8.24941 4.945 8.41941 5.015 8.53941 5.155C8.66941 5.285 8.80441 5.485 8.94441 5.755L10.9094 9.535L12.8744 5.755C12.9844 5.565 13.0644 5.43 13.1144 5.35C13.1744 5.26 13.2644 5.175 13.3844 5.095C13.5044 5.005 13.6644 4.96 13.8644 4.96C14.0644 4.96 14.3394 5.065 14.6894 5.275Z" fill="#FFC530"/>
</svg>
