<svg width="16" height="16" viewBox="0 0 16 16" fill="none" xmlns="http://www.w3.org/2000/svg">
<mask id="mask0_214_125" style="mask-type:alpha" maskUnits="userSpaceOnUse" x="0" y="0" width="16" height="16">
<rect width="16" height="16" rx="1" fill="#77A570"/>
</mask>
<g mask="url(#mask0_214_125)">
<path fill-rule="evenodd" clip-rule="evenodd" d="M0 1C0 0.447715 0.447715 0 1 0H15C15.5523 0 16 0.447715 16 1V15C16 15.5523 15.5523 16 15 16H1C0.447715 16 0 15.5523 0 15V1ZM5.75639 2.61538C5.60112 2.24274 5.23701 2 4.83331 2L2.49998 2C1.78641 2 1.30245 2.72593 1.57691 3.38462L5.7436 13.3846C5.89887 13.7573 6.26298 14 6.66668 14H6.99737C6.99825 14 6.99912 14 7 14L9 14L9.33335 14C9.73705 14 10.1012 13.7573 10.2564 13.3846L14.4231 3.38461C14.6975 2.72592 14.2136 2 13.5 2L11.1667 2C10.763 2 10.3989 2.24274 10.2436 2.61538L8 8.00002L5.75639 2.61538Z" fill="#3EAF7C"/>
</g>
</svg>
