<svg width="16" height="16" viewBox="0 0 16 16" fill="none" xmlns="http://www.w3.org/2000/svg">
<path fill-rule="evenodd" clip-rule="evenodd" d="M8.5 2.28867L12.742 4.73777L14.3497 3.66597L8.5 0.288666V2.28867ZM13.1962 10.1965V5.63682L14.9282 4.48212V11.3512L13.1962 10.1965ZM12.8759 11.1849L8.5 13.7113V15.7113L14.4836 12.2567L12.8759 11.1849ZM1.51637 3.74332L3.12406 4.81512L7.5 2.28867V0.288666L1.51637 3.74332ZM2.80385 5.80349V10.1965L1.0718 11.3512V4.64879L2.80385 5.80349ZM7.5 15.7113L1.51638 12.2567L3.12408 11.1849L7.5 13.7113V15.7113Z" fill="#94ADED"/>
<path fill-rule="evenodd" clip-rule="evenodd" d="M8 3L11.9086 5.2566L8 7.42802L4.09145 5.2566L8 3ZM7.5 8.2942L3.66987 6.16635V10.5L7.5 12.7113V8.2942ZM8.5 12.7113L12.3301 10.5V6.16635L8.5 8.2942V12.7113Z" fill="#356AF3"/>
</svg>
