<svg width="16" height="17" viewBox="0 0 16 17" fill="none" xmlns="http://www.w3.org/2000/svg">
<path fill-rule="evenodd" clip-rule="evenodd" d="M2 1C1.44772 1 1 1.44772 1 2V12C1 12.5523 1.44772 13 2 13H12C12.5523 13 13 12.5523 13 12V2C13 1.44772 12.5523 1 12 1H2ZM11.8449 4.35C11.8449 4.08333 11.6215 3.87 11.1749 3.71C10.9949 3.64333 10.8382 3.61 10.7049 3.61C10.5715 3.61 10.4582 3.64667 10.3649 3.72C10.2782 3.78667 10.2182 3.85667 10.1849 3.93C10.1515 4.00333 10.1082 4.11667 10.0549 4.27L8.95488 7.63L7.80488 4.16C7.76488 4.05333 7.67155 3.94667 7.52488 3.84C7.37822 3.72667 7.21822 3.67 7.04488 3.67C6.87822 3.67 6.74155 3.69333 6.63488 3.74C6.38822 3.84667 6.21822 4.04 6.12488 4.32L5.03488 7.61L3.93488 4.27C3.86822 4.05 3.79155 3.88667 3.70488 3.78C3.62488 3.67333 3.50488 3.62 3.34488 3.62C3.19155 3.62 3.01822 3.65333 2.82488 3.72C2.37822 3.87333 2.15488 4.08333 2.15488 4.35C2.15488 4.45667 2.19155 4.62 2.26488 4.84L4.19488 10.39L4.26488 10.54C4.31155 10.64 4.40155 10.74 4.53488 10.84C4.67488 10.94 4.85155 10.99 5.06488 10.99C5.27822 10.99 5.46155 10.9133 5.61488 10.76C5.67488 10.7 5.72822 10.6333 5.77488 10.56C5.82155 10.4867 5.85155 10.43 5.86488 10.39C5.87822 10.35 6.25488 9.23667 6.99488 7.05L8.16488 10.5C8.21155 10.6067 8.30488 10.7167 8.44488 10.83C8.59155 10.9367 8.76155 10.99 8.95488 10.99C9.15488 10.99 9.32488 10.9367 9.46488 10.83C9.61155 10.7167 9.70155 10.6267 9.73488 10.56C9.76822 10.4933 9.79155 10.4367 9.80488 10.39L11.7249 4.84C11.8049 4.6 11.8449 4.43667 11.8449 4.35Z" fill="#AAAAAA"/>
<path d="M9 15.5H13C14.1046 15.5 15 14.6046 15 13.5V8" stroke="#AD3D3D" stroke-width="2" stroke-linecap="round"/>
</svg>
