<svg width="16" height="16" viewBox="0 0 16 16" fill="none" xmlns="http://www.w3.org/2000/svg">
<path fill-rule="evenodd" clip-rule="evenodd" d="M2 3C1.44772 3 1 3.44772 1 4V14C1 14.5523 1.44772 15 2 15H12C12.5523 15 13 14.5523 13 14V4C13 3.44772 12.5523 3 12 3H2ZM11.8449 6.35C11.8449 6.08333 11.6215 5.87 11.1749 5.71C10.9949 5.64333 10.8382 5.61 10.7049 5.61C10.5715 5.61 10.4582 5.64667 10.3649 5.72C10.2782 5.78667 10.2182 5.85667 10.1849 5.93C10.1515 6.00333 10.1082 6.11667 10.0549 6.27L8.95488 9.63L7.80488 6.16C7.76488 6.05333 7.67155 5.94667 7.52488 5.84C7.37822 5.72667 7.21822 5.67 7.04488 5.67C6.87822 5.67 6.74155 5.69333 6.63488 5.74C6.38822 5.84667 6.21822 6.04 6.12488 6.32L5.03488 9.61L3.93488 6.27C3.86822 6.05 3.79155 5.88667 3.70488 5.78C3.62488 5.67333 3.50488 5.62 3.34488 5.62C3.19155 5.62 3.01822 5.65333 2.82488 5.72C2.37822 5.87333 2.15488 6.08333 2.15488 6.35C2.15488 6.45667 2.19155 6.62 2.26488 6.84L4.19488 12.39L4.26488 12.54C4.31155 12.64 4.40155 12.74 4.53488 12.84C4.67488 12.94 4.85155 12.99 5.06488 12.99C5.27822 12.99 5.46155 12.9133 5.61488 12.76C5.67488 12.7 5.72822 12.6333 5.77488 12.56C5.82155 12.4867 5.85155 12.43 5.86488 12.39C5.87822 12.35 6.25488 11.2367 6.99488 9.05L8.16488 12.5C8.21155 12.6067 8.30488 12.7167 8.44488 12.83C8.59155 12.9367 8.76155 12.99 8.95488 12.99C9.15488 12.99 9.32488 12.9367 9.46488 12.83C9.61155 12.7167 9.70155 12.6267 9.73488 12.56C9.76822 12.4933 9.79155 12.4367 9.80488 12.39L11.7249 6.84C11.8049 6.6 11.8449 6.43667 11.8449 6.35Z" fill="#AAAAAA"/>
<path d="M9 1H13C14.1046 1 15 1.89543 15 3V8.5" stroke="#AD3D3D" stroke-width="2" stroke-linecap="round"/>
</svg>
