<svg width="16" height="16" viewBox="0 0 16 16" fill="none" xmlns="http://www.w3.org/2000/svg">
<path d="M11 4C11 3.44772 11.4477 3 12 3V3C12.5523 3 13 3.44772 13 4V10C13 10.5523 12.5523 11 12 11V11C11.4477 11 11 10.5523 11 10V4Z" fill="#E23171"/>
<path d="M3 7C3 6.44772 3.44772 6 4 6V6C4.55228 6 5 6.44772 5 7V10C5 10.5523 4.55228 11 4 11V11C3.44772 11 3 10.5523 3 10V7Z" fill="#E23171"/>
<rect x="6" y="5" width="2" height="7" rx="1" transform="rotate(-90 6 5)" fill="#E23171"/>
<rect x="2" y="2" width="4" height="4" stroke="#E23171" stroke-width="2"/>
<rect x="10" y="10" width="4" height="4" rx="2" stroke="#E23171" stroke-width="2"/>
<rect x="2" y="10" width="4" height="4" rx="2" stroke="#E23171" stroke-width="2"/>
</svg>
