<svg width="16" height="16" viewBox="0 0 16 16" fill="none" xmlns="http://www.w3.org/2000/svg">
<rect x="0.5" y="-0.5" width="15" height="15" rx="0.5" transform="matrix(1 0 0 -1 0 15)" stroke="#E23171" stroke-linecap="square" stroke-dasharray="3 3"/>
<path d="M10.75 4.50584C10.75 4.09163 11.0858 3.75584 11.5 3.75584V3.75584C11.9142 3.75584 12.25 4.09163 12.25 4.50584V9.25C12.25 9.66421 11.9142 10 11.5 10V10C11.0858 10 10.75 9.66421 10.75 9.25V4.50584Z" fill="#E23171"/>
<path d="M3.75 7.03571C3.75 6.6215 4.08579 6.28571 4.5 6.28571V6.28571C4.91421 6.28571 5.25 6.6215 5.25 7.03571V9.25C5.25 9.66421 4.91421 10 4.5 10V10C4.08579 10 3.75 9.66421 3.75 9.25V7.03571Z" fill="#E23171"/>
<path d="M6.75 5.25C6.33579 5.25 6 4.91421 6 4.5V4.5C6 4.08579 6.33579 3.75 6.75 3.75L11.4922 3.75C11.9064 3.75 12.2422 4.08579 12.2422 4.5V4.5C12.2422 4.91421 11.9064 5.25 11.4922 5.25L6.75 5.25Z" fill="#E23171"/>
<rect x="2.75" y="2.75" width="3.5" height="3.5" stroke="#E23171" stroke-width="1.5"/>
<rect x="9.75" y="9.75" width="3.5" height="3.5" rx="1.75" stroke="#E23171" stroke-width="1.5"/>
<rect x="2.75" y="9.75" width="3.5" height="3.5" rx="1.75" stroke="#E23171" stroke-width="1.5"/>
</svg>
