<svg width="16" height="16" viewBox="0 0 16 16" fill="none" xmlns="http://www.w3.org/2000/svg">
<path d="M4.23882 13L1.3106e-05 8.61403L1.31597e-05 7.38596L4.23882 3L5.44264 4.22807L2.50001 7.38596L2.50001 8.61403L5.45959 11.7719L4.23882 13Z" fill="#298DBE"/>
<path d="M11.7612 13L16 8.61403L16 7.38596L11.7612 3L10.5574 4.22807L13.5 7.38596L13.5 8.61403L10.5404 11.7719L11.7612 13Z" fill="#298DBE"/>
<path d="M7 12H9L9.5 11L9 10H8H7L6.5 11L7 12Z" fill="#41D4F5"/>
<path d="M7 3.5L7 8.5L8 9L9 8.5L9 6L9 3.5L8 3L7 3.5Z" fill="#41D4F5"/>
</svg>
