<svg width="16" height="16" viewBox="0 0 16 16" fill="none" xmlns="http://www.w3.org/2000/svg">
<path fill-rule="evenodd" clip-rule="evenodd" d="M1 0C0.447715 0 0 0.447715 0 1V15C0 15.5523 0.447715 16 1 16H15C15.5523 16 16 15.5523 16 15V1C16 0.447715 15.5523 0 15 0H1ZM10 2C9.44772 2 9 2.44772 9 3V4C9 4.55228 9.44772 5 10 5H14C14.5523 5 15 4.55228 15 4V3C15 2.44772 14.5523 2 14 2H10ZM8 7C8 6.44772 8.44772 6 9 6H14C14.5523 6 15 6.44772 15 7V8C15 8.55228 14.5523 9 14 9H9C8.44771 9 8 8.55228 8 8V7ZM8 10C7.44772 10 7 10.4477 7 11V12C7 12.5523 7.44772 13 8 13H14C14.5523 13 15 12.5523 15 12V11C15 10.4477 14.5523 10 14 10H8ZM2 13C2 11.8954 2.89543 11 4 11C5.10457 11 6 11.8954 6 13C6 14.1046 5.10457 15 4 15C2.89543 15 2 14.1046 2 13ZM7.79575 3.53529C8.14975 2.2609 7.19136 1 5.86872 1H4C2.89543 1 2 1.89543 2 3L2 8C2 9.10457 2.89543 10 4 10H4.47983C5.37824 10 6.16641 9.40093 6.40686 8.53529L7.79575 3.53529Z" fill="#389CB1"/>
</svg>
