<svg width="16" height="16" viewBox="0 0 16 16" fill="none" xmlns="http://www.w3.org/2000/svg">
<path d="M4.2388 13L-2.15275e-06 8.61403L-2.09907e-06 7.38596L4.2388 3L5.44263 4.22807L2.5 7.38596L2.5 8.61403L5.45958 11.7719L4.2388 13Z" fill="#0092DA"/>
<path d="M11.7612 13L16 8.61403L16 7.38596L11.7612 2.99999L10.5574 4.22806L13.5 7.38596L13.5 8.61403L10.5404 11.7719L11.7612 13Z" fill="#0092DA"/>
<path d="M7 12H9L9.5 11L9 10H8H7L6.5 11L7 12Z" fill="#01D1FF"/>
<path d="M7 3.5L7 8.5L8 9L9 8.5L9 6L9 3.5L8 3L7 3.5Z" fill="#01D1FF"/>
</svg>
