<svg width="16" height="16" viewBox="0 0 16 16" fill="none" xmlns="http://www.w3.org/2000/svg">
<mask id="mask0_218_560" style="mask-type:alpha" maskUnits="userSpaceOnUse" x="0" y="0" width="16" height="16">
<rect width="16" height="16" rx="1" fill="black"/>
</mask>
<g mask="url(#mask0_218_560)">
<path fill-rule="evenodd" clip-rule="evenodd" d="M9.16584 7.41708C9.0642 7.4679 9 7.57178 9 7.68541V14.5146C9 14.7376 9.23469 14.8827 9.43416 14.7829L13.8342 12.5829C13.9358 12.5321 14 12.4282 14 12.3146V5.48541C14 5.26239 13.7653 5.11734 13.5658 5.21708L9.16584 7.41708ZM12.5 7L10.5 8V11.5L9.50001 12L11.5 13.5L13.5 10L12.5 10.5V7Z" fill="#D9D9D9"/>
<path d="M7 7.68541C7 7.57178 6.9358 7.4679 6.83416 7.41708L2.43416 5.21708C2.23469 5.11735 2 5.2624 2 5.48541V12.3146C2 12.4282 2.0642 12.5321 2.16584 12.5829L6.56584 14.7829C6.76531 14.8827 7 14.7376 7 14.5146V7.68541Z" fill="#D9D9D9"/>
<path d="M7.88462 0.548077C7.95846 0.517308 8.04154 0.517308 8.11538 0.548077L13.3949 2.74789C13.632 2.84667 13.6434 3.17828 13.4137 3.29314L8.13416 5.93292C8.04971 5.97515 7.95029 5.97515 7.86584 5.93292L2.58628 3.29314C2.35656 3.17828 2.36799 2.84667 2.60506 2.74789L7.88462 0.548077Z" fill="#D9D9D9"/>
</g>
</svg>
