<svg width="16" height="16" viewBox="0 0 16 16" fill="none" xmlns="http://www.w3.org/2000/svg">
<rect x="0.5" y="0.5" width="15" height="15" rx="2.5" stroke="#C5C5C5" stroke-dasharray="3 3"/>
<path d="M8.41794 10.127C8.48994 10.277 8.52894 10.406 8.53494 10.514C8.54094 10.616 8.50794 10.709 8.43594 10.793C8.36994 10.871 8.25894 10.949 8.10294 11.027C7.86294 11.141 7.67694 11.174 7.54494 11.126C7.41294 11.084 7.28994 10.943 7.17594 10.703L5.41194 7.013L3.65694 10.703C3.53694 10.937 3.41094 11.075 3.27894 11.117C3.15294 11.165 2.96994 11.132 2.72994 11.018C2.57394 10.946 2.45994 10.871 2.38794 10.793C2.32194 10.709 2.29194 10.613 2.29794 10.505C2.30394 10.391 2.34594 10.259 2.42394 10.109L4.79094 5.186C4.85094 5.066 4.93794 4.97 5.05194 4.898C5.17194 4.826 5.29494 4.79 5.42094 4.79C5.51094 4.79 5.59494 4.808 5.67294 4.844C5.75094 4.874 5.81994 4.919 5.87994 4.979C5.94594 5.039 5.99994 5.111 6.04194 5.195L8.41794 10.127ZM3.89994 9.614L4.45794 8.453H6.37494L6.93294 9.614H3.89994ZM9.2278 11.081C9.0118 11.081 8.8558 11.048 8.7598 10.982C8.6638 10.91 8.6038 10.82 8.5798 10.712C8.5618 10.598 8.5528 10.481 8.5528 10.361V5.483C8.5528 5.363 8.5618 5.252 8.5798 5.15C8.6038 5.042 8.6638 4.955 8.7598 4.889C8.8558 4.817 9.0148 4.781 9.2368 4.781H11.4778C11.8318 4.781 12.1468 4.865 12.4228 5.033C12.6988 5.201 12.9178 5.426 13.0798 5.708C13.2418 5.99 13.3198 6.296 13.3138 6.626C13.3198 6.758 13.3078 6.887 13.2778 7.013C13.2478 7.139 13.2028 7.262 13.1428 7.382C13.0888 7.496 13.0198 7.601 12.9358 7.697C13.0618 7.817 13.1668 7.955 13.2508 8.111C13.3348 8.261 13.3978 8.42 13.4398 8.588C13.4878 8.756 13.5118 8.927 13.5118 9.101C13.5058 9.377 13.4518 9.638 13.3498 9.884C13.2538 10.124 13.1158 10.334 12.9358 10.514C12.7558 10.688 12.5488 10.826 12.3148 10.928C12.0808 11.03 11.8318 11.081 11.5678 11.081H9.2278ZM9.9208 9.722H11.4778C11.5798 9.722 11.6818 9.704 11.7838 9.668C11.8918 9.626 11.9788 9.554 12.0448 9.452C12.1168 9.344 12.1528 9.194 12.1528 9.002C12.1528 8.876 12.1378 8.771 12.1078 8.687C12.0778 8.603 12.0358 8.54 11.9818 8.498C11.9278 8.45 11.8678 8.417 11.8018 8.399C11.7358 8.381 11.6668 8.369 11.5948 8.363C11.5228 8.357 11.4538 8.354 11.3878 8.354H11.1268C10.9228 8.354 10.7788 8.312 10.6948 8.228C10.6108 8.138 10.5688 7.985 10.5688 7.769C10.5688 7.559 10.6138 7.412 10.7038 7.328C10.7998 7.244 10.9498 7.202 11.1538 7.202H11.4148C11.4748 7.202 11.5378 7.199 11.6038 7.193C11.6698 7.187 11.7268 7.169 11.7748 7.139C11.8288 7.109 11.8708 7.061 11.9008 6.995C11.9368 6.923 11.9548 6.827 11.9548 6.707C11.9548 6.503 11.9038 6.359 11.8018 6.275C11.6998 6.185 11.5198 6.14 11.2618 6.14H9.9208V9.722Z" fill="#DB7F3C"/>
</svg>
