<svg width="16" height="16" viewBox="0 0 16 16" fill="none" xmlns="http://www.w3.org/2000/svg">
<rect x="0.5" y="0.5" width="15" height="15" rx="2.5" stroke="#C5C5C5" stroke-dasharray="3 3"/>
<rect x="9" y="4" width="9" height="2" rx="1" transform="rotate(90 9 4)" fill="#91DA8B"/>
<rect x="13" y="7" width="10" height="2" rx="1" transform="rotate(-180 13 7)" fill="#91DA8B"/>
<mask id="path-4-inside-1_1115_382" fill="white">
<path d="M10.9343 9C10.5349 9 10.2967 8.55493 10.5182 8.22265L11.8151 6.27735C11.9271 6.1094 11.9271 5.8906 11.8151 5.72265L10.5182 3.77735C10.2967 3.44507 10.5349 3 10.9343 3L11.7324 3C11.8996 3 12.0557 3.08355 12.1484 3.22265L13.8151 5.72265C13.9271 5.8906 13.9271 6.1094 13.8151 6.27735L12.1484 8.77735C12.0557 8.91645 11.8996 9 11.7324 9L10.9343 9Z"/>
</mask>
<path d="M11.8151 6.27735L13.4792 7.38675L11.8151 6.27735ZM11.8151 5.72265L10.151 6.83205L11.8151 5.72265ZM13.8151 6.27735L12.151 5.16795L13.8151 6.27735ZM12.1484 3.22265L10.4843 4.33205L12.1484 3.22265ZM10.5182 3.77735L8.85413 4.88675L10.5182 3.77735ZM10.9343 5L11.7324 5L11.7324 1L10.9343 1L10.9343 5ZM11.7324 7L10.9343 7L10.9343 11L11.7324 11L11.7324 7ZM10.4843 4.33205L12.151 6.83205L15.4792 4.61325L13.8125 2.11325L10.4843 4.33205ZM12.151 5.16795L10.4843 7.66795L13.8125 9.88675L15.4792 7.38675L12.151 5.16795ZM12.1823 9.33205L13.4792 7.38675L10.151 5.16795L8.85413 7.11325L12.1823 9.33205ZM13.4792 4.61325L12.1823 2.66795L8.85413 4.88675L10.151 6.83205L13.4792 4.61325ZM13.4792 7.38675C14.039 6.547 14.039 5.453 13.4792 4.61325L10.151 6.83205C9.8151 6.3282 9.8151 5.6718 10.151 5.16795L13.4792 7.38675ZM12.151 6.83205C11.8151 6.3282 11.8151 5.6718 12.151 5.16795L15.4792 7.38675C16.039 6.547 16.039 5.453 15.4792 4.61325L12.151 6.83205ZM11.7324 11C12.5683 11 13.3489 10.5822 13.8125 9.88675L10.4843 7.66795C10.7625 7.25065 11.2309 7 11.7324 7L11.7324 11ZM11.7324 5C11.2309 5 10.7625 4.74935 10.4843 4.33205L13.8125 2.11325C13.3489 1.41775 12.5683 1 11.7324 1L11.7324 5ZM10.9343 1C8.93752 1 7.74654 3.22536 8.85413 4.88675L12.1823 2.66795C12.8469 3.66478 12.1323 5 10.9343 5L10.9343 1ZM10.9343 7C12.1323 7 12.8469 8.33522 12.1823 9.33205L8.85413 7.11325C7.74654 8.77464 8.93752 11 10.9343 11L10.9343 7Z" fill="#91DA8B" mask="url(#path-4-inside-1_1115_382)"/>
<mask id="path-6-inside-2_1115_382" fill="white">
<path d="M5.06574 9C5.46509 9 5.70328 8.55493 5.48177 8.22265L4.1849 6.27735C4.07293 6.1094 4.07293 5.8906 4.1849 5.72265L5.48177 3.77735C5.70329 3.44507 5.46509 3 5.06574 3L4.26759 3C4.10042 3 3.9443 3.08355 3.85157 3.22265L2.1849 5.72265C2.07293 5.8906 2.07293 6.1094 2.1849 6.27735L3.85157 8.77735C3.9443 8.91645 4.10042 9 4.26759 9H5.06574Z"/>
</mask>
<path d="M4.1849 5.72265L5.849 6.83205L4.1849 5.72265ZM2.1849 5.72265L3.849 6.83205L2.1849 5.72265ZM3.85157 3.22265L2.18747 2.11325L3.85157 3.22265ZM5.48177 3.77735L7.14587 4.88675L5.48177 3.77735ZM5.06574 5L4.26759 5L4.26759 1L5.06574 1L5.06574 5ZM4.26759 7H5.06574V11H4.26759V7ZM5.51567 4.33205L3.849 6.83205L0.520799 4.61325L2.18747 2.11325L5.51567 4.33205ZM3.849 5.16795L5.51567 7.66795L2.18747 9.88675L0.520799 7.38675L3.849 5.16795ZM3.81767 9.33205L2.5208 7.38675L5.849 5.16795L7.14587 7.11325L3.81767 9.33205ZM2.5208 4.61325L3.81767 2.66795L7.14587 4.88675L5.849 6.83205L2.5208 4.61325ZM2.5208 7.38675C1.96097 6.547 1.96097 5.453 2.5208 4.61325L5.849 6.83205C6.1849 6.3282 6.1849 5.6718 5.849 5.16795L2.5208 7.38675ZM3.849 6.83205C4.1849 6.3282 4.1849 5.6718 3.849 5.16795L0.520799 7.38675C-0.0390322 6.547 -0.0390334 5.453 0.520799 4.61325L3.849 6.83205ZM4.26759 11C3.43171 11 2.65113 10.5822 2.18747 9.88675L5.51567 7.66795C5.23747 7.25065 4.76912 7 4.26759 7V11ZM4.26759 5C4.76912 5 5.23747 4.74935 5.51567 4.33205L2.18747 2.11325C2.65113 1.41775 3.43171 1 4.26759 1L4.26759 5ZM5.06574 1C7.06248 1 8.25346 3.22536 7.14587 4.88675L3.81767 2.66795C3.15311 3.66478 3.8677 5 5.06574 5L5.06574 1ZM5.06574 7C3.8677 7 3.15311 8.33522 3.81767 9.33205L7.14587 7.11325C8.25346 8.77464 7.06248 11 5.06574 11V7Z" fill="#91DA8B" mask="url(#path-6-inside-2_1115_382)"/>
</svg>
