<svg width="16" height="16" viewBox="0 0 16 16" fill="none" xmlns="http://www.w3.org/2000/svg">
<rect x="0.5" y="0.5" width="15" height="15" rx="2.5" stroke="#C5C5C5" stroke-dasharray="3 3"/>
<mask id="path-2-inside-1_1114_246" fill="white">
<path d="M12 10C12.5523 10 13 10.4477 13 11V11C13 11.5523 12.5523 12 12 12L4 12C3.44772 12 3 11.5523 3 11V11C3 10.4477 3.44772 10 4 10L12 10Z"/>
</mask>
<path d="M12 10C12.5523 10 13 10.4477 13 11V11C13 11.5523 12.5523 12 12 12L4 12C3.44772 12 3 11.5523 3 11V11C3 10.4477 3.44772 10 4 10L12 10Z" fill="#E7C655"/>
<path d="M12 10L4 10L4 14L12 14L12 10ZM4 12L12 12L12 8L4 8L4 12ZM5 11C5 11.5523 4.55229 12 4 12L4 8C2.34315 8 1 9.34315 1 11L5 11ZM4 10C4.55228 10 5 10.4477 5 11L1 11C1 12.6569 2.34315 14 4 14L4 10ZM11 11C11 10.4477 11.4477 10 12 10L12 14C13.6569 14 15 12.6569 15 11L11 11ZM15 11C15 9.34315 13.6569 8 12 8L12 12C11.4477 12 11 11.5523 11 11L15 11Z" fill="#E7C655" mask="url(#path-2-inside-1_1114_246)"/>
<mask id="path-4-inside-2_1114_246" fill="white">
<path d="M11 7C11.5523 7 12 7.44772 12 8V8C12 8.55228 11.5523 9 11 9L5 9C4.44772 9 4 8.55228 4 8V8C4 7.44772 4.44772 7 5 7L11 7Z"/>
</mask>
<path d="M11 7C11.5523 7 12 7.44772 12 8V8C12 8.55228 11.5523 9 11 9L5 9C4.44772 9 4 8.55228 4 8V8C4 7.44772 4.44772 7 5 7L11 7Z" fill="#E7C655"/>
<path d="M11 7L5 7L5 11L11 11L11 7ZM5 9L11 9L11 5L5 5L5 9ZM6 8C6 8.55228 5.55228 9 5 9L5 5C3.34315 5 2 6.34315 2 8L6 8ZM5 7C5.55228 7 6 7.44772 6 8L2 8C2 9.65685 3.34315 11 5 11L5 7ZM10 8C10 7.44772 10.4477 7 11 7L11 11C12.6569 11 14 9.65685 14 8L10 8ZM14 8C14 6.34315 12.6569 5 11 5L11 9C10.4477 9 10 8.55228 10 8L14 8Z" fill="#E7C655" mask="url(#path-4-inside-2_1114_246)"/>
<mask id="path-6-inside-3_1114_246" fill="white">
<path d="M10 4C10.5523 4 11 4.44772 11 5V5C11 5.55228 10.5523 6 10 6L6 6C5.44772 6 5 5.55228 5 5V5C5 4.44772 5.44772 4 6 4L10 4Z"/>
</mask>
<path d="M10 4C10.5523 4 11 4.44772 11 5V5C11 5.55228 10.5523 6 10 6L6 6C5.44772 6 5 5.55228 5 5V5C5 4.44772 5.44772 4 6 4L10 4Z" fill="#E7C655"/>
<path d="M10 4L6 4L6 8L10 8L10 4ZM6 6L10 6L10 2L6 2L6 6ZM7 5C7 5.55228 6.55228 6 6 6L6 2C4.34315 2 3 3.34315 3 5L7 5ZM6 4C6.55228 4 7 4.44772 7 5L3 5C3 6.65685 4.34315 8 6 8L6 4ZM9 5C9 4.44772 9.44772 4 10 4L10 8C11.6569 8 13 6.65685 13 5L9 5ZM13 5C13 3.34315 11.6569 2 10 2L10 6C9.44772 6 9 5.55229 9 5L13 5Z" fill="#E7C655" mask="url(#path-6-inside-3_1114_246)"/>
</svg>
