<svg width="16" height="16" viewBox="0 0 16 16" fill="none" xmlns="http://www.w3.org/2000/svg">
<rect x="0.5" y="0.5" width="15" height="15" rx="2.5" stroke="#C5C5C5" stroke-dasharray="3 3"/>
<path d="M4.59744 13.102C4.42144 13.102 4.23544 13.074 4.03944 13.018C3.84344 12.962 3.65144 12.878 3.46344 12.766C3.27544 12.654 3.10344 12.512 2.94744 12.34C2.79544 12.164 2.67344 11.96 2.58144 11.728C2.49344 11.492 2.44944 11.224 2.44944 10.924C2.44944 10.636 2.49344 10.38 2.58144 10.156C2.67344 9.928 2.79544 9.73 2.94744 9.562C3.09944 9.394 3.26944 9.256 3.45744 9.148C3.64544 9.036 3.83944 8.954 4.03944 8.902C4.23944 8.846 4.42944 8.818 4.60944 8.818C4.81344 8.818 4.99144 8.842 5.14344 8.89C5.29544 8.938 5.41944 8.988 5.51544 9.04C5.61144 9.088 5.67144 9.122 5.69544 9.142C5.76744 9.186 5.83544 9.236 5.89944 9.292C5.96344 9.348 5.99744 9.422 6.00144 9.514C6.00144 9.562 5.99144 9.61 5.97144 9.658C5.95544 9.702 5.92944 9.75 5.89344 9.802C5.82944 9.894 5.76744 9.962 5.70744 10.006C5.65144 10.046 5.59344 10.066 5.53344 10.066C5.48544 10.066 5.43944 10.054 5.39544 10.03C5.35544 10.006 5.30344 9.974 5.23944 9.934C5.21144 9.914 5.17144 9.89 5.11944 9.862C5.06744 9.83 4.99744 9.802 4.90944 9.778C4.82144 9.75 4.70944 9.736 4.57344 9.736C4.43344 9.736 4.29144 9.762 4.14744 9.814C4.00744 9.862 3.87744 9.936 3.75744 10.036C3.63744 10.136 3.54144 10.264 3.46944 10.42C3.39744 10.572 3.36144 10.75 3.36144 10.954C3.36144 11.166 3.39744 11.348 3.46944 11.5C3.54544 11.652 3.64344 11.778 3.76344 11.878C3.88344 11.978 4.01344 12.054 4.15344 12.106C4.29744 12.154 4.43744 12.178 4.57344 12.178C4.69344 12.178 4.79544 12.166 4.87944 12.142C4.96744 12.118 5.04144 12.09 5.10144 12.058C5.16544 12.022 5.21944 11.99 5.26344 11.962C5.30744 11.934 5.35144 11.908 5.39544 11.884C5.44344 11.86 5.49144 11.848 5.53944 11.848C5.59544 11.848 5.65144 11.87 5.70744 11.914C5.76744 11.958 5.82744 12.028 5.88744 12.124C5.92344 12.176 5.95144 12.228 5.97144 12.28C5.99144 12.328 5.99944 12.376 5.99544 12.424C5.99544 12.508 5.96344 12.578 5.89944 12.634C5.83544 12.686 5.76744 12.734 5.69544 12.778C5.66344 12.794 5.60144 12.83 5.50944 12.886C5.41744 12.938 5.29544 12.986 5.14344 13.03C4.99144 13.078 4.80944 13.102 4.59744 13.102ZM6.57491 13.054C6.43491 13.054 6.33291 13.032 6.26891 12.988C6.20891 12.944 6.16891 12.888 6.14891 12.82C6.12891 12.748 6.11891 12.672 6.11891 12.592V9.31C6.11891 9.234 6.12691 9.162 6.14291 9.094C6.15891 9.022 6.19891 8.964 6.26291 8.92C6.32691 8.876 6.43291 8.856 6.58091 8.86H7.66091C7.94891 8.86 8.21691 8.912 8.46491 9.016C8.71291 9.12 8.93091 9.266 9.11891 9.454C9.30691 9.642 9.45291 9.862 9.55691 10.114C9.66091 10.366 9.71291 10.64 9.71291 10.936C9.71291 11.236 9.66091 11.516 9.55691 11.776C9.45291 12.032 9.30691 12.256 9.11891 12.448C8.93091 12.636 8.71091 12.784 8.45891 12.892C8.21091 13 7.93891 13.054 7.64291 13.054H6.57491ZM7.03091 12.136H7.66091C7.87691 12.136 8.07091 12.086 8.24291 11.986C8.41491 11.882 8.55091 11.742 8.65091 11.566C8.75091 11.39 8.80091 11.188 8.80091 10.96C8.80091 10.732 8.75091 10.528 8.65091 10.348C8.55091 10.168 8.41491 10.028 8.24291 9.928C8.07091 9.824 7.87491 9.772 7.65491 9.772H7.03091V12.136ZM10.3009 13.054C10.1609 13.054 10.0589 13.032 9.99486 12.988C9.93086 12.944 9.89086 12.888 9.87486 12.82C9.85886 12.748 9.85086 12.672 9.85086 12.592V9.298C9.85086 9.222 9.85886 9.152 9.87486 9.088C9.89086 9.024 9.93086 8.972 9.99486 8.932C10.0629 8.888 10.1709 8.866 10.3189 8.866C10.4629 8.866 10.5629 8.884 10.6189 8.92C10.6749 8.952 10.7249 8.998 10.7689 9.058L12.5209 11.464V9.298C12.5209 9.222 12.5289 9.152 12.5449 9.088C12.5649 9.024 12.6069 8.972 12.6709 8.932C12.7349 8.888 12.8389 8.866 12.9829 8.866C13.1309 8.866 13.2349 8.888 13.2949 8.932C13.3589 8.976 13.3969 9.034 13.4089 9.106C13.4249 9.174 13.4329 9.246 13.4329 9.322V12.598C13.4329 12.674 13.4249 12.748 13.4089 12.82C13.3929 12.888 13.3529 12.944 13.2889 12.988C13.2249 13.032 13.1189 13.054 12.9709 13.054C12.8589 13.054 12.7709 13.044 12.7069 13.024C12.6469 13.004 12.5949 12.966 12.5509 12.91L10.7629 10.486V12.598C10.7629 12.674 10.7549 12.748 10.7389 12.82C10.7229 12.888 10.6829 12.944 10.6189 12.988C10.5549 13.032 10.4489 13.054 10.3009 13.054Z" fill="#5DC7DE"/>
<rect x="5" y="3" width="4" height="3" rx="1" transform="rotate(90 5 3)" fill="#5DC7DE"/>
<rect x="10" y="3" width="4" height="4" rx="1" transform="rotate(90 10 3)" fill="#5DC7DE"/>
<rect x="14" y="3" width="4" height="3" rx="1" transform="rotate(90 14 3)" fill="#5DC7DE"/>
</svg>
