<svg width="16" height="16" viewBox="0 0 16 16" fill="none" xmlns="http://www.w3.org/2000/svg">
<rect x="0.5" y="0.5" width="15" height="15" rx="2.5" stroke="#C5C5C5" stroke-dasharray="3 3"/>
<path fill-rule="evenodd" clip-rule="evenodd" d="M12 13C12.5523 13 13 12.5523 13 12V4C13 2.83849 12.0152 2.48023 10.4761 2.45214C9.90242 2.44167 9.57162 3.00662 9.26117 3.53681C9.18889 3.66025 9.11771 3.78182 9.04482 3.89379C8.96664 4.01392 8.86279 4.14072 8.7294 4.27849C8.5851 4.42753 8.38877 4.51463 8.18243 4.53606C6.37636 4.72363 5.386 4.49777 4.20983 3.23406C4.07411 3.08825 3.88554 3 3.68635 3C3.30729 3 3 3.30729 3 3.68635V12C3 12.5523 3.44771 13 4 13L12 13ZM5.32009 8.31C5.25009 8.24 5.12643 8.205 4.94909 8.205C4.77643 8.205 4.65276 8.24 4.57809 8.31C4.50809 8.37533 4.47309 8.492 4.47309 8.66V9.052L4.04609 8.919C3.89676 8.86766 3.78009 8.86766 3.69609 8.919C3.61676 8.96566 3.54676 9.07766 3.48609 9.255C3.43009 9.43233 3.42076 9.56533 3.45809 9.654C3.50009 9.74266 3.59576 9.80333 3.74509 9.836L4.17209 9.962L3.91309 10.326C3.81976 10.4567 3.78243 10.5687 3.80109 10.662C3.81976 10.7507 3.89909 10.844 4.03909 10.942C4.17909 11.0447 4.29576 11.096 4.38909 11.096C4.48709 11.0913 4.57809 11.033 4.66209 10.921L4.94909 10.529L5.19409 10.858C5.29209 11.0027 5.39009 11.0843 5.48809 11.103C5.58609 11.117 5.70509 11.0703 5.84509 10.963C5.98043 10.865 6.06209 10.774 6.09009 10.69C6.11809 10.6013 6.09709 10.501 6.02709 10.389L5.72609 9.962L6.09009 9.85C6.26276 9.78933 6.37243 9.71466 6.41909 9.626C6.47043 9.53733 6.46809 9.409 6.41209 9.241C6.36076 9.07766 6.29543 8.97266 6.21609 8.926C6.14143 8.87466 6.03876 8.86533 5.90809 8.898L5.43209 9.045V8.681C5.43209 8.50366 5.39476 8.38 5.32009 8.31ZM8.34103 8.31C8.27103 8.24 8.14736 8.205 7.97003 8.205C7.79736 8.205 7.6737 8.24 7.59903 8.31C7.52903 8.37533 7.49403 8.492 7.49403 8.66V9.052L7.06703 8.919C6.9177 8.86766 6.80103 8.86766 6.71703 8.919C6.6377 8.96566 6.5677 9.07766 6.50703 9.255C6.45103 9.43233 6.4417 9.56533 6.47903 9.654C6.52103 9.74266 6.6167 9.80333 6.76603 9.836L7.19303 9.962L6.93403 10.326C6.8407 10.4567 6.80336 10.5687 6.82203 10.662C6.8407 10.7507 6.92003 10.844 7.06003 10.942C7.20003 11.0447 7.3167 11.096 7.41003 11.096C7.50803 11.0913 7.59903 11.033 7.68303 10.921L7.97003 10.529L8.21503 10.858C8.31303 11.0027 8.41103 11.0843 8.50903 11.103C8.60703 11.117 8.72603 11.0703 8.86603 10.963C9.00136 10.865 9.08303 10.774 9.11103 10.69C9.13903 10.6013 9.11803 10.501 9.04803 10.389L8.74703 9.962L9.11103 9.85C9.2837 9.78933 9.39336 9.71466 9.44003 9.626C9.49136 9.53733 9.48903 9.409 9.43303 9.241C9.3817 9.07766 9.31636 8.97266 9.23703 8.926C9.16236 8.87466 9.0597 8.86533 8.92903 8.898L8.45303 9.045V8.681C8.45303 8.50366 8.4157 8.38 8.34103 8.31ZM11.362 8.31C11.292 8.24 11.1683 8.205 10.991 8.205C10.8183 8.205 10.6946 8.24 10.62 8.31C10.55 8.37533 10.515 8.492 10.515 8.66V9.052L10.088 8.919C9.93864 8.86766 9.82197 8.86766 9.73797 8.919C9.65864 8.96566 9.58864 9.07766 9.52797 9.255C9.47197 9.43233 9.46264 9.56533 9.49997 9.654C9.54197 9.74266 9.63764 9.80333 9.78697 9.836L10.214 9.962L9.95497 10.326C9.86164 10.4567 9.8243 10.5687 9.84297 10.662C9.86164 10.7507 9.94097 10.844 10.081 10.942C10.221 11.0447 10.3376 11.096 10.431 11.096C10.529 11.0913 10.62 11.033 10.704 10.921L10.991 10.529L11.236 10.858C11.334 11.0027 11.432 11.0843 11.53 11.103C11.628 11.117 11.747 11.0703 11.887 10.963C12.0223 10.865 12.104 10.774 12.132 10.69C12.16 10.6013 12.139 10.501 12.069 10.389L11.768 9.962L12.132 9.85C12.3046 9.78933 12.4143 9.71466 12.461 9.626C12.5123 9.53733 12.51 9.409 12.454 9.241C12.4026 9.07766 12.3373 8.97266 12.258 8.926C12.1833 8.87466 12.0806 8.86533 11.95 8.898L11.474 9.045V8.681C11.474 8.50366 11.4366 8.38 11.362 8.31Z" fill="#EC635A"/>
</svg>
