<svg width="16" height="16" viewBox="0 0 16 16" fill="none" xmlns="http://www.w3.org/2000/svg">
<rect x="0.5" y="0.5" width="15" height="15" rx="2.5" stroke="#C5C5C5" stroke-dasharray="3 3"/>
<path d="M6.5 4L6.5 12C6.5 12.2761 6.72386 12.5 7 12.5L9 12.5C9.27614 12.5 9.5 12.2761 9.5 12L9.5 4C9.5 3.72386 9.27614 3.5 9 3.5L7 3.5C6.72386 3.5 6.5 3.72386 6.5 4Z" stroke="#CF8BDA"/>
<path d="M12 6.5L4 6.5C3.72386 6.5 3.5 6.72386 3.5 7L3.5 9C3.5 9.27614 3.72386 9.5 4 9.5L12 9.5C12.2761 9.5 12.5 9.27614 12.5 9L12.5 7C12.5 6.72386 12.2761 6.5 12 6.5Z" stroke="#CF8BDA"/>
</svg>
