<svg width="16" height="16" viewBox="0 0 16 16" fill="none" xmlns="http://www.w3.org/2000/svg">
<rect x="0.5" y="0.5" width="15" height="15" rx="2.5" stroke="#C5C5C5" stroke-dasharray="3 3"/>
<rect x="9" y="13" width="2" height="9" rx="1" transform="rotate(-180 9 13)" fill="#DB7F3C"/>
<mask id="path-3-inside-1_1116_451" fill="white">
<path d="M11 6.06574C11 6.46509 10.5549 6.70328 10.2226 6.48177L8.27735 5.1849C8.1094 5.07293 7.8906 5.07293 7.72265 5.1849L5.77735 6.48177C5.44507 6.70329 5 6.46509 5 6.06574L5 5.26759C5 5.10042 5.08355 4.9443 5.22265 4.85157L7.72265 3.1849C7.8906 3.07293 8.1094 3.07293 8.27735 3.1849L10.7774 4.85157C10.9164 4.9443 11 5.10042 11 5.26759L11 6.06574Z"/>
</mask>
<path d="M8.27735 5.1849L9.38675 3.5208L8.27735 5.1849ZM7.72265 5.1849L8.83205 6.849L7.72265 5.1849ZM8.27735 3.1849L7.16795 4.849L8.27735 3.1849ZM5.22265 4.85157L6.33205 6.51567L5.22265 4.85157ZM5.77735 6.48177L6.88675 8.14587L5.77735 6.48177ZM7 6.06574L7 5.26759L3 5.26759L3 6.06574L7 6.06574ZM9 5.26759L9 6.06574L13 6.06574L13 5.26759L9 5.26759ZM6.33205 6.51567L8.83205 4.849L6.61325 1.5208L4.11325 3.18747L6.33205 6.51567ZM7.16795 4.849L9.66795 6.51567L11.8868 3.18747L9.38675 1.5208L7.16795 4.849ZM11.3321 4.81767L9.38675 3.5208L7.16795 6.849L9.11325 8.14587L11.3321 4.81767ZM6.61325 3.5208L4.66795 4.81767L6.88675 8.14587L8.83205 6.849L6.61325 3.5208ZM9.38675 3.5208C8.547 2.96097 7.453 2.96097 6.61325 3.5208L8.83205 6.849C8.3282 7.1849 7.6718 7.1849 7.16795 6.849L9.38675 3.5208ZM8.83205 4.849C8.3282 5.1849 7.6718 5.1849 7.16795 4.849L9.38675 1.5208C8.547 0.960968 7.453 0.960967 6.61325 1.5208L8.83205 4.849ZM13 5.26759C13 4.43171 12.5822 3.65113 11.8868 3.18747L9.66795 6.51567C9.25065 6.23747 9 5.76912 9 5.26759L13 5.26759ZM7 5.26759C7 5.76912 6.74935 6.23747 6.33205 6.51567L4.11325 3.18747C3.41775 3.65113 3 4.43171 3 5.26759L7 5.26759ZM3 6.06574C3 8.06248 5.22536 9.25346 6.88675 8.14587L4.66795 4.81767C5.66478 4.15311 7 4.8677 7 6.06574L3 6.06574ZM9 6.06574C9 4.8677 10.3352 4.15311 11.3321 4.81767L9.11325 8.14587C10.7746 9.25346 13 8.06248 13 6.06574L9 6.06574Z" fill="#DB7F3C" mask="url(#path-3-inside-1_1116_451)"/>
</svg>
