<svg width="16" height="16" viewBox="0 0 16 16" fill="none" xmlns="http://www.w3.org/2000/svg">
<rect x="0.5" y="0.5" width="15" height="15" rx="2.5" stroke="#C5C5C5" stroke-dasharray="3 3"/>
<path fill-rule="evenodd" clip-rule="evenodd" d="M4 7C4 4.79086 5.79086 3 8 3C10.2091 3 12 4.79086 12 7C12 9.20914 10.2091 11 8 11C5.79086 11 4 9.20914 4 7ZM6.5 6.5C6.5 5.67157 7.17157 5 8 5C8.82843 5 9.5 5.67157 9.5 6.5C9.5 7.32843 8.82843 8 8 8C7.17157 8 6.5 7.32843 6.5 6.5Z" fill="#DD4D4D"/>
<path d="M7.4158 8C6.49263 8 5.59011 8.27326 4.82198 8.78534V8.78534C4.64809 8.90127 4.60927 9.14049 4.73758 9.30546L7.60532 12.9926C7.8055 13.2499 8.1945 13.2499 8.39468 12.9926L11.2624 9.30546C11.3907 9.14049 11.3519 8.90127 11.178 8.78534V8.78534C10.4099 8.27326 9.50738 8 8.58421 8L7.4158 8Z" fill="#DD4D4D"/>
</svg>
