<svg width="16" height="16" viewBox="0 0 16 16" fill="none" xmlns="http://www.w3.org/2000/svg">
<rect x="0.5" y="0.5" width="15" height="15" rx="2.5" stroke="#C5C5C5" stroke-dasharray="3 3"/>
<mask id="path-2-inside-1_1117_519" fill="white">
<path d="M3.5 3C3.22386 3 3 3.22386 3 3.5L3 12.5C3 12.7761 3.22386 13 3.5 13V13C3.77614 13 4 12.7761 4 12.5L4 3.5C4 3.22386 3.77614 3 3.5 3V3Z"/>
</mask>
<path d="M4 3.5L4 12.5L2 12.5L2 3.5L4 3.5ZM3 12.5L3 3.5L5 3.5L5 12.5L3 12.5ZM3 3.5C3 3.77614 3.22386 4 3.5 4L3.5 2C4.32843 2 5 2.67157 5 3.5L3 3.5ZM3.5 12C3.22386 12 3 12.2239 3 12.5L5 12.5C5 13.3284 4.32843 14 3.5 14L3.5 12ZM4 12.5C4 12.2239 3.77614 12 3.5 12L3.5 14C2.67157 14 2 13.3284 2 12.5L4 12.5ZM2 3.5C2 2.67157 2.67157 2 3.5 2L3.5 4C3.77614 4 4 3.77614 4 3.5L2 3.5Z" fill="#E7C655" mask="url(#path-2-inside-1_1117_519)"/>
<mask id="path-4-inside-2_1117_519" fill="white">
<path d="M12.5 3C12.2239 3 12 3.22386 12 3.5L12 12.5C12 12.7761 12.2239 13 12.5 13V13C12.7761 13 13 12.7761 13 12.5L13 3.5C13 3.22386 12.7761 3 12.5 3V3Z"/>
</mask>
<path d="M13 3.5L13 12.5L11 12.5L11 3.5L13 3.5ZM12 12.5L12 3.5L14 3.5L14 12.5L12 12.5ZM12 3.5C12 3.77614 12.2239 4 12.5 4L12.5 2C13.3284 2 14 2.67157 14 3.5L12 3.5ZM12.5 12C12.2239 12 12 12.2239 12 12.5L14 12.5C14 13.3284 13.3284 14 12.5 14L12.5 12ZM13 12.5C13 12.2239 12.7761 12 12.5 12L12.5 14C11.6716 14 11 13.3284 11 12.5L13 12.5ZM11 3.5C11 2.67157 11.6716 2 12.5 2L12.5 4C12.7761 4 13 3.77614 13 3.5L11 3.5Z" fill="#E7C655" mask="url(#path-4-inside-2_1117_519)"/>
<path d="M13.5 11.5L2.5 11.5L13.5 11.5L13.5 11.5L13.5 11.5Z" stroke="#E7C655"/>
<path d="M13.5 6.5L2.5 6.5L13.5 6.5L13.5 6.5L13.5 6.5Z" stroke="#E7C655"/>
<path d="M7 8.5L6 8.5C5.72386 8.5 5.5 8.72386 5.5 9C5.5 9.27614 5.72386 9.5 6 9.5L7 9.5C7.27614 9.5 7.5 9.27614 7.5 9C7.5 8.72386 7.27614 8.5 7 8.5Z" fill="#E7C655" stroke="#E7C655"/>
<path d="M6 4.5C6.27614 4.5 6.5 4.27614 6.5 4C6.5 3.72386 6.27614 3.5 6 3.5C5.72386 3.5 5.5 3.72386 5.5 4C5.5 4.27614 5.72386 4.5 6 4.5Z" fill="#E7C655" stroke="#E7C655"/>
<path d="M9 4.5C9.27614 4.5 9.5 4.27614 9.5 4C9.5 3.72386 9.27614 3.5 9 3.5C8.72386 3.5 8.5 3.72386 8.5 4C8.5 4.27614 8.72386 4.5 9 4.5Z" fill="#E7C655" stroke="#E7C655"/>
<path d="M10 9.5C10.2761 9.5 10.5 9.27614 10.5 9C10.5 8.72386 10.2761 8.5 10 8.5C9.72386 8.5 9.5 8.72386 9.5 9C9.5 9.27614 9.72386 9.5 10 9.5Z" fill="#E7C655" stroke="#E7C655"/>
</svg>
