<svg width="16" height="16" viewBox="0 0 16 16" fill="none" xmlns="http://www.w3.org/2000/svg">
<rect x="0.5" y="0.5" width="15" height="15" rx="2.5" stroke="#C5C5C5" stroke-dasharray="3 3"/>
<mask id="path-2-inside-1_818_728" fill="white">
<path fill-rule="evenodd" clip-rule="evenodd" d="M10.4042 2.91413C10.0434 2.1503 8.95663 2.1503 8.59581 2.91413L7.40539 5.4342L6.86603 4.5C6.48113 3.83333 5.51888 3.83333 5.13398 4.5L3.40193 7.5C3.01702 8.16667 3.49815 9 4.26795 9H6.51891C6.6919 9.15379 6.92083 9.25 7.18122 9.25H11.8188C12.5524 9.25 13.0363 8.48624 12.723 7.82288L10.4042 2.91413Z"/>
</mask>
<path d="M8.59581 2.91413L7.69161 2.48701L7.69161 2.48701L8.59581 2.91413ZM10.4042 2.91413L9.5 3.34126L9.5 3.34126L10.4042 2.91413ZM7.40539 5.4342L6.53936 5.9342L7.49405 7.58776L8.30958 5.86132L7.40539 5.4342ZM6.86603 4.5L6 5L6 5L6.86603 4.5ZM5.13398 4.5L6 5L6 5L5.13398 4.5ZM3.40193 7.5L4.26795 8L4.26795 8L3.40193 7.5ZM6.51891 9L7.18332 8.25263L6.89915 8H6.51891V9ZM12.723 7.82288L13.6272 7.39576L13.6272 7.39576L12.723 7.82288ZM9.5 3.34126L9.5 3.34126L11.3084 2.48701C10.5868 0.959337 8.41325 0.959335 7.69161 2.48701L9.5 3.34126ZM8.30958 5.86132L9.5 3.34125L7.69161 2.48701L6.50119 5.00708L8.30958 5.86132ZM6 5L6.53936 5.9342L8.27141 4.9342L7.73205 4L6 5ZM6 5L6 5L7.73205 4C6.96225 2.66667 5.03775 2.66666 4.26795 4L6 5ZM4.26795 8L6 5L4.26795 4L2.5359 7L4.26795 8ZM4.26795 8L4.26795 8L2.5359 7C1.7661 8.33333 2.72835 10 4.26795 10V8ZM6.51891 8H4.26795V10H6.51891V8ZM7.18122 8.25C7.17789 8.25 7.17659 8.24971 7.1769 8.24977C7.17718 8.24982 7.17811 8.25003 7.17939 8.25053C7.18212 8.25159 7.18343 8.25273 7.18332 8.25263L5.8545 9.74737C6.20283 10.057 6.66577 10.25 7.18122 10.25V8.25ZM11.8188 8.25H7.18122V10.25H11.8188V8.25ZM11.8188 8.25L11.8188 8.25V10.25C13.2861 10.25 14.2539 8.72248 13.6272 7.39576L11.8188 8.25ZM9.5 3.34126L11.8188 8.25L13.6272 7.39576L11.3084 2.48701L9.5 3.34126Z" fill="#0092DA" mask="url(#path-2-inside-1_818_728)"/>
<rect x="3.25" y="10.25" width="9.5" height="0.5" rx="0.25" stroke="#C5C5C5" stroke-width="0.5"/>
<rect x="3.25" y="12.25" width="6.5" height="0.5" rx="0.25" stroke="#C5C5C5" stroke-width="0.5"/>
</svg>
