<svg width="16" height="16" viewBox="0 0 16 16" fill="none" xmlns="http://www.w3.org/2000/svg">
<rect x="0.5" y="0.5" width="15" height="15" rx="2.5" stroke="#C5C5C5" stroke-dasharray="3 3"/>
<mask id="path-2-inside-1_818_728" fill="white">
<path fill-rule="evenodd" clip-rule="evenodd" d="M10.4177 3.11925C10.0697 2.31573 8.93028 2.31573 8.58235 3.11925L7.42861 5.7837L6.88969 4.73359C6.51785 4.00903 5.48217 4.00904 5.11033 4.73359L3.28343 8.29341C2.94192 8.95887 3.42513 9.75 4.17311 9.75H6.46346C6.63671 9.90389 6.86582 10 7.12563 10H11.8744C12.5939 10 13.078 9.26292 12.7921 8.60264L10.4177 3.11925Z"/>
</mask>
<path d="M8.58235 3.11925L7.20586 2.52321L7.20586 2.52321L8.58235 3.11925ZM10.4177 3.11925L9.04118 3.71529L9.04118 3.71529L10.4177 3.11925ZM7.42861 5.7837L6.09409 6.46857L7.54361 9.29304L8.8051 6.37974L7.42861 5.7837ZM6.88969 4.73359L8.22421 4.04871L8.22421 4.04871L6.88969 4.73359ZM5.11033 4.73359L6.44485 5.41847L6.44485 5.41847L5.11033 4.73359ZM3.28343 8.29341L1.94891 7.60854L1.94891 7.60854L3.28343 8.29341ZM6.46346 9.75L7.45964 8.62856L7.03348 8.25H6.46346V9.75ZM12.7921 8.60264L14.1685 8.0066L14.1685 8.0066L12.7921 8.60264ZM9.95884 3.71529C9.78488 4.11705 9.21515 4.11705 9.04118 3.71529L11.7942 2.52321C10.9243 0.514408 8.07569 0.514406 7.20586 2.52321L9.95884 3.71529ZM8.8051 6.37974L9.95884 3.71529L7.20586 2.52321L6.05211 5.18766L8.8051 6.37974ZM5.55517 5.41846L6.09409 6.46857L8.76313 5.09882L8.22421 4.04871L5.55517 5.41846ZM6.44485 5.41847C6.25893 5.78074 5.7411 5.78075 5.55517 5.41847L8.22421 4.04871C7.29461 2.23732 4.70541 2.23733 3.77581 4.04871L6.44485 5.41847ZM4.61795 8.97829L6.44485 5.41847L3.77581 4.04871L1.94891 7.60854L4.61795 8.97829ZM4.17311 8.25C4.5471 8.25 4.78871 8.64556 4.61795 8.97829L1.94891 7.60854C1.09512 9.27219 2.30316 11.25 4.17311 11.25V8.25ZM6.46346 8.25H4.17311V11.25H6.46346V8.25ZM7.12563 8.5C7.24837 8.5 7.37005 8.54897 7.45964 8.62856L5.46728 10.8714C5.90336 11.2588 6.48327 11.5 7.12563 11.5V8.5ZM11.8744 8.5H7.12563V11.5H11.8744V8.5ZM11.4156 9.19868C11.2726 8.86853 11.5146 8.5 11.8744 8.5V11.5C13.6732 11.5 14.8833 9.6573 14.1685 8.0066L11.4156 9.19868ZM9.04118 3.71529L11.4156 9.19868L14.1685 8.0066L11.7942 2.52321L9.04118 3.71529Z" fill="#5DC7DE" mask="url(#path-2-inside-1_818_728)"/>
<rect x="3.5" y="11.5" width="9" height="1" rx="0.5" stroke="#5DC7DE"/>
</svg>
