<svg width="16" height="16" viewBox="0 0 16 16" fill="none" xmlns="http://www.w3.org/2000/svg">
<rect x="0.5" y="0.5" width="15" height="15" rx="2.5" stroke="#C5C5C5" stroke-dasharray="3 3"/>
<path d="M8.78711 9.82C8.88711 10.02 8.94044 10.19 8.94711 10.33C8.95378 10.47 8.91044 10.5933 8.81711 10.7C8.72378 10.8067 8.57378 10.9133 8.36711 11.02C8.04711 11.1733 7.80044 11.22 7.62711 11.16C7.45378 11.1067 7.29044 10.9167 7.13711 10.59L5.43711 7.11L3.75711 10.6C3.59711 10.9133 3.43044 11.0967 3.25711 11.15C3.08378 11.21 2.84044 11.1633 2.52711 11.01C2.32044 10.91 2.16711 10.8067 2.06711 10.7C1.97378 10.5933 1.93044 10.47 1.93711 10.33C1.94378 10.19 1.99711 10.02 2.09711 9.82L4.60711 4.62C4.68711 4.46 4.80378 4.33333 4.95711 4.24C5.11711 4.14 5.28044 4.09 5.44711 4.09C5.56711 4.09 5.67711 4.11333 5.77711 4.16C5.88378 4.2 5.98044 4.26 6.06711 4.34C6.15378 4.42 6.22378 4.51667 6.27711 4.63L8.78711 9.82ZM3.85711 9.64L4.61711 8.08H6.26711L7.02711 9.64H3.85711ZM12.9065 11.07C12.6065 11.07 12.3832 11.02 12.2365 10.92C12.0965 10.82 12.0298 10.7067 12.0365 10.58H12.1765C12.1432 10.6267 12.0765 10.69 11.9765 10.77C11.8832 10.8433 11.7565 10.9133 11.5965 10.98C11.4365 11.04 11.2398 11.07 11.0065 11.07C10.7065 11.07 10.4165 11.0033 10.1365 10.87C9.86315 10.73 9.61648 10.54 9.39648 10.3C9.18315 10.06 9.01315 9.79 8.88648 9.49C8.75982 9.18333 8.69648 8.86333 8.69648 8.53C8.69648 8.20333 8.75982 7.89 8.88648 7.59C9.01315 7.29 9.18648 7.02333 9.40648 6.79C9.62648 6.55 9.87315 6.36333 10.1465 6.23C10.4198 6.09 10.7065 6.02 11.0065 6.02C11.2332 6.02 11.4232 6.05333 11.5765 6.12C11.7365 6.18667 11.8632 6.26 11.9565 6.34C12.0565 6.42 12.1232 6.48667 12.1565 6.54H12.0465C12.0398 6.37333 12.1065 6.24333 12.2465 6.15C12.3932 6.05667 12.6165 6.01 12.9165 6.01C13.2165 6.01 13.4265 6.05667 13.5465 6.15C13.6732 6.23667 13.7498 6.35 13.7765 6.49C13.8032 6.63 13.8165 6.77333 13.8165 6.92V10.17C13.8165 10.3167 13.8032 10.46 13.7765 10.6C13.7498 10.74 13.6732 10.8533 13.5465 10.94C13.4265 11.0267 13.2132 11.07 12.9065 11.07ZM11.2565 9.26C11.3832 9.26 11.4965 9.22667 11.5965 9.16C11.7032 9.09333 11.7865 9.00667 11.8465 8.9C11.9132 8.78667 11.9465 8.66667 11.9465 8.54C11.9465 8.40667 11.9132 8.28667 11.8465 8.18C11.7865 8.07333 11.7032 7.98667 11.5965 7.92C11.4898 7.85333 11.3698 7.82 11.2365 7.82C11.1032 7.82 10.9798 7.85333 10.8665 7.92C10.7598 7.98667 10.6732 8.07667 10.6065 8.19C10.5398 8.29667 10.5065 8.41667 10.5065 8.55C10.5065 8.67667 10.5398 8.79333 10.6065 8.9C10.6798 9.00667 10.7732 9.09333 10.8865 9.16C10.9998 9.22667 11.1232 9.26 11.2565 9.26Z" fill="#5DC7DE"/>
</svg>
