<svg width="16" height="16" viewBox="0 0 16 16" fill="none" xmlns="http://www.w3.org/2000/svg">
<rect x="0.5" y="0.5" width="15" height="15" rx="2.5" stroke="#C5C5C5" stroke-dasharray="3 3"/>
<path fill-rule="evenodd" clip-rule="evenodd" d="M4 4C3.44772 4 3 4.44772 3 5V10C3 10.5523 3.44771 11 4 11L12 11C12.5523 11 13 10.5523 13 10V5C13 4.44772 12.5523 4 12 4H4ZM5 8C4.44772 8 4 8.44772 4 9C4 9.55228 4.44772 10 5 10L11 10C11.5523 10 12 9.55228 12 9C12 8.44772 11.5523 8 11 8L5 8ZM4 6C4 5.44772 4.44772 5 5 5L6 5C6.55228 5 7 5.44772 7 6C7 6.55228 6.55228 7 6 7H5C4.44772 7 4 6.55228 4 6Z" fill="#91DA8B"/>
</svg>
