<svg width="16" height="16" viewBox="0 0 16 16" fill="none" xmlns="http://www.w3.org/2000/svg">
<rect x="0.5" y="0.5" width="15" height="15" rx="2.5" stroke="#C5C5C5" stroke-dasharray="3 3"/>
<circle cx="8" cy="8" r="2.75" stroke="#91DA8B" stroke-width="2"/>
<rect x="7.125" y="2.75" width="1.75" height="1.75" rx="0.3" fill="#91DA8B"/>
<rect x="7.125" y="11.5" width="1.75" height="1.75" rx="0.3" fill="#91DA8B"/>
<rect x="11.5" y="7.125" width="1.75" height="1.75" rx="0.3" fill="#91DA8B"/>
<rect x="2.75" y="7.125" width="1.75" height="1.75" rx="0.3" fill="#91DA8B"/>
<rect x="4.86244" y="3.625" width="1.75" height="1.75" rx="0.3" transform="rotate(45 4.86244 3.625)" fill="#91DA8B"/>
<rect x="10.9874" y="3.625" width="1.75" height="1.75" rx="0.3" transform="rotate(45 10.9874 3.625)" fill="#91DA8B"/>
<rect x="10.9874" y="9.75" width="1.75" height="1.75" rx="0.3" transform="rotate(45 10.9874 9.75)" fill="#91DA8B"/>
<rect x="4.86244" y="9.75" width="1.75" height="1.75" rx="0.3" transform="rotate(45 4.86244 9.75)" fill="#91DA8B"/>
</svg>
