<svg width="16" height="16" viewBox="0 0 16 16" fill="none" xmlns="http://www.w3.org/2000/svg">
<rect x="0.5" y="0.5" width="15" height="15" rx="2.5" stroke="#C5C5C5" stroke-dasharray="3 3"/>
<path d="M7.41053 13.118V12.117C6.93386 12.0997 6.49186 12.0563 6.08453 11.987C5.68586 11.9177 5.33486 11.8137 5.03153 11.675V10.128C5.38686 10.2753 5.77253 10.3967 6.18853 10.492C6.60453 10.5787 7.01186 10.6307 7.41053 10.648V8.373L7.25453 8.321C6.3792 8.07833 5.76386 7.775 5.40853 7.411C5.0532 7.047 4.87553 6.54433 4.87553 5.903C4.87553 5.23567 5.08786 4.69833 5.51253 4.291C5.94586 3.88367 6.57853 3.63233 7.41053 3.537V2.51H8.69753V3.511C9.0962 3.537 9.46453 3.58033 9.80253 3.641C10.1405 3.70167 10.4179 3.771 10.6345 3.849V5.396C10.3312 5.28333 10.0149 5.19233 9.68553 5.123C9.3562 5.05367 9.02686 5.01467 8.69753 5.006V7.164C9.33886 7.346 9.83286 7.56267 10.1795 7.814C10.5349 8.05667 10.7819 8.33833 10.9205 8.659C11.0592 8.971 11.1285 9.322 11.1285 9.712C11.1285 10.3273 10.9292 10.843 10.5305 11.259C10.1319 11.675 9.52086 11.9437 8.69753 12.065V13.118H7.41053ZM7.41053 6.787V5.084C7.16786 5.136 6.98153 5.227 6.85153 5.357C6.72153 5.487 6.65653 5.669 6.65653 5.903C6.65653 6.11967 6.70853 6.293 6.81253 6.423C6.9252 6.553 7.12453 6.67433 7.41053 6.787ZM8.69753 10.557C8.9142 10.4963 9.07453 10.401 9.17853 10.271C9.28253 10.141 9.33453 9.95467 9.33453 9.712C9.33453 9.48667 9.28686 9.30467 9.19153 9.166C9.0962 9.02733 8.93153 8.90167 8.69753 8.789V10.557Z" fill="#91DA8B"/>
</svg>
