<svg width="16" height="16" viewBox="0 0 16 16" fill="none" xmlns="http://www.w3.org/2000/svg">
<rect x="0.5" y="0.5" width="15" height="15" rx="2.5" stroke="#C5C5C5" stroke-dasharray="3 3"/>
<path d="M3.17279 11.3627C2.78227 11.7533 2.78227 12.3864 3.17279 12.7769V12.7769C3.56331 13.1675 4.19648 13.1675 4.587 12.7769L7.24265 10.1213C7.63317 9.73078 7.63317 9.09761 7.24265 8.70709V8.70709C6.85212 8.31657 6.21896 8.31657 5.82843 8.70709L3.17279 11.3627Z" fill="#5DC7DE"/>
<path d="M9 3.74998C7.20508 3.74998 5.75 5.20506 5.75 6.99998C5.75 8.79491 7.20508 10.25 9 10.25C10.7949 10.25 12.25 8.79491 12.25 6.99998C12.25 5.20506 10.7949 3.74998 9 3.74998Z" stroke="#5DC7DE" stroke-width="1.5"/>
</svg>
