<svg width="16" height="16" viewBox="0 0 16 16" fill="none" xmlns="http://www.w3.org/2000/svg">
<rect x="0.5" y="0.5" width="15" height="15" rx="2.5" stroke="#C5C5C5" stroke-dasharray="3 3"/>
<mask id="path-2-inside-1_814_622" fill="white">
<path fill-rule="evenodd" clip-rule="evenodd" d="M10.9956 11H3.5C2.67157 11 2 10.3284 2 9.5C2 8.88821 2.36625 8.36197 2.89145 8.12858C2.95104 7.80521 3.06957 7.47758 3.25 7.16506C3.47674 6.77234 3.77303 6.45233 4.10261 6.21921C4.44623 4.94094 5.61323 4 7 4C8.28282 4 9.37759 4.80517 9.8065 5.93772C10.0393 5.96081 10.2777 6.00384 10.5176 6.06814C11.762 6.40158 12.6831 7.20885 12.8969 8.05307C13.5327 8.22709 14 8.80897 14 9.5C14 10.3284 13.3284 11 12.5 11H11.0044C11.0029 11 11.0015 11 11 11C10.9985 11 10.9971 11 10.9956 11Z"/>
</mask>
<path d="M10.9956 11L11.0047 7H10.9956V11ZM2.89145 8.12858L4.51585 11.7839L6.44306 10.9275L6.82523 8.85343L2.89145 8.12858ZM3.25 7.16506L6.7141 9.16506L3.25 7.16506ZM4.10261 6.21921L6.41249 9.48486L7.5908 8.65141L7.96548 7.25761L4.10261 6.21921ZM9.8065 5.93772L6.06576 7.35437L6.944 9.67341L9.41166 9.91818L9.8065 5.93772ZM10.5176 6.06814L11.5529 2.20444L11.5529 2.20444L10.5176 6.06814ZM12.8969 8.05307L9.01934 9.03509L9.59182 11.2956L11.841 11.9112L12.8969 8.05307ZM11.0044 11L11.0044 6.99998L10.9953 7.00001L11.0044 11ZM10.9956 7H3.5V15H10.9956V7ZM3.5 7C4.88071 7 6 8.11928 6 9.5H-2C-2 12.5376 0.462434 15 3.5 15V7ZM6 9.5C6 10.5258 5.38262 11.3987 4.51585 11.7839L1.26705 4.47326C-0.650123 5.32524 -2 7.2506 -2 9.5H6ZM6.82523 8.85343C6.80112 8.98425 6.75902 9.08727 6.7141 9.16506L-0.214099 5.16506C-0.619877 5.86789 -0.899046 6.62617 -1.04232 7.40372L6.82523 8.85343ZM6.7141 9.16506C6.65855 9.26129 6.56509 9.37692 6.41249 9.48486L1.79273 2.95356C0.980965 3.52775 0.294934 4.28339 -0.214099 5.16506L6.7141 9.16506ZM7.96548 7.25761C7.85132 7.68227 7.46788 8 7 8V0C3.75858 0 1.04114 2.19961 0.239746 5.18081L7.96548 7.25761ZM7 8C6.56609 8 6.2063 7.72546 6.06576 7.35437L13.5472 4.52107C12.5489 1.88489 9.99956 0 7 0V8ZM9.41166 9.91818C9.42634 9.91964 9.45056 9.92332 9.48236 9.93184L11.5529 2.20444C11.1048 2.08436 10.6523 2.00198 10.2013 1.95725L9.41166 9.91818ZM9.48236 9.93184C9.57842 9.95758 9.58079 9.98251 9.51021 9.92279C9.47178 9.89028 9.39302 9.81626 9.30322 9.68433C9.21386 9.55303 9.09598 9.33771 9.01934 9.03509L16.7745 7.07106C16.079 4.3246 13.6181 2.75779 11.5529 2.20444L9.48236 9.93184ZM11.841 11.9112C10.783 11.6216 10 10.6574 10 9.5H18C18 6.96057 16.2825 4.83257 13.9529 4.19497L11.841 11.9112ZM10 9.5C10 8.11928 11.1193 7 12.5 7V15C15.5376 15 18 12.5376 18 9.5H10ZM12.5 7H11.0044V15H12.5V7ZM10.9953 7.00001C10.9973 7 10.9989 7 11 7V15C11.0041 15 11.0086 15 11.0135 15L10.9953 7.00001ZM11 7C11.0011 7 11.0027 7 11.0047 7.00001L10.9865 15C10.9914 15 10.996 15 11 15V7Z" fill="#0092DA" mask="url(#path-2-inside-1_814_622)"/>
</svg>
