<svg width="16" height="16" viewBox="0 0 16 16" fill="none" xmlns="http://www.w3.org/2000/svg">
<rect x="0.5" y="0.5" width="15" height="15" rx="2.5" stroke="#C5C5C5" stroke-dasharray="3 3"/>
<mask id="path-2-inside-1_814_622" fill="white">
<path fill-rule="evenodd" clip-rule="evenodd" d="M10.9956 11H3.5C2.67157 11 2 10.3284 2 9.5C2 8.88821 2.36625 8.36197 2.89145 8.12857C2.95104 7.80521 3.06957 7.47758 3.25 7.16506C3.47674 6.77234 3.77303 6.45233 4.10261 6.21921C4.44623 4.94094 5.61323 4 7 4C8.28282 4 9.37759 4.80517 9.8065 5.93772C10.0393 5.96081 10.2777 6.00384 10.5176 6.06814C11.762 6.40158 12.6831 7.20885 12.8969 8.05307C13.5327 8.22709 14 8.80897 14 9.5C14 10.3284 13.3284 11 12.5 11H11.0044C11.0029 11 11.0015 11 11 11C10.9985 11 10.9971 11 10.9956 11Z"/>
</mask>
<path d="M10.9956 11L10.9979 10H10.9956V11ZM2.89145 8.12857L3.29756 9.0424L3.77936 8.82829L3.8749 8.30979L2.89145 8.12857ZM3.25 7.16506L2.38398 6.66506L2.38398 6.66506L3.25 7.16506ZM4.10261 6.21921L4.68008 7.03562L4.97466 6.82726L5.06833 6.47881L4.10261 6.21921ZM9.8065 5.93772L8.87131 6.29188L9.09087 6.87164L9.70779 6.93284L9.8065 5.93772ZM10.5176 6.06814L10.7765 5.10221L10.7765 5.10221L10.5176 6.06814ZM12.8969 8.05307L11.9275 8.29858L12.0706 8.8637L12.6329 9.0176L12.8969 8.05307ZM11.0044 11L11.0044 9.99999L11.0021 10L11.0044 11ZM10.9956 10H3.5V12H10.9956V10ZM3.5 10C3.22386 10 3 9.77614 3 9.5H1C1 10.8807 2.11929 12 3.5 12V10ZM3 9.5C3 9.29761 3.12035 9.12115 3.29756 9.0424L2.48535 7.21475C1.61216 7.60279 1 8.47881 1 9.5H3ZM3.8749 8.30979C3.91356 8.09997 3.99193 7.88 4.11603 7.66506L2.38398 6.66506C2.14721 7.07515 1.98852 7.51045 1.90801 7.94736L3.8749 8.30979ZM4.11603 7.66506C4.27219 7.39457 4.47104 7.18348 4.68008 7.03562L3.52514 5.4028C3.07501 5.72119 2.68129 6.1501 2.38398 6.66506L4.11603 7.66506ZM5.06833 6.47881C5.2975 5.62627 6.07689 5 7 5V3C5.14957 3 3.59496 4.25561 3.1369 5.95961L5.06833 6.47881ZM7 5C7.85364 5 8.58477 5.53525 8.87131 6.29188L10.7417 5.58356C10.1704 4.0751 8.71201 3 7 3V5ZM9.70779 6.93284C9.88606 6.95052 10.0709 6.98371 10.2588 7.03407L10.7765 5.10221C10.4844 5.02397 10.1925 4.97111 9.9052 4.9426L9.70779 6.93284ZM10.2588 7.03407C11.298 7.31252 11.8342 7.92992 11.9275 8.29858L13.8663 7.80757C13.5321 6.48779 12.226 5.49063 10.7765 5.10221L10.2588 7.03407ZM12.6329 9.0176C12.8453 9.07572 13 9.27107 13 9.5H15C15 8.34687 14.2202 7.37846 13.1609 7.08855L12.6329 9.0176ZM13 9.5C13 9.77614 12.7761 10 12.5 10V12C13.8807 12 15 10.8807 15 9.5H13ZM12.5 10H11.0044V12H12.5V10ZM11.0021 10C11.0015 10 11.0008 10 11 10V12C11.0021 12 11.0044 12 11.0067 12L11.0021 10ZM11 10C10.9992 10 10.9985 10 10.9979 10L10.9933 12C10.9957 12 10.9979 12 11 12V10Z" fill="#0092DA" mask="url(#path-2-inside-1_814_622)"/>
</svg>
