<svg width="16" height="16" viewBox="0 0 16 16" fill="none" xmlns="http://www.w3.org/2000/svg">
<rect x="0.5" y="0.5" width="15" height="15" rx="2.5" stroke="#C5C5C5" stroke-dasharray="3 3"/>
<path fill-rule="evenodd" clip-rule="evenodd" d="M3 11V5H9L9 11H7C7 9.89543 6.10457 9 5 9C3.89543 9 3 9.89543 3 11Z" fill="#E7C655"/>
<path d="M5 10C4.44772 10 4 10.4477 4 11V11C4 11.5523 4.44772 12 5 12V12C5.55228 12 6 11.5523 6 11V11C6 10.4477 5.55228 10 5 10V10Z" fill="#E7C655"/>
<path d="M11 10C10.4477 10 10 10.4477 10 11V11C10 11.5523 10.4477 12 11 12V12C11.5523 12 12 11.5523 12 11V11C12 10.4477 11.5523 10 11 10V10Z" fill="#E7C655"/>
<path fill-rule="evenodd" clip-rule="evenodd" d="M9 5V11C9 9.89543 9.89543 9 11 9C11.9801 9 12.7955 9.70498 12.9669 10.6355L12.5 5.5L9 5ZM10 8L10 6H12V8H10Z" fill="#E7C655"/>
</svg>
