<svg width="16" height="16" viewBox="0 0 16 16" fill="none" xmlns="http://www.w3.org/2000/svg">
<rect x="0.5" y="0.5" width="15" height="15" rx="2.5" stroke="#C5C5C5" stroke-dasharray="3 3"/>
<path d="M12.25 4L12.25 6C12.25 6.13807 12.1381 6.25 12 6.25L4 6.25C3.86193 6.25 3.75 6.13807 3.75 6L3.75 4C3.75 3.86193 3.86193 3.75 4 3.75L12 3.75C12.1381 3.75 12.25 3.86193 12.25 4Z" stroke="#5DC7DE" stroke-width="1.5"/>
<path d="M7.25 9L7.25 12C7.25 12.1381 7.13807 12.25 7 12.25L4 12.25C3.86193 12.25 3.75 12.1381 3.75 12L3.75 9C3.75 8.86193 3.86193 8.75 4 8.75L7 8.75C7.13807 8.75 7.25 8.86193 7.25 9Z" stroke="#5DC7DE" stroke-width="1.5"/>
<path d="M12.25 9L12.25 12C12.25 12.1381 12.1381 12.25 12 12.25L10 12.25C9.86193 12.25 9.75 12.1381 9.75 12L9.75 9C9.75 8.86193 9.86193 8.75 10 8.75L12 8.75C12.1381 8.75 12.25 8.86193 12.25 9Z" stroke="#5DC7DE" stroke-width="1.5"/>
</svg>
