<svg width="16" height="16" viewBox="0 0 16 16" fill="none" xmlns="http://www.w3.org/2000/svg">
<rect x="0.5" y="0.5" width="15" height="15" rx="2.5" stroke="#C5C5C5" stroke-dasharray="3 3"/>
<path d="M4 4C3.44772 4 3 4.44772 3 5V5C3 5.55229 3.44772 6 4 6L11 6C11.5523 6 12 5.55228 12 5V5C12 4.44772 11.5523 4 11 4L4 4Z" fill="#EC635A"/>
<path d="M4 7C3.44772 7 3 7.44772 3 8V8C3 8.55228 3.44772 9 4 9L9 9C9.55228 9 10 8.55228 10 8V8C10 7.44772 9.55228 7 9 7L4 7Z" fill="#EC635A"/>
<path d="M4 10C3.44772 10 3 10.4477 3 11V11C3 11.5523 3.44772 12 4 12L7 12C7.55228 12 8 11.5523 8 11V11C8 10.4477 7.55228 10 7 10L4 10Z" fill="#EC635A"/>
</svg>
