<svg width="16" height="16" viewBox="0 0 16 16" fill="none" xmlns="http://www.w3.org/2000/svg">
<rect x="0.5" y="0.5" width="15" height="15" rx="2.5" stroke="#C5C5C5" stroke-dasharray="3 3"/>
<rect x="3" y="6" width="2" height="9" rx="1" transform="rotate(-90 3 6)" fill="#DD4D4D"/>
<rect x="3" y="12" width="2" height="9" rx="1" transform="rotate(-90 3 12)" fill="#DD4D4D"/>
<mask id="path-4-inside-1_1116_470" fill="white">
<path d="M10.2071 7C9.76166 7 9.53857 6.46143 9.85355 6.14645L10.6464 5.35356C10.8417 5.15829 10.8417 4.84171 10.6464 4.64645L9.85355 3.85356C9.53857 3.53857 9.76165 3 10.2071 3L10.7929 3C10.9255 3 11.0527 3.05268 11.1464 3.14645L12.6464 4.64645C12.8417 4.84171 12.8417 5.15829 12.6464 5.35356L11.1464 6.85355C11.0527 6.94732 10.9255 7 10.7929 7L10.2071 7Z"/>
</mask>
<path d="M10.6464 4.64645L9.23223 6.06066L10.6464 4.64645ZM12.6464 4.64645L11.2322 6.06066L12.6464 4.64645ZM11.1464 3.14645L12.5607 1.73224L11.1464 3.14645ZM9.85355 3.85356L8.43934 5.26777L9.85355 3.85356ZM10.2071 5L10.7929 5L10.7929 1L10.2071 1L10.2071 5ZM10.7929 5L10.2071 5L10.2071 9L10.7929 9L10.7929 5ZM9.73223 4.56066L11.2322 6.06066L14.0607 3.23224L12.5607 1.73224L9.73223 4.56066ZM11.2322 3.93934L9.73223 5.43934L12.5607 8.26777L14.0607 6.76777L11.2322 3.93934ZM11.2678 7.56066L12.0607 6.76777L9.23223 3.93934L8.43934 4.73223L11.2678 7.56066ZM12.0607 3.23224L11.2678 2.43934L8.43934 5.26777L9.23223 6.06066L12.0607 3.23224ZM12.0607 6.76777C13.037 5.79146 13.037 4.20855 12.0607 3.23224L9.23223 6.06066C8.64644 5.47488 8.64645 4.52513 9.23223 3.93934L12.0607 6.76777ZM11.2322 6.06066C10.6464 5.47487 10.6464 4.52513 11.2322 3.93934L14.0607 6.76777C15.037 5.79146 15.037 4.20855 14.0607 3.23224L11.2322 6.06066ZM10.7929 9C11.4559 9 12.0918 8.73661 12.5607 8.26777L9.73223 5.43934C10.0135 5.15804 10.3951 5 10.7929 5L10.7929 9ZM10.7929 5C10.3951 5 10.0135 4.84197 9.73223 4.56066L12.5607 1.73224C12.0918 1.26339 11.4559 1 10.7929 1L10.7929 5ZM10.2071 1C7.97985 1 6.86442 3.69285 8.43934 5.26777L11.2678 2.43934C12.2127 3.38429 11.5435 5 10.2071 5L10.2071 1ZM10.2071 5C11.5435 5 12.2127 6.61571 11.2678 7.56066L8.43934 4.73223C6.86443 6.30714 7.97984 9 10.2071 9L10.2071 5Z" fill="#DD4D4D" mask="url(#path-4-inside-1_1116_470)"/>
<mask id="path-6-inside-2_1116_470" fill="white">
<path d="M10.2071 13C9.76166 13 9.53857 12.4614 9.85355 12.1464L10.6464 11.3536C10.8417 11.1583 10.8417 10.8417 10.6464 10.6464L9.85355 9.85356C9.53857 9.53857 9.76165 9 10.2071 9L10.7929 9C10.9255 9 11.0527 9.05268 11.1464 9.14645L12.6464 10.6464C12.8417 10.8417 12.8417 11.1583 12.6464 11.3536L11.1464 12.8536C11.0527 12.9473 10.9255 13 10.7929 13L10.2071 13Z"/>
</mask>
<path d="M10.6464 10.6464L9.23223 12.0607L10.6464 10.6464ZM12.6464 10.6464L11.2322 12.0607L12.6464 10.6464ZM11.1464 9.14645L12.5607 7.73224L11.1464 9.14645ZM9.85355 9.85356L8.43934 11.2678L9.85355 9.85356ZM10.2071 11L10.7929 11L10.7929 7L10.2071 7L10.2071 11ZM10.7929 11L10.2071 11L10.2071 15L10.7929 15L10.7929 11ZM9.73223 10.5607L11.2322 12.0607L14.0607 9.23224L12.5607 7.73224L9.73223 10.5607ZM11.2322 9.93934L9.73223 11.4393L12.5607 14.2678L14.0607 12.7678L11.2322 9.93934ZM11.2678 13.5607L12.0607 12.7678L9.23223 9.93934L8.43934 10.7322L11.2678 13.5607ZM12.0607 9.23224L11.2678 8.43934L8.43934 11.2678L9.23223 12.0607L12.0607 9.23224ZM12.0607 12.7678C13.037 11.7915 13.037 10.2085 12.0607 9.23224L9.23223 12.0607C8.64644 11.4749 8.64645 10.5251 9.23223 9.93934L12.0607 12.7678ZM11.2322 12.0607C10.6464 11.4749 10.6464 10.5251 11.2322 9.93934L14.0607 12.7678C15.037 11.7915 15.037 10.2086 14.0607 9.23224L11.2322 12.0607ZM10.7929 15C11.4559 15 12.0918 14.7366 12.5607 14.2678L9.73223 11.4393C10.0135 11.158 10.3951 11 10.7929 11L10.7929 15ZM10.7929 11C10.3951 11 10.0135 10.842 9.73223 10.5607L12.5607 7.73224C12.0918 7.26339 11.4559 7 10.7929 7L10.7929 11ZM10.2071 7C7.97985 7 6.86442 9.69285 8.43934 11.2678L11.2678 8.43934C12.2127 9.38429 11.5435 11 10.2071 11L10.2071 7ZM10.2071 11C11.5435 11 12.2127 12.6157 11.2678 13.5607L8.43934 10.7322C6.86443 12.3071 7.97984 15 10.2071 15L10.2071 11Z" fill="#DD4D4D" mask="url(#path-6-inside-2_1116_470)"/>
</svg>
