<svg width="16" height="16" viewBox="0 0 16 16" fill="none" xmlns="http://www.w3.org/2000/svg">
<rect x="0.5" y="0.5" width="15" height="15" rx="2.5" stroke="#C5C5C5" stroke-dasharray="3 3"/>
<path fill-rule="evenodd" clip-rule="evenodd" d="M2 7H2.9991L3 7L3.0009 7L5 7L5 10H3H2V7ZM4 11L4 13H8L8 11H5.50059L5.5 11L5.49941 11L4 11ZM10.5004 11H13V13H9L9 11H10.4996H10.5H10.5004ZM13.5007 10H14V7H11V10H13.4993C13.4995 10 13.4998 10 13.5 10C13.5002 10 13.5005 10 13.5007 10ZM10 10H8.50055L8.5 10L8.49945 10L6 10L6 7L8.4997 7H8.5H8.5003H10V10ZM4 4L4 6L5.49962 6L5.5 6L5.50038 6L8 6L8 4H4ZM9 6L9 4H14V6H10.5006L10.5 6L10.4994 6H9Z" fill="#DD4D4D"/>
</svg>
