<svg width="16" height="16" viewBox="0 0 16 16" fill="none" xmlns="http://www.w3.org/2000/svg">
<rect x="0.5" y="0.5" width="15" height="15" rx="2.5" stroke="#C5C5C5" stroke-dasharray="3 3"/>
<path fill-rule="evenodd" clip-rule="evenodd" d="M12 3C12.5523 3 13 3.44772 13 4V12C13 12.5523 12.5523 13 12 13H4C3.44772 13 3 12.5523 3 12V4C3 3.44772 3.44772 3 4 3H12ZM5 10C5.55228 10 6 10.4477 6 11C6 11.5523 5.55228 12 5 12C4.44772 12 4 11.5523 4 11C4 10.4477 4.44772 10 5 10ZM6 8C6 7.44772 5.55228 7 5 7C4.44772 7 4 7.44772 4 8C4 8.55228 4.44772 9 5 9C5.55228 9 6 8.55228 6 8ZM5 4C5.55228 4 6 4.44772 6 5C6 5.55228 5.55228 6 5 6C4.44772 6 4 5.55228 4 5C4 4.44772 4.44772 4 5 4ZM12 11C12 10.4477 11.5523 10 11 10H8C7.44772 10 7 10.4477 7 11C7 11.5523 7.44772 12 8 12H11C11.5523 12 12 11.5523 12 11ZM11 7C11.5523 7 12 7.44772 12 8C12 8.55228 11.5523 9 11 9H8C7.44772 9 7 8.55228 7 8C7 7.44772 7.44772 7 8 7L11 7ZM12 5C12 4.44772 11.5523 4 11 4L8 4C7.44772 4 7 4.44772 7 5C7 5.55228 7.44772 6 8 6L11 6C11.5523 6 12 5.55228 12 5Z" fill="#5DC7DE"/>
</svg>
