<svg width="16" height="16" viewBox="0 0 16 16" fill="none" xmlns="http://www.w3.org/2000/svg">
<rect x="0.5" y="0.5" width="15" height="15" rx="2.5" stroke="#C5C5C5" stroke-dasharray="3 3"/>
<path fill-rule="evenodd" clip-rule="evenodd" d="M13 10C13 9.44772 12.5523 9 12 9H4C3.44771 9 3 9.44772 3 10V12C3 12.5523 3.44772 13 4 13H12C12.5523 13 13 12.5523 13 12V10ZM5 10C5.55228 10 6 10.4477 6 11C6 11.5523 5.55228 12 5 12C4.44772 12 4 11.5523 4 11C4 10.4477 4.44772 10 5 10ZM12 11C12 10.4477 11.5523 10 11 10L8 10C7.44772 10 7 10.4477 7 11C7 11.5523 7.44772 12 8 12L11 12C11.5523 12 12 11.5523 12 11Z" fill="#5DC7DE"/>
<path fill-rule="evenodd" clip-rule="evenodd" d="M13 4C13 3.44772 12.5523 3 12 3H4C3.44771 3 3 3.44772 3 4V6C3 6.55229 3.44772 7 4 7L12 7C12.5523 7 13 6.55229 13 6V4ZM5 4C5.55228 4 6 4.44772 6 5C6 5.55228 5.55228 6 5 6C4.44772 6 4 5.55228 4 5C4 4.44772 4.44772 4 5 4ZM12 5C12 4.44772 11.5523 4 11 4L8 4C7.44772 4 7 4.44772 7 5C7 5.55228 7.44772 6 8 6L11 6C11.5523 6 12 5.55228 12 5Z" fill="#5DC7DE"/>
</svg>
