<svg width="16" height="16" viewBox="0 0 16 16" fill="none" xmlns="http://www.w3.org/2000/svg">
<rect x="0.5" y="0.5" width="15" height="15" rx="2.5" stroke="#C5C5C5" stroke-dasharray="3 3"/>
<path d="M4 11C3.44772 11 3 11.4477 3 12V12C3 12.5523 3.44772 13 4 13L7 13C7.55228 13 8 12.5523 8 12V12C8 11.4477 7.55228 11 7 11L4 11Z" fill="#E7C655"/>
<path d="M4 8C3.44772 8 3 8.44772 3 9V9C3 9.55229 3.44772 10 4 10L7 10C7.55228 10 8 9.55228 8 9V9C8 8.44772 7.55228 8 7 8L4 8Z" fill="#E7C655"/>
<path d="M4 5C3.44772 5 3 5.44772 3 6V6C3 6.55229 3.44772 7 4 7L7 7C7.55228 7 8 6.55228 8 6V6C8 5.44772 7.55228 5 7 5L4 5Z" fill="#E7C655"/>
<path d="M11.5 8C10.1193 8 9 9.11929 9 10.5V10.5C9 11.8807 10.1193 13 11.5 13V13C12.8807 13 14 11.8807 14 10.5V10.5C14 9.11929 12.8807 8 11.5 8V8Z" fill="#E7C655"/>
</svg>
