<svg width="16" height="16" viewBox="0 0 16 16" fill="none" xmlns="http://www.w3.org/2000/svg">
<rect x="0.5" y="0.5" width="15" height="15" rx="2.5" stroke="#C5C5C5" stroke-dasharray="3 3"/>
<path fill-rule="evenodd" clip-rule="evenodd" d="M10.4853 8.36396L11.1924 7.65685C11.9734 6.87581 11.9734 5.60948 11.1924 4.82843C10.4113 4.04738 9.145 4.04738 8.36395 4.82843L7.65685 5.53553L6.94974 4.82843L7.65685 4.12132C8.82842 2.94975 10.7279 2.94975 11.8995 4.12132C13.0711 5.29289 13.0711 7.19239 11.8995 8.36396L11.1924 9.07107L10.4853 8.36396ZM6.24263 6.94975L4.82842 8.36396C4.04737 9.14501 4.04737 10.4113 4.82842 11.1924C5.60947 11.9734 6.8758 11.9734 7.65685 11.1924L9.07106 9.77818L9.77817 10.4853L8.36395 11.8995C7.19238 13.0711 5.29289 13.0711 4.12131 11.8995C2.94974 10.7279 2.94974 8.82843 4.12131 7.65685L5.53553 6.24264L6.24263 6.94975Z" fill="#5DC7DE"/>
<path d="M7.30329 9.42463L9.42461 7.30331C9.61987 7.10805 9.61987 6.79146 9.42461 6.5962C9.22935 6.40094 8.91277 6.40094 8.7175 6.5962L6.59618 8.71752C6.40092 8.91278 6.40092 9.22937 6.59618 9.42463C6.79144 9.61989 7.10803 9.61989 7.30329 9.42463Z" stroke="#5DC7DE"/>
</svg>
